<svg width="232" height="38" viewBox="0 0 232 38" fill="none" xmlns="http://www.w3.org/2000/svg">
<g id="&#60;Frontend Pro/&#62;">
<mask id="path-1-outside-1_795_6004" maskUnits="userSpaceOnUse" x="0" y="5" width="232" height="28" fill="black">
<rect fill="white" y="5" width="232" height="28"/>
<path d="M5.01562 20.0312L14.75 23.4375V27.9531L1.09375 22.2812V19.0156L5.01562 20.0312ZM14.75 17.2656L5.01562 20.7344L1.09375 21.7188V18.4375L14.75 12.7656V17.2656ZM23.5938 7.25V30H18.5V7.25H23.5938ZM32.5469 16.8438V20.7812H22.1719V16.8438H32.5469ZM33.5469 7.25V11.2031H22.1719V7.25H33.5469ZM40.2656 17.0312V30H35.3906V13.0938H39.9688L40.2656 17.0312ZM45.3125 12.9688L45.2344 17.5156C45.026 17.4844 44.7552 17.4583 44.4219 17.4375C44.0885 17.4062 43.8021 17.3906 43.5625 17.3906C42.9375 17.3906 42.3958 17.4688 41.9375 17.625C41.4896 17.7708 41.1146 17.9896 40.8125 18.2812C40.5208 18.5729 40.3021 18.9375 40.1562 19.375C40.0104 19.8021 39.9375 20.2969 39.9375 20.8594L39.0156 20.4062C39.0156 19.2917 39.125 18.2708 39.3438 17.3438C39.5625 16.4167 39.8802 15.6146 40.2969 14.9375C40.7135 14.25 41.224 13.7188 41.8281 13.3438C42.4323 12.9688 43.1198 12.7812 43.8906 12.7812C44.1406 12.7812 44.3958 12.7969 44.6562 12.8281C44.9167 12.8594 45.1354 12.9062 45.3125 12.9688ZM46.0781 21.7188V21.3906C46.0781 20.151 46.2552 19.0104 46.6094 17.9688C46.9635 16.9167 47.4844 16.0052 48.1719 15.2344C48.8594 14.4635 49.7031 13.8646 50.7031 13.4375C51.7031 13 52.849 12.7812 54.1406 12.7812C55.4531 12.7812 56.6094 13 57.6094 13.4375C58.6198 13.8646 59.4688 14.4635 60.1562 15.2344C60.8438 16.0052 61.3646 16.9167 61.7188 17.9688C62.0729 19.0104 62.25 20.151 62.25 21.3906V21.7188C62.25 22.9479 62.0729 24.0885 61.7188 25.1406C61.3646 26.1823 60.8438 27.0938 60.1562 27.875C59.4688 28.6458 58.625 29.2448 57.625 29.6719C56.625 30.099 55.474 30.3125 54.1719 30.3125C52.8802 30.3125 51.7292 30.099 50.7188 29.6719C49.7083 29.2448 48.8594 28.6458 48.1719 27.875C47.4844 27.0938 46.9635 26.1823 46.6094 25.1406C46.2552 24.0885 46.0781 22.9479 46.0781 21.7188ZM50.9688 21.3906V21.7188C50.9688 22.3854 51.0208 23.0104 51.125 23.5938C51.2396 24.1771 51.4219 24.6875 51.6719 25.125C51.9219 25.5625 52.25 25.9062 52.6562 26.1562C53.0729 26.3958 53.5781 26.5156 54.1719 26.5156C54.7656 26.5156 55.2656 26.3958 55.6719 26.1562C56.0781 25.9062 56.4062 25.5625 56.6562 25.125C56.9062 24.6875 57.0833 24.1771 57.1875 23.5938C57.3021 23.0104 57.3594 22.3854 57.3594 21.7188V21.3906C57.3594 20.7344 57.3021 20.1198 57.1875 19.5469C57.0833 18.9635 56.9062 18.4479 56.6562 18C56.4062 17.5521 56.0729 17.2031 55.6562 16.9531C55.25 16.7031 54.7448 16.5781 54.1406 16.5781C53.5573 16.5781 53.0625 16.7031 52.6562 16.9531C52.25 17.2031 51.9219 17.5521 51.6719 18C51.4219 18.4479 51.2396 18.9635 51.125 19.5469C51.0208 20.1198 50.9688 20.7344 50.9688 21.3906ZM69.5938 16.7031V30H64.7031V13.0938H69.2969L69.5938 16.7031ZM68.9531 20.9531L67.7344 20.9844C67.7344 19.7135 67.8906 18.5729 68.2031 17.5625C68.5156 16.5521 68.9583 15.6927 69.5312 14.9844C70.1146 14.2656 70.8073 13.7188 71.6094 13.3438C72.4219 12.9688 73.3177 12.7812 74.2969 12.7812C75.0885 12.7812 75.8125 12.8958 76.4688 13.125C77.125 13.3542 77.6875 13.724 78.1562 14.2344C78.6354 14.7344 79 15.401 79.25 16.2344C79.5 17.0573 79.625 18.0729 79.625 19.2812V30H74.7188V19.2656C74.7188 18.5573 74.6198 18.0104 74.4219 17.625C74.224 17.2396 73.9323 16.9688 73.5469 16.8125C73.1719 16.6562 72.7135 16.5781 72.1719 16.5781C71.599 16.5781 71.1094 16.6927 70.7031 16.9219C70.2969 17.1406 69.9635 17.4479 69.7031 17.8438C69.4427 18.2396 69.25 18.7031 69.125 19.2344C69.0104 19.7656 68.9531 20.3385 68.9531 20.9531ZM91.4062 13.0938V16.5156H81.375V13.0938H91.4062ZM83.6719 8.90625H88.5625V24.7031C88.5625 25.1719 88.6198 25.5312 88.7344 25.7812C88.849 26.0312 89.0365 26.2083 89.2969 26.3125C89.5573 26.4062 89.8906 26.4531 90.2969 26.4531C90.5885 26.4531 90.8385 26.4427 91.0469 26.4219C91.2552 26.401 91.4479 26.375 91.625 26.3438V29.875C91.2083 30.0104 90.7656 30.1146 90.2969 30.1875C89.8281 30.2708 89.3177 30.3125 88.7656 30.3125C87.7135 30.3125 86.8021 30.1406 86.0312 29.7969C85.2708 29.4531 84.6875 28.9115 84.2812 28.1719C83.875 27.4219 83.6719 26.4479 83.6719 25.25V8.90625ZM101.719 30.3125C100.375 30.3125 99.1719 30.099 98.1094 29.6719C97.0469 29.2448 96.1458 28.6562 95.4062 27.9062C94.6771 27.1458 94.1198 26.2708 93.7344 25.2812C93.349 24.2917 93.1562 23.2344 93.1562 22.1094V21.5156C93.1562 20.2552 93.3333 19.0938 93.6875 18.0312C94.0417 16.9688 94.5573 16.0469 95.2344 15.2656C95.9219 14.474 96.7656 13.8646 97.7656 13.4375C98.7656 13 99.9062 12.7812 101.188 12.7812C102.385 12.7812 103.453 12.9792 104.391 13.375C105.328 13.7604 106.12 14.3177 106.766 15.0469C107.411 15.7656 107.901 16.6354 108.234 17.6562C108.578 18.6667 108.75 19.8021 108.75 21.0625V23.0625H95.125V19.9219H103.969V19.5469C103.969 18.9531 103.859 18.4323 103.641 17.9844C103.432 17.5365 103.12 17.1927 102.703 16.9531C102.297 16.7031 101.781 16.5781 101.156 16.5781C100.562 16.5781 100.068 16.7031 99.6719 16.9531C99.276 17.2031 98.9583 17.5573 98.7188 18.0156C98.4896 18.4635 98.3229 18.9896 98.2188 19.5938C98.1146 20.1875 98.0625 20.8281 98.0625 21.5156V22.1094C98.0625 22.7656 98.151 23.3646 98.3281 23.9062C98.5052 24.4479 98.7656 24.9115 99.1094 25.2969C99.4531 25.6823 99.8698 25.9844 100.359 26.2031C100.849 26.4219 101.406 26.5312 102.031 26.5312C102.802 26.5312 103.536 26.3854 104.234 26.0938C104.932 25.7917 105.536 25.3229 106.047 24.6875L108.328 27.2969C107.984 27.7969 107.5 28.2812 106.875 28.75C106.26 29.2083 105.521 29.5833 104.656 29.875C103.792 30.1667 102.812 30.3125 101.719 30.3125ZM115.906 16.7031V30H111.016V13.0938H115.609L115.906 16.7031ZM115.266 20.9531L114.047 20.9844C114.047 19.7135 114.203 18.5729 114.516 17.5625C114.828 16.5521 115.271 15.6927 115.844 14.9844C116.427 14.2656 117.12 13.7188 117.922 13.3438C118.734 12.9688 119.63 12.7812 120.609 12.7812C121.401 12.7812 122.125 12.8958 122.781 13.125C123.438 13.3542 124 13.724 124.469 14.2344C124.948 14.7344 125.312 15.401 125.562 16.2344C125.812 17.0573 125.938 18.0729 125.938 19.2812V30H121.031V19.2656C121.031 18.5573 120.932 18.0104 120.734 17.625C120.536 17.2396 120.245 16.9688 119.859 16.8125C119.484 16.6562 119.026 16.5781 118.484 16.5781C117.911 16.5781 117.422 16.6927 117.016 16.9219C116.609 17.1406 116.276 17.4479 116.016 17.8438C115.755 18.2396 115.562 18.7031 115.438 19.2344C115.323 19.7656 115.266 20.3385 115.266 20.9531ZM138.969 26.2188V6H143.875V30H139.469L138.969 26.2188ZM128.438 21.75V21.4219C128.438 20.1406 128.578 18.974 128.859 17.9219C129.151 16.8594 129.573 15.9479 130.125 15.1875C130.688 14.4167 131.38 13.8229 132.203 13.4062C133.026 12.9896 133.969 12.7812 135.031 12.7812C136.01 12.7812 136.865 13 137.594 13.4375C138.323 13.8646 138.943 14.4688 139.453 15.25C139.974 16.0208 140.396 16.9323 140.719 17.9844C141.042 19.026 141.286 20.1562 141.453 21.375V21.9375C141.297 23.1042 141.052 24.1927 140.719 25.2031C140.396 26.2135 139.974 27.1042 139.453 27.875C138.943 28.6354 138.318 29.2344 137.578 29.6719C136.849 30.099 135.99 30.3125 135 30.3125C133.938 30.3125 132.995 30.099 132.172 29.6719C131.359 29.2448 130.677 28.6458 130.125 27.875C129.573 27.1042 129.151 26.1979 128.859 25.1562C128.578 24.1146 128.438 22.9792 128.438 21.75ZM133.312 21.4219V21.75C133.312 22.4167 133.359 23.0365 133.453 23.6094C133.557 24.1823 133.724 24.6875 133.953 25.125C134.182 25.5625 134.484 25.9062 134.859 26.1562C135.234 26.3958 135.693 26.5156 136.234 26.5156C136.964 26.5156 137.562 26.349 138.031 26.0156C138.5 25.6719 138.854 25.1979 139.094 24.5938C139.333 23.9896 139.458 23.2865 139.469 22.4844V20.8438C139.469 20.1771 139.401 19.5781 139.266 19.0469C139.13 18.5156 138.927 18.0677 138.656 17.7031C138.396 17.3385 138.068 17.0625 137.672 16.875C137.276 16.6771 136.807 16.5781 136.266 16.5781C135.734 16.5781 135.281 16.7031 134.906 16.9531C134.531 17.1927 134.224 17.5312 133.984 17.9688C133.755 18.4062 133.583 18.9219 133.469 19.5156C133.365 20.099 133.312 20.7344 133.312 21.4219ZM164.312 22.0938H158.594V18.1406H164.312C165.156 18.1406 165.833 18 166.344 17.7188C166.865 17.4375 167.245 17.0521 167.484 16.5625C167.734 16.0625 167.859 15.5 167.859 14.875C167.859 14.2292 167.734 13.6302 167.484 13.0781C167.245 12.5156 166.865 12.0625 166.344 11.7188C165.833 11.375 165.156 11.2031 164.312 11.2031H160.438V30H155.344V7.25H164.312C166.125 7.25 167.677 7.57812 168.969 8.23438C170.271 8.89062 171.266 9.79167 171.953 10.9375C172.651 12.0729 173 13.375 173 14.8438C173 16.3125 172.651 17.5885 171.953 18.6719C171.266 19.7552 170.271 20.599 168.969 21.2031C167.677 21.7969 166.125 22.0938 164.312 22.0938ZM180.734 17.0312V30H175.859V13.0938H180.438L180.734 17.0312ZM185.781 12.9688L185.703 17.5156C185.495 17.4844 185.224 17.4583 184.891 17.4375C184.557 17.4062 184.271 17.3906 184.031 17.3906C183.406 17.3906 182.865 17.4688 182.406 17.625C181.958 17.7708 181.583 17.9896 181.281 18.2812C180.99 18.5729 180.771 18.9375 180.625 19.375C180.479 19.8021 180.406 20.2969 180.406 20.8594L179.484 20.4062C179.484 19.2917 179.594 18.2708 179.812 17.3438C180.031 16.4167 180.349 15.6146 180.766 14.9375C181.182 14.25 181.693 13.7188 182.297 13.3438C182.901 12.9688 183.589 12.7812 184.359 12.7812C184.609 12.7812 184.865 12.7969 185.125 12.8281C185.385 12.8594 185.604 12.9062 185.781 12.9688ZM186.547 21.7188V21.3906C186.547 20.151 186.724 19.0104 187.078 17.9688C187.432 16.9167 187.953 16.0052 188.641 15.2344C189.328 14.4635 190.172 13.8646 191.172 13.4375C192.172 13 193.318 12.7812 194.609 12.7812C195.922 12.7812 197.078 13 198.078 13.4375C199.089 13.8646 199.938 14.4635 200.625 15.2344C201.312 16.0052 201.833 16.9167 202.188 17.9688C202.542 19.0104 202.719 20.151 202.719 21.3906V21.7188C202.719 22.9479 202.542 24.0885 202.188 25.1406C201.833 26.1823 201.312 27.0938 200.625 27.875C199.938 28.6458 199.094 29.2448 198.094 29.6719C197.094 30.099 195.943 30.3125 194.641 30.3125C193.349 30.3125 192.198 30.099 191.188 29.6719C190.177 29.2448 189.328 28.6458 188.641 27.875C187.953 27.0938 187.432 26.1823 187.078 25.1406C186.724 24.0885 186.547 22.9479 186.547 21.7188ZM191.438 21.3906V21.7188C191.438 22.3854 191.49 23.0104 191.594 23.5938C191.708 24.1771 191.891 24.6875 192.141 25.125C192.391 25.5625 192.719 25.9062 193.125 26.1562C193.542 26.3958 194.047 26.5156 194.641 26.5156C195.234 26.5156 195.734 26.3958 196.141 26.1562C196.547 25.9062 196.875 25.5625 197.125 25.125C197.375 24.6875 197.552 24.1771 197.656 23.5938C197.771 23.0104 197.828 22.3854 197.828 21.7188V21.3906C197.828 20.7344 197.771 20.1198 197.656 19.5469C197.552 18.9635 197.375 18.4479 197.125 18C196.875 17.5521 196.542 17.2031 196.125 16.9531C195.719 16.7031 195.214 16.5781 194.609 16.5781C194.026 16.5781 193.531 16.7031 193.125 16.9531C192.719 17.2031 192.391 17.5521 192.141 18C191.891 18.4479 191.708 18.9635 191.594 19.5469C191.49 20.1198 191.438 20.7344 191.438 21.3906ZM214.922 7.25L206.875 31.9531H203.328L211.375 7.25H214.922ZM226.766 20.6562L217.016 17.2656V12.7656L230.703 18.4375V21.7344L226.766 20.6562ZM217.016 23.4844L226.781 20L230.703 19.0156V22.2969L217.016 27.9688V23.4844Z"/>
</mask>
<path d="M5.01562 20.0312L5.18077 19.5593L5.16112 19.5524L5.14097 19.5472L5.01562 20.0312ZM14.75 23.4375H15.25V23.0827L14.9151 22.9656L14.75 23.4375ZM14.75 27.9531L14.5582 28.4149L15.25 28.7022V27.9531H14.75ZM1.09375 22.2812H0.59375V22.615L0.901968 22.743L1.09375 22.2812ZM1.09375 19.0156L1.2191 18.5316L0.59375 18.3696V19.0156H1.09375ZM14.75 17.2656L14.9178 17.7366L15.25 17.6183V17.2656H14.75ZM5.01562 20.7344L5.13735 21.2193L5.16074 21.2135L5.18346 21.2054L5.01562 20.7344ZM1.09375 21.7188H0.59375V22.3598L1.21547 22.2037L1.09375 21.7188ZM1.09375 18.4375L0.901968 17.9757L0.59375 18.1038V18.4375H1.09375ZM14.75 12.7656H15.25V12.0165L14.5582 12.3039L14.75 12.7656ZM4.85048 20.5032L14.5849 23.9094L14.9151 22.9656L5.18077 19.5593L4.85048 20.5032ZM14.25 23.4375V27.9531H15.25V23.4375H14.25ZM14.9418 27.4914L1.28553 21.8195L0.901968 22.743L14.5582 28.4149L14.9418 27.4914ZM1.59375 22.2812V19.0156H0.59375V22.2812H1.59375ZM0.968403 19.4997L4.89028 20.5153L5.14097 19.5472L1.2191 18.5316L0.968403 19.4997ZM14.5822 16.7946L4.84779 20.2634L5.18346 21.2054L14.9178 17.7366L14.5822 16.7946ZM4.8939 20.2494L0.972028 21.2338L1.21547 22.2037L5.13735 21.2193L4.8939 20.2494ZM1.59375 21.7188V18.4375H0.59375V21.7188H1.59375ZM1.28553 18.8993L14.9418 13.2274L14.5582 12.3039L0.901968 17.9757L1.28553 18.8993ZM14.25 12.7656V17.2656H15.25V12.7656H14.25ZM23.5938 7.25H24.0938V6.75H23.5938V7.25ZM23.5938 30V30.5H24.0938V30H23.5938ZM18.5 30H18V30.5H18.5V30ZM18.5 7.25V6.75H18V7.25H18.5ZM32.5469 16.8438H33.0469V16.3438H32.5469V16.8438ZM32.5469 20.7812V21.2812H33.0469V20.7812H32.5469ZM22.1719 20.7812H21.6719V21.2812H22.1719V20.7812ZM22.1719 16.8438V16.3438H21.6719V16.8438H22.1719ZM33.5469 7.25H34.0469V6.75H33.5469V7.25ZM33.5469 11.2031V11.7031H34.0469V11.2031H33.5469ZM22.1719 11.2031H21.6719V11.7031H22.1719V11.2031ZM22.1719 7.25V6.75H21.6719V7.25H22.1719ZM23.0938 7.25V30H24.0938V7.25H23.0938ZM23.5938 29.5H18.5V30.5H23.5938V29.5ZM19 30V7.25H18V30H19ZM18.5 7.75H23.5938V6.75H18.5V7.75ZM32.0469 16.8438V20.7812H33.0469V16.8438H32.0469ZM32.5469 20.2812H22.1719V21.2812H32.5469V20.2812ZM22.6719 20.7812V16.8438H21.6719V20.7812H22.6719ZM22.1719 17.3438H32.5469V16.3438H22.1719V17.3438ZM33.0469 7.25V11.2031H34.0469V7.25H33.0469ZM33.5469 10.7031H22.1719V11.7031H33.5469V10.7031ZM22.6719 11.2031V7.25H21.6719V11.2031H22.6719ZM22.1719 7.75H33.5469V6.75H22.1719V7.75ZM40.2656 17.0312H40.7656V17.0124L40.7642 16.9937L40.2656 17.0312ZM40.2656 30V30.5H40.7656V30H40.2656ZM35.3906 30H34.8906V30.5H35.3906V30ZM35.3906 13.0938V12.5938H34.8906V13.0938H35.3906ZM39.9688 13.0938L40.4673 13.0562L40.4325 12.5938H39.9688V13.0938ZM45.3125 12.9688L45.8124 12.9773L45.8186 12.6172L45.4789 12.4973L45.3125 12.9688ZM45.2344 17.5156L45.1602 18.0101L45.7245 18.0947L45.7343 17.5242L45.2344 17.5156ZM44.4219 17.4375L44.3752 17.9353L44.3829 17.936L44.3907 17.9365L44.4219 17.4375ZM41.9375 17.625L42.0923 18.1005L42.0988 18.0983L41.9375 17.625ZM40.8125 18.2812L40.4651 17.9215L40.4589 17.9277L40.8125 18.2812ZM40.1562 19.375L40.6294 19.5366L40.6306 19.5331L40.1562 19.375ZM39.9375 20.8594L39.7169 21.3081L40.4375 21.6623V20.8594H39.9375ZM39.0156 20.4062H38.5156V20.7176L38.7951 20.855L39.0156 20.4062ZM40.2969 14.9375L40.7227 15.1996L40.7245 15.1967L40.2969 14.9375ZM39.7656 17.0312V30H40.7656V17.0312H39.7656ZM40.2656 29.5H35.3906V30.5H40.2656V29.5ZM35.8906 30V13.0938H34.8906V30H35.8906ZM35.3906 13.5938H39.9688V12.5938H35.3906V13.5938ZM39.4702 13.1313L39.767 17.0688L40.7642 16.9937L40.4673 13.0562L39.4702 13.1313ZM44.8126 12.9602L44.7344 17.507L45.7343 17.5242L45.8124 12.9773L44.8126 12.9602ZM45.3085 17.0212C45.0802 16.9869 44.7935 16.9598 44.4531 16.9385L44.3907 17.9365C44.7169 17.9569 44.9719 17.9818 45.1602 18.0101L45.3085 17.0212ZM44.4685 16.9397C44.1253 16.9075 43.8224 16.8906 43.5625 16.8906V17.8906C43.7818 17.8906 44.0518 17.905 44.3752 17.9353L44.4685 16.9397ZM43.5625 16.8906C42.8977 16.8906 42.299 16.9735 41.7762 17.1517L42.0988 18.0983C42.4926 17.964 42.9773 17.8906 43.5625 17.8906V16.8906ZM41.7827 17.1496C41.2715 17.316 40.8282 17.5711 40.4652 17.9215L41.1598 18.641C41.401 18.4081 41.7076 18.2257 42.0923 18.1004L41.7827 17.1496ZM40.4589 17.9277C40.1062 18.2804 39.8494 18.7145 39.6819 19.2169L40.6306 19.5331C40.7548 19.1605 40.9355 18.8654 41.1661 18.6348L40.4589 17.9277ZM39.6831 19.2134C39.5157 19.7035 39.4375 20.2549 39.4375 20.8594H40.4375C40.4375 20.3389 40.5051 19.9006 40.6294 19.5366L39.6831 19.2134ZM40.1581 20.4107L39.2362 19.9575L38.7951 20.855L39.7169 21.3081L40.1581 20.4107ZM39.5156 20.4062C39.5156 19.324 39.6219 18.3423 39.8304 17.4586L38.8571 17.2289C38.6281 18.1994 38.5156 19.2594 38.5156 20.4062H39.5156ZM39.8304 17.4586C40.0392 16.5735 40.339 15.8231 40.7227 15.1995L39.871 14.6755C39.4215 15.406 39.0858 16.2598 38.8571 17.2289L39.8304 17.4586ZM40.7245 15.1967C41.1057 14.5676 41.5629 14.0969 42.0918 13.7686L41.5644 12.9189C40.8851 13.3406 40.3214 13.9324 39.8693 14.6783L40.7245 15.1967ZM42.0918 13.7686C42.6102 13.4468 43.2048 13.2812 43.8906 13.2812V12.2812C43.0347 12.2812 42.2544 12.4907 41.5644 12.9189L42.0918 13.7686ZM43.8906 13.2812C44.1198 13.2812 44.3551 13.2956 44.5967 13.3246L44.7158 12.3317C44.4366 12.2982 44.1615 12.2812 43.8906 12.2812V13.2812ZM44.5967 13.3246C44.8338 13.353 45.0142 13.3937 45.1461 13.4402L45.4789 12.4973C45.2566 12.4188 44.9995 12.3657 44.7158 12.3317L44.5967 13.3246ZM46.6094 17.9688L47.0828 18.1297L47.0832 18.1283L46.6094 17.9688ZM50.7031 13.4375L50.8995 13.8973L50.9035 13.8956L50.7031 13.4375ZM57.6094 13.4375L57.409 13.8956L57.4147 13.898L57.6094 13.4375ZM61.7188 17.9688L61.2449 18.1283L61.2454 18.1297L61.7188 17.9688ZM61.7188 25.1406L62.1921 25.3016L62.1926 25.3001L61.7188 25.1406ZM60.1562 27.875L60.5294 28.2078L60.5316 28.2053L60.1562 27.875ZM48.1719 27.875L47.7965 28.2053L47.7987 28.2078L48.1719 27.875ZM46.6094 25.1406L46.1355 25.3001L46.136 25.3016L46.6094 25.1406ZM51.125 23.5938L50.6327 23.6817L50.6344 23.6901L51.125 23.5938ZM52.6562 26.1562L52.3942 26.5821L52.4006 26.586L52.407 26.5897L52.6562 26.1562ZM55.6719 26.1562L55.9259 26.587L55.9339 26.5821L55.6719 26.1562ZM57.1875 23.5938L56.6968 23.4974L56.6953 23.5059L57.1875 23.5938ZM57.1875 19.5469L56.6952 19.6348L56.6972 19.6449L57.1875 19.5469ZM55.6562 16.9531L55.3942 17.379L55.399 17.3819L55.6562 16.9531ZM51.125 19.5469L50.6343 19.4505L50.6331 19.4574L51.125 19.5469ZM46.5781 21.7188V21.3906H45.5781V21.7188H46.5781ZM46.5781 21.3906C46.5781 20.1989 46.7483 19.1134 47.0828 18.1297L46.136 17.8078C45.7621 18.9074 45.5781 20.1031 45.5781 21.3906H46.5781ZM47.0832 18.1283C47.4175 17.1353 47.9057 16.284 48.545 15.5672L47.7987 14.9016C47.063 15.7264 46.5096 16.698 46.1355 17.8092L47.0832 18.1283ZM48.545 15.5672C49.1811 14.854 49.9634 14.2971 50.8995 13.8973L50.5067 12.9777C49.4429 13.432 48.5377 14.073 47.7987 14.9016L48.545 15.5672ZM50.9035 13.8956C51.8298 13.4903 52.9055 13.2812 54.1406 13.2812V12.2812C52.7924 12.2812 51.5764 12.5097 50.5027 12.9794L50.9035 13.8956ZM54.1406 13.2812C55.3978 13.2812 56.4836 13.4907 57.409 13.8956L57.8098 12.9794C56.7351 12.5093 55.5084 12.2812 54.1406 12.2812V13.2812ZM57.4147 13.898C58.3612 14.2981 59.1479 14.855 59.7831 15.5672L60.5294 14.9016C59.7896 14.0721 58.8784 13.431 57.804 12.977L57.4147 13.898ZM59.7831 15.5672C60.4224 16.284 60.9106 17.1353 61.2449 18.1283L62.1926 17.8092C61.8186 16.698 61.2651 15.7264 60.5294 14.9016L59.7831 15.5672ZM61.2454 18.1297C61.5798 19.1134 61.75 20.1989 61.75 21.3906H62.75C62.75 20.1031 62.566 18.9074 62.1921 17.8078L61.2454 18.1297ZM61.75 21.3906V21.7188H62.75V21.3906H61.75ZM61.75 21.7188C61.75 22.8995 61.58 23.9856 61.2449 24.9811L62.1926 25.3001C62.5658 24.1915 62.75 22.9964 62.75 21.7188H61.75ZM61.2454 24.9797C60.9112 25.9626 60.4224 26.8157 59.7809 27.5447L60.5316 28.2053C61.2651 27.3718 61.818 26.402 62.1921 25.3016L61.2454 24.9797ZM59.7831 27.5422C59.1471 28.2553 58.3647 28.8123 57.4286 29.2121L57.8214 30.1317C58.8853 29.6773 59.7904 29.0363 60.5294 28.2078L59.7831 27.5422ZM57.4286 29.2121C56.5017 29.6079 55.4195 29.8125 54.1719 29.8125V30.8125C55.5284 30.8125 56.7483 30.59 57.8214 30.1317L57.4286 29.2121ZM54.1719 29.8125C52.9354 29.8125 51.8523 29.6082 50.9134 29.2113L50.5241 30.1324C51.606 30.5897 52.825 30.8125 54.1719 30.8125V29.8125ZM50.9134 29.2113C49.9669 28.8113 49.1802 28.2544 48.545 27.5422L47.7987 28.2078C48.5386 29.0373 49.4498 29.6783 50.5241 30.1324L50.9134 29.2113ZM48.5472 27.5447C47.9057 26.8157 47.417 25.9626 47.0828 24.9797L46.136 25.3016C46.5101 26.402 47.063 27.3718 47.7965 28.2053L48.5472 27.5447ZM47.0832 24.9811C46.7481 23.9856 46.5781 22.8995 46.5781 21.7188H45.5781C45.5781 22.9964 45.7623 24.1915 46.1355 25.3001L47.0832 24.9811ZM50.4688 21.3906V21.7188H51.4688V21.3906H50.4688ZM50.4688 21.7188C50.4688 22.4113 50.5228 23.066 50.6328 23.6816L51.6172 23.5059C51.5188 22.9549 51.4688 22.3595 51.4688 21.7188H50.4688ZM50.6344 23.6901C50.7576 24.3174 50.9565 24.8808 51.2378 25.3731L52.106 24.8769C51.8873 24.4942 51.7216 24.0367 51.6156 23.4974L50.6344 23.6901ZM51.2378 25.3731C51.5269 25.8791 51.9126 26.2857 52.3942 26.5821L52.9183 25.7304C52.5874 25.5268 52.3169 25.2459 52.106 24.8769L51.2378 25.3731ZM52.407 26.5897C52.9154 26.882 53.5111 27.0156 54.1719 27.0156V26.0156C53.6452 26.0156 53.2304 25.9096 52.9055 25.7228L52.407 26.5897ZM54.1719 27.0156C54.8321 27.0156 55.4251 26.8822 55.9259 26.5869L55.4179 25.7256C55.1061 25.9094 54.6991 26.0156 54.1719 26.0156V27.0156ZM55.9339 26.5821C56.4156 26.2857 56.8012 25.8791 57.0904 25.3731L56.2221 24.8769C56.0113 25.2459 55.7407 25.5268 55.4098 25.7304L55.9339 26.5821ZM57.0904 25.3731C57.3733 24.878 57.5672 24.3116 57.6797 23.6816L56.6953 23.5059C56.5994 24.0426 56.4392 24.497 56.2221 24.8769L57.0904 25.3731ZM57.6781 23.6901C57.7996 23.0715 57.8594 22.4139 57.8594 21.7188H56.8594C56.8594 22.3569 56.8045 22.9493 56.6969 23.4974L57.6781 23.6901ZM57.8594 21.7188V21.3906H56.8594V21.7188H57.8594ZM57.8594 21.3906C57.8594 20.7054 57.7996 20.0577 57.6778 19.4488L56.6972 19.6449C56.8046 20.1819 56.8594 20.7633 56.8594 21.3906H57.8594ZM57.6797 19.459C57.5673 18.8293 57.3737 18.2596 57.0928 17.7563L56.2197 18.2437C56.4388 18.6362 56.5994 19.0978 56.6953 19.6348L57.6797 19.459ZM57.0928 17.7563C56.8027 17.2365 56.4093 16.8219 55.9135 16.5244L55.399 17.3819C55.7365 17.5844 56.0098 17.8677 56.2197 18.2437L57.0928 17.7563ZM55.9183 16.5273C55.4148 16.2174 54.8129 16.0781 54.1406 16.0781V17.0781C54.6767 17.0781 55.0852 17.1888 55.3942 17.379L55.9183 16.5273ZM54.1406 16.0781C53.4854 16.0781 52.8952 16.219 52.3942 16.5273L52.9183 17.379C53.2298 17.1872 53.6292 17.0781 54.1406 17.0781V16.0781ZM52.3942 16.5273C51.9097 16.8254 51.5237 17.2396 51.2353 17.7563L52.1085 18.2437C52.3201 17.8646 52.5903 17.5808 52.9183 17.379L52.3942 16.5273ZM51.2353 17.7563C50.9559 18.2568 50.7575 18.8236 50.6344 19.4505L51.6156 19.6432C51.7216 19.1035 51.8878 18.639 52.1085 18.2437L51.2353 17.7563ZM50.6331 19.4574C50.5229 20.0633 50.4688 20.7081 50.4688 21.3906H51.4688C51.4688 20.7607 51.5188 20.1763 51.6169 19.6363L50.6331 19.4574ZM69.5938 16.7031H70.0938V16.6826L70.0921 16.6621L69.5938 16.7031ZM69.5938 30V30.5H70.0938V30H69.5938ZM64.7031 30H64.2031V30.5H64.7031V30ZM64.7031 13.0938V12.5938H64.2031V13.0938H64.7031ZM69.2969 13.0938L69.7952 13.0528L69.7574 12.5938H69.2969V13.0938ZM68.9531 20.9531L68.9659 21.453L69.4531 21.4405V20.9531H68.9531ZM67.7344 20.9844H67.2344V21.4974L67.7472 21.4842L67.7344 20.9844ZM69.5312 14.9844L69.143 14.6693L69.1425 14.6699L69.5312 14.9844ZM71.6094 13.3438L71.3998 12.8898L71.3976 12.8908L71.6094 13.3438ZM78.1562 14.2344L77.7879 14.5727L77.7953 14.5803L78.1562 14.2344ZM79.25 16.2344L78.7711 16.378L78.7716 16.3797L79.25 16.2344ZM79.625 30V30.5H80.125V30H79.625ZM74.7188 30H74.2188V30.5H74.7188V30ZM73.5469 16.8125L73.3546 17.2741L73.359 17.2759L73.5469 16.8125ZM70.7031 16.9219L70.9402 17.3622L70.9488 17.3574L70.7031 16.9219ZM69.125 19.2344L68.6382 19.1198L68.6362 19.129L69.125 19.2344ZM69.0938 16.7031V30H70.0938V16.7031H69.0938ZM69.5938 29.5H64.7031V30.5H69.5938V29.5ZM65.2031 30V13.0938H64.2031V30H65.2031ZM64.7031 13.5938H69.2969V12.5938H64.7031V13.5938ZM68.7986 13.1347L69.0954 16.7441L70.0921 16.6621L69.7952 13.0528L68.7986 13.1347ZM68.9403 20.4533L67.7216 20.4845L67.7472 21.4842L68.9659 21.453L68.9403 20.4533ZM68.2344 20.9844C68.2344 19.7539 68.3857 18.6643 68.6808 17.7102L67.7254 17.4148C67.3955 18.4815 67.2344 19.6732 67.2344 20.9844H68.2344ZM68.6808 17.7102C68.9775 16.7509 69.3929 15.9505 69.92 15.2988L69.1425 14.6699C68.5237 15.435 68.0537 16.3533 67.7254 17.4148L68.6808 17.7102ZM69.9195 15.2995C70.4574 14.6367 71.0907 14.1382 71.8211 13.7967L71.3976 12.8908C70.5239 13.2993 69.7718 13.8946 69.143 14.6693L69.9195 15.2995ZM71.8189 13.7977C72.5597 13.4558 73.3832 13.2812 74.2969 13.2812V12.2812C73.2523 12.2812 72.284 12.4817 71.3998 12.8898L71.8189 13.7977ZM74.2969 13.2812C75.0401 13.2812 75.7075 13.3888 76.3039 13.597L76.6336 12.653C75.9175 12.4029 75.137 12.2812 74.2969 12.2812V13.2812ZM76.3039 13.597C76.8826 13.7991 77.3752 14.1231 77.788 14.5726L78.5245 13.8962C77.9998 13.3249 77.3674 12.9092 76.6336 12.653L76.3039 13.597ZM77.7953 14.5803C78.2074 15.0104 78.5381 15.6015 78.7711 16.378L79.7289 16.0907C79.4619 15.2005 79.0634 14.4583 78.5172 13.8884L77.7953 14.5803ZM78.7716 16.3797C79.0028 17.1407 79.125 18.1039 79.125 19.2812H80.125C80.125 18.0419 79.9972 16.9738 79.7284 16.089L78.7716 16.3797ZM79.125 19.2812V30H80.125V19.2812H79.125ZM79.625 29.5H74.7188V30.5H79.625V29.5ZM75.2188 30V19.2656H74.2188V30H75.2188ZM75.2188 19.2656C75.2188 18.5225 75.1169 17.8839 74.8667 17.3966L73.9771 17.8534C74.1227 18.1369 74.2188 18.592 74.2188 19.2656H75.2188ZM74.8667 17.3966C74.6165 16.9095 74.2361 16.5524 73.7347 16.3491L73.359 17.2759C73.6285 17.3851 73.8314 17.5697 73.9771 17.8534L74.8667 17.3966ZM73.7392 16.351C73.2866 16.1624 72.7588 16.0781 72.1719 16.0781V17.0781C72.6683 17.0781 73.0571 17.1501 73.3546 17.274L73.7392 16.351ZM72.1719 16.0781C71.5324 16.0781 70.954 16.2063 70.4575 16.4864L70.9488 17.3574C71.2647 17.1791 71.6655 17.0781 72.1719 17.0781V16.0781ZM70.4661 16.4816C69.9848 16.7408 69.5901 17.1058 69.2854 17.5689L70.1208 18.1186C70.337 17.7901 70.6089 17.5405 70.9402 17.3621L70.4661 16.4816ZM69.2854 17.5689C68.9883 18.0206 68.7747 18.5401 68.6383 19.1199L69.6117 19.3489C69.7253 18.8662 69.8971 18.4586 70.1208 18.1186L69.2854 17.5689ZM68.6362 19.129C68.5133 19.699 68.4531 20.3076 68.4531 20.9531H69.4531C69.4531 20.3695 69.5075 19.8322 69.6138 19.3398L68.6362 19.129ZM91.4062 13.0938H91.9062V12.5938H91.4062V13.0938ZM91.4062 16.5156V17.0156H91.9062V16.5156H91.4062ZM81.375 16.5156H80.875V17.0156H81.375V16.5156ZM81.375 13.0938V12.5938H80.875V13.0938H81.375ZM83.6719 8.90625V8.40625H83.1719V8.90625H83.6719ZM88.5625 8.90625H89.0625V8.40625H88.5625V8.90625ZM89.2969 26.3125L89.1112 26.7767L89.1193 26.78L89.1275 26.7829L89.2969 26.3125ZM91.625 26.3438H92.125V25.7478L91.5381 25.8514L91.625 26.3438ZM91.625 29.875L91.7795 30.3505L92.125 30.2382V29.875H91.625ZM90.2969 30.1875L90.22 29.6933L90.2094 29.6952L90.2969 30.1875ZM86.0312 29.7969L85.8253 30.2525L85.8276 30.2535L86.0312 29.7969ZM84.2812 28.1719L83.8416 28.41L83.843 28.4126L84.2812 28.1719ZM90.9062 13.0938V16.5156H91.9062V13.0938H90.9062ZM91.4062 16.0156H81.375V17.0156H91.4062V16.0156ZM81.875 16.5156V13.0938H80.875V16.5156H81.875ZM81.375 13.5938H91.4062V12.5938H81.375V13.5938ZM83.6719 9.40625H88.5625V8.40625H83.6719V9.40625ZM88.0625 8.90625V24.7031H89.0625V8.90625H88.0625ZM88.0625 24.7031C88.0625 25.2 88.1213 25.6436 88.2798 25.9896L89.1889 25.5729C89.1183 25.4189 89.0625 25.1437 89.0625 24.7031H88.0625ZM88.2798 25.9896C88.4491 26.3588 88.7343 26.626 89.1112 26.7767L89.4826 25.8483C89.3386 25.7907 89.2489 25.7037 89.1889 25.5729L88.2798 25.9896ZM89.1275 26.7829C89.4613 26.9031 89.8574 26.9531 90.2969 26.9531V25.9531C89.9239 25.9531 89.6533 25.9094 89.4662 25.8421L89.1275 26.7829ZM90.2969 26.9531C90.5992 26.9531 90.8668 26.9424 91.0966 26.9194L90.9971 25.9244C90.8103 25.943 90.5778 25.9531 90.2969 25.9531V26.9531ZM91.0966 26.9194C91.3154 26.8975 91.5207 26.8699 91.7119 26.8361L91.5381 25.8514C91.3751 25.8801 91.195 25.9046 90.9971 25.9244L91.0966 26.9194ZM91.125 26.3438V29.875H92.125V26.3438H91.125ZM91.4705 29.3995C91.0811 29.526 90.6646 29.6243 90.22 29.6934L90.3737 30.6816C90.8667 30.6049 91.3355 30.4948 91.7795 30.3505L91.4705 29.3995ZM90.2094 29.6952C89.7736 29.7727 89.2929 29.8125 88.7656 29.8125V30.8125C89.3425 30.8125 89.8826 30.769 90.3844 30.6798L90.2094 29.6952ZM88.7656 29.8125C87.7669 29.8125 86.9279 29.6493 86.2349 29.3402L85.8276 30.2535C86.6763 30.632 87.6602 30.8125 88.7656 30.8125V29.8125ZM86.2372 29.3413C85.5766 29.0426 85.0742 28.577 84.7195 27.9312L83.843 28.4126C84.3008 29.2459 84.965 29.8636 85.8253 30.2525L86.2372 29.3413ZM84.7209 27.9337C84.367 27.2804 84.1719 26.3965 84.1719 25.25H83.1719C83.1719 26.4993 83.383 27.5633 83.8416 28.41L84.7209 27.9337ZM84.1719 25.25V8.90625H83.1719V25.25H84.1719ZM95.4062 27.9062L95.0453 28.2523L95.0502 28.2573L95.4062 27.9062ZM95.2344 15.2656L94.8569 14.9378L94.8565 14.9382L95.2344 15.2656ZM97.7656 13.4375L97.962 13.8973L97.966 13.8956L97.7656 13.4375ZM104.391 13.375L104.196 13.8356L104.201 13.8374L104.391 13.375ZM106.766 15.0469L106.391 15.3784L106.394 15.3811L106.766 15.0469ZM108.234 17.6562L107.759 17.8115L107.761 17.8173L108.234 17.6562ZM108.75 23.0625V23.5625H109.25V23.0625H108.75ZM95.125 23.0625H94.625V23.5625H95.125V23.0625ZM95.125 19.9219V19.4219H94.625V19.9219H95.125ZM103.969 19.9219V20.4219H104.469V19.9219H103.969ZM103.641 17.9844L103.187 18.1953L103.191 18.2038L103.641 17.9844ZM102.703 16.9531L102.441 17.379L102.447 17.3829L102.454 17.3866L102.703 16.9531ZM98.7188 18.0156L98.2756 17.784L98.2736 17.7879L98.7188 18.0156ZM98.2188 19.5938L98.7112 19.6802L98.7115 19.6787L98.2188 19.5938ZM100.359 26.2031L100.155 26.6596L100.359 26.2031ZM104.234 26.0938L104.427 26.5551L104.433 26.5526L104.234 26.0938ZM106.047 24.6875L106.423 24.3584L106.031 23.9093L105.657 24.3744L106.047 24.6875ZM108.328 27.2969L108.74 27.5801L108.96 27.2601L108.705 26.9678L108.328 27.2969ZM106.875 28.75L107.174 29.1508L107.175 29.15L106.875 28.75ZM101.719 29.8125C100.428 29.8125 99.2897 29.6075 98.2959 29.208L97.9229 30.1358C99.054 30.5905 100.322 30.8125 101.719 30.8125V29.8125ZM98.2959 29.208C97.2914 28.8042 96.4496 28.2522 95.7623 27.5552L95.0502 28.2573C95.8421 29.0603 96.8023 29.6854 97.9229 30.1358L98.2959 29.208ZM95.7671 27.5602C95.0838 26.8476 94.562 26.0286 94.2003 25.0998L93.2685 25.4627C93.6775 26.513 94.2703 27.4441 95.0454 28.2523L95.7671 27.5602ZM94.2003 25.0998C93.8387 24.1714 93.6562 23.176 93.6562 22.1094H92.6562C92.6562 23.2927 92.8592 24.4119 93.2685 25.4627L94.2003 25.0998ZM93.6562 22.1094V21.5156H92.6562V22.1094H93.6562ZM93.6562 21.5156C93.6562 20.3023 93.8267 19.1949 94.1618 18.1894L93.2132 17.8731C92.84 18.9926 92.6562 20.2081 92.6562 21.5156H93.6562ZM94.1618 18.1894C94.497 17.1839 94.9816 16.3208 95.6122 15.5931L94.8565 14.9382C94.133 15.773 93.5863 16.7536 93.2132 17.8731L94.1618 18.1894ZM95.6119 15.5935C96.2479 14.8611 97.0289 14.2958 97.962 13.8973L97.5692 12.9777C96.5023 13.4333 95.5958 14.0868 94.8569 14.9378L95.6119 15.5935ZM97.966 13.8956C98.8928 13.4901 99.9634 13.2812 101.188 13.2812V12.2812C99.8491 12.2812 98.6384 12.5099 97.5652 12.9794L97.966 13.8956ZM101.188 13.2812C102.33 13.2812 103.33 13.47 104.196 13.8356L104.585 12.9144C103.576 12.4884 102.441 12.2812 101.188 12.2812V13.2812ZM104.201 13.8374C105.07 14.1951 105.798 14.7087 106.391 15.3784L107.14 14.7154C106.441 13.9267 105.586 13.3258 104.581 12.9126L104.201 13.8374ZM106.394 15.3811C106.988 16.0425 107.445 16.8494 107.759 17.8115L108.71 17.501C108.357 16.4214 107.835 15.4887 107.138 14.7127L106.394 15.3811ZM107.761 17.8173C108.084 18.7674 108.25 19.8472 108.25 21.0625H109.25C109.25 19.757 109.072 18.5659 108.708 17.4952L107.761 17.8173ZM108.25 21.0625V23.0625H109.25V21.0625H108.25ZM108.75 22.5625H95.125V23.5625H108.75V22.5625ZM95.625 23.0625V19.9219H94.625V23.0625H95.625ZM95.125 20.4219H103.969V19.4219H95.125V20.4219ZM104.469 19.9219V19.5469H103.469V19.9219H104.469ZM104.469 19.5469C104.469 18.8915 104.348 18.2931 104.09 17.765L103.191 18.2038C103.371 18.5715 103.469 19.0148 103.469 19.5469H104.469ZM104.094 17.7735C103.843 17.2349 103.461 16.8121 102.952 16.5197L102.454 17.3866C102.779 17.5733 103.021 17.838 103.187 18.1952L104.094 17.7735ZM102.965 16.5273C102.459 16.2159 101.846 16.0781 101.156 16.0781V17.0781C101.717 17.0781 102.135 17.1903 102.441 17.379L102.965 16.5273ZM101.156 16.0781C100.493 16.0781 99.8995 16.218 99.4049 16.5304L99.9389 17.3759C100.236 17.1883 100.632 17.0781 101.156 17.0781V16.0781ZM99.4049 16.5304C98.9269 16.8323 98.5517 17.2559 98.2756 17.784L99.1619 18.2473C99.365 17.8586 99.6252 17.574 99.9389 17.3759L99.4049 16.5304ZM98.2736 17.7879C98.0171 18.2893 97.837 18.8654 97.726 19.5088L98.7115 19.6787C98.8089 19.1138 98.9621 18.6378 99.1639 18.2434L98.2736 17.7879ZM97.7263 19.5074C97.6165 20.1333 97.5625 20.8031 97.5625 21.5156H98.5625C98.5625 20.8531 98.6127 20.2417 98.7112 19.6801L97.7263 19.5074ZM97.5625 21.5156V22.1094H98.5625V21.5156H97.5625ZM97.5625 22.1094C97.5625 22.8106 97.6571 23.4628 97.8529 24.0616L98.8034 23.7509C98.645 23.2663 98.5625 22.7207 98.5625 22.1094H97.5625ZM97.8529 24.0616C98.0492 24.662 98.342 25.1877 98.7362 25.6297L99.4825 24.9641C99.1892 24.6352 98.9613 24.2338 98.8034 23.7509L97.8529 24.0616ZM98.7362 25.6297C99.1288 26.0699 99.6039 26.4132 100.155 26.6596L100.563 25.7466C100.136 25.5556 99.7774 25.2947 99.4825 24.9641L98.7362 25.6297ZM100.155 26.6596C100.719 26.9114 101.347 27.0312 102.031 27.0312V26.0312C101.465 26.0312 100.979 25.9323 100.563 25.7466L100.155 26.6596ZM102.031 27.0312C102.867 27.0312 103.667 26.8728 104.427 26.5551L104.042 25.6324C103.406 25.8981 102.737 26.0312 102.031 26.0312V27.0312ZM104.433 26.5526C105.211 26.2159 105.879 25.6948 106.437 25.0006L105.657 24.3744C105.194 24.9511 104.654 25.3674 104.036 25.6349L104.433 26.5526ZM105.67 25.0166L107.952 27.626L108.705 26.9678L106.423 24.3584L105.67 25.0166ZM107.916 27.0136C107.61 27.4581 107.168 27.9049 106.575 28.35L107.175 29.15C107.832 28.6576 108.358 28.1356 108.74 27.5801L107.916 27.0136ZM106.576 28.3492C106.011 28.7707 105.32 29.1233 104.496 29.4012L104.816 30.3488C105.721 30.0434 106.51 29.646 107.174 29.1508L106.576 28.3492ZM104.496 29.4012C103.692 29.6725 102.769 29.8125 101.719 29.8125V30.8125C102.856 30.8125 103.891 30.6609 104.816 30.3488L104.496 29.4012ZM115.906 16.7031H116.406V16.6826L116.405 16.6621L115.906 16.7031ZM115.906 30V30.5H116.406V30H115.906ZM111.016 30H110.516V30.5H111.016V30ZM111.016 13.0938V12.5938H110.516V13.0938H111.016ZM115.609 13.0938L116.108 13.0528L116.07 12.5938H115.609V13.0938ZM115.266 20.9531L115.278 21.453L115.766 21.4405V20.9531H115.266ZM114.047 20.9844H113.547V21.4974L114.06 21.4842L114.047 20.9844ZM115.844 14.9844L115.456 14.6693L115.455 14.6699L115.844 14.9844ZM117.922 13.3438L117.712 12.8898L117.71 12.8908L117.922 13.3438ZM124.469 14.2344L124.1 14.5727L124.108 14.5803L124.469 14.2344ZM125.562 16.2344L125.084 16.378L125.084 16.3797L125.562 16.2344ZM125.938 30V30.5H126.438V30H125.938ZM121.031 30H120.531V30.5H121.031V30ZM119.859 16.8125L119.667 17.2741L119.672 17.2759L119.859 16.8125ZM117.016 16.9219L117.253 17.3622L117.261 17.3574L117.016 16.9219ZM115.438 19.2344L114.951 19.1198L114.949 19.129L115.438 19.2344ZM115.406 16.7031V30H116.406V16.7031H115.406ZM115.906 29.5H111.016V30.5H115.906V29.5ZM111.516 30V13.0938H110.516V30H111.516ZM111.016 13.5938H115.609V12.5938H111.016V13.5938ZM115.111 13.1347L115.408 16.7441L116.405 16.6621L116.108 13.0528L115.111 13.1347ZM115.253 20.4533L114.034 20.4845L114.06 21.4842L115.278 21.453L115.253 20.4533ZM114.547 20.9844C114.547 19.7539 114.698 18.6643 114.993 17.7102L114.038 17.4148C113.708 18.4815 113.547 19.6732 113.547 20.9844H114.547ZM114.993 17.7102C115.29 16.7509 115.705 15.9505 116.233 15.2988L115.455 14.6699C114.836 15.435 114.366 16.3533 114.038 17.4148L114.993 17.7102ZM116.232 15.2995C116.77 14.6367 117.403 14.1382 118.134 13.7967L117.71 12.8908C116.836 13.2993 116.084 13.8946 115.456 14.6693L116.232 15.2995ZM118.131 13.7977C118.872 13.4558 119.696 13.2812 120.609 13.2812V12.2812C119.565 12.2812 118.597 12.4817 117.712 12.8898L118.131 13.7977ZM120.609 13.2812C121.353 13.2812 122.02 13.3888 122.616 13.597L122.946 12.653C122.23 12.4029 121.449 12.2812 120.609 12.2812V13.2812ZM122.616 13.597C123.195 13.7991 123.688 14.1231 124.1 14.5726L124.837 13.8962C124.312 13.3249 123.68 12.9092 122.946 12.653L122.616 13.597ZM124.108 14.5803C124.52 15.0104 124.851 15.6015 125.084 16.378L126.041 16.0907C125.774 15.2005 125.376 14.4583 124.83 13.8884L124.108 14.5803ZM125.084 16.3797C125.315 17.1407 125.438 18.1039 125.438 19.2812H126.438C126.438 18.0419 126.31 16.9738 126.041 16.089L125.084 16.3797ZM125.438 19.2812V30H126.438V19.2812H125.438ZM125.938 29.5H121.031V30.5H125.938V29.5ZM121.531 30V19.2656H120.531V30H121.531ZM121.531 19.2656C121.531 18.5225 121.429 17.8839 121.179 17.3966L120.29 17.8534C120.435 18.1369 120.531 18.592 120.531 19.2656H121.531ZM121.179 17.3966C120.929 16.9095 120.549 16.5524 120.047 16.3491L119.672 17.2759C119.941 17.3851 120.144 17.5697 120.29 17.8534L121.179 17.3966ZM120.052 16.351C119.599 16.1624 119.071 16.0781 118.484 16.0781V17.0781C118.981 17.0781 119.37 17.1501 119.667 17.274L120.052 16.351ZM118.484 16.0781C117.845 16.0781 117.267 16.2063 116.77 16.4864L117.261 17.3574C117.577 17.1791 117.978 17.0781 118.484 17.0781V16.0781ZM116.779 16.4816C116.297 16.7408 115.903 17.1058 115.598 17.5689L116.433 18.1186C116.649 17.7901 116.921 17.5405 117.253 17.3621L116.779 16.4816ZM115.598 17.5689C115.301 18.0206 115.087 18.5401 114.951 19.1199L115.924 19.3489C116.038 18.8662 116.21 18.4586 116.433 18.1186L115.598 17.5689ZM114.949 19.129C114.826 19.699 114.766 20.3076 114.766 20.9531H115.766C115.766 20.3695 115.82 19.8322 115.926 19.3398L114.949 19.129ZM138.969 26.2188H138.469V26.2517L138.473 26.2843L138.969 26.2188ZM138.969 6V5.5H138.469V6H138.969ZM143.875 6H144.375V5.5H143.875V6ZM143.875 30V30.5H144.375V30H143.875ZM139.469 30L138.973 30.0655L139.031 30.5H139.469V30ZM128.859 17.9219L128.377 17.7895L128.376 17.7927L128.859 17.9219ZM130.125 15.1875L129.721 14.8928L129.72 14.8937L130.125 15.1875ZM132.203 13.4062L131.977 12.9602L132.203 13.4062ZM137.594 13.4375L137.336 13.8663L137.341 13.8689L137.594 13.4375ZM139.453 15.25L139.034 15.5235L139.039 15.5299L139.453 15.25ZM140.719 17.9844L140.241 18.1311L140.241 18.1324L140.719 17.9844ZM141.453 21.375H141.953V21.341L141.949 21.3073L141.453 21.375ZM141.453 21.9375L141.949 22.0039L141.953 21.9708V21.9375H141.453ZM140.719 25.2031L140.244 25.0465L140.242 25.0509L140.719 25.2031ZM139.453 27.875L139.039 27.5951L139.038 27.5963L139.453 27.875ZM137.578 29.6719L137.831 30.1033L137.833 30.1022L137.578 29.6719ZM132.172 29.6719L131.939 30.1145L131.942 30.1157L132.172 29.6719ZM130.125 27.875L129.719 28.1661L130.125 27.875ZM128.859 25.1562L128.377 25.2866L128.378 25.2911L128.859 25.1562ZM133.453 23.6094L132.96 23.6901L132.961 23.6988L133.453 23.6094ZM134.859 26.1562L134.582 26.5724L134.59 26.5776L134.859 26.1562ZM138.031 26.0156L138.321 26.4231L138.327 26.4188L138.031 26.0156ZM139.469 22.4844L139.969 22.4909V22.4844H139.469ZM138.656 17.7031L138.249 17.9938L138.255 18.0013L138.656 17.7031ZM137.672 16.875L137.448 17.3223L137.458 17.3269L137.672 16.875ZM134.906 16.9531L135.175 17.3746L135.184 17.3692L134.906 16.9531ZM133.984 17.9688L133.546 17.7286L133.541 17.7367L133.984 17.9688ZM133.469 19.5156L132.978 19.4209L132.977 19.4277L133.469 19.5156ZM139.469 26.2188V6H138.469V26.2188H139.469ZM138.969 6.5H143.875V5.5H138.969V6.5ZM143.375 6V30H144.375V6H143.375ZM143.875 29.5H139.469V30.5H143.875V29.5ZM139.964 29.9345L139.464 26.1532L138.473 26.2843L138.973 30.0655L139.964 29.9345ZM128.938 21.75V21.4219H127.938V21.75H128.938ZM128.938 21.4219C128.938 20.1768 129.074 19.0543 129.342 18.051L128.376 17.7927C128.082 18.8936 127.938 20.1045 127.938 21.4219H128.938ZM129.342 18.0542C129.62 17.0399 130.018 16.1854 130.53 15.4813L129.72 14.8937C129.127 15.7105 128.682 16.6788 128.377 17.7895L129.342 18.0542ZM130.529 15.4822C131.046 14.7729 131.679 14.2321 132.429 13.8523L131.977 12.9602C131.081 13.4138 130.329 14.0604 129.721 14.8928L130.529 15.4822ZM132.429 13.8523C133.172 13.4761 134.035 13.2812 135.031 13.2812V12.2812C133.902 12.2812 132.88 12.503 131.977 12.9602L132.429 13.8523ZM135.031 13.2812C135.934 13.2812 136.696 13.4821 137.337 13.8662L137.851 13.0088C137.033 12.5179 136.087 12.2812 135.031 12.2812V13.2812ZM137.341 13.8689C137.997 14.253 138.562 14.8002 139.035 15.5235L139.872 14.9765C139.323 14.1373 138.649 13.4762 137.846 13.0061L137.341 13.8689ZM139.039 15.5299C139.527 16.2531 139.93 17.1179 140.241 18.1311L141.197 17.8377C140.862 16.7467 140.42 15.7886 139.867 14.9701L139.039 15.5299ZM140.241 18.1324C140.555 19.1448 140.794 20.2478 140.958 21.4427L141.949 21.3073C141.779 20.0647 141.528 18.9073 141.196 17.8363L140.241 18.1324ZM140.953 21.375V21.9375H141.953V21.375H140.953ZM140.958 21.8711C140.805 23.0103 140.567 24.0684 140.244 25.0465L141.194 25.3598C141.538 24.3171 141.789 23.198 141.949 22.0039L140.958 21.8711ZM140.242 25.0509C139.932 26.0223 139.53 26.8687 139.039 27.5951L139.867 28.1549C140.418 27.3396 140.86 26.4048 141.195 25.3553L140.242 25.0509ZM139.038 27.5963C138.566 28.299 137.995 28.8445 137.324 29.2415L137.833 30.1022C138.641 29.6243 139.319 28.9718 139.868 28.1537L139.038 27.5963ZM137.325 29.2404C136.685 29.6155 135.916 29.8125 135 29.8125V30.8125C136.063 30.8125 137.013 30.5825 137.831 30.1033L137.325 29.2404ZM135 29.8125C134.006 29.8125 133.144 29.6132 132.402 29.2281L131.942 30.1157C132.845 30.5847 133.869 30.8125 135 30.8125V29.8125ZM132.405 29.2293C131.663 28.8397 131.04 28.2935 130.531 27.5839L129.719 28.1661C130.314 28.9982 131.055 29.6499 131.939 30.1145L132.405 29.2293ZM130.531 27.5839C130.018 26.8665 129.619 26.0148 129.341 25.0214L128.378 25.2911C128.683 26.381 129.128 27.3418 129.719 28.1661L130.531 27.5839ZM129.342 25.0259C129.074 24.0322 128.938 22.9411 128.938 21.75H127.938C127.938 23.0172 128.082 24.197 128.377 25.2866L129.342 25.0259ZM132.812 21.4219V21.75H133.812V21.4219H132.812ZM132.812 21.75C132.812 22.4398 132.861 23.0869 132.96 23.6901L133.947 23.5286C133.858 22.986 133.812 22.3935 133.812 21.75H132.812ZM132.961 23.6988C133.073 24.3128 133.254 24.8676 133.51 25.357L134.396 24.893C134.194 24.5074 134.042 24.0518 133.945 23.5199L132.961 23.6988ZM133.51 25.357C133.774 25.8615 134.131 26.2714 134.582 26.5723L135.137 25.7402C134.838 25.5411 134.59 25.2635 134.396 24.893L133.51 25.357ZM134.59 26.5776C135.061 26.8787 135.618 27.0156 136.234 27.0156V26.0156C135.767 26.0156 135.407 25.9129 135.129 25.7349L134.59 26.5776ZM136.234 27.0156C137.039 27.0156 137.747 26.831 138.321 26.4231L137.741 25.6081C137.378 25.8669 136.888 26.0156 136.234 26.0156V27.0156ZM138.327 26.4188C138.88 26.0131 139.289 25.459 139.559 24.7781L138.629 24.4094C138.42 24.9368 138.12 25.3307 137.736 25.6124L138.327 26.4188ZM139.559 24.7781C139.825 24.1057 139.958 23.3401 139.969 22.4909L138.969 22.4779C138.959 23.2328 138.842 23.8734 138.629 24.4094L139.559 24.7781ZM139.969 22.4844V20.8438H138.969V22.4844H139.969ZM139.969 20.8438C139.969 20.144 139.898 19.5026 139.75 18.9234L138.781 19.1704C138.904 19.6537 138.969 20.2101 138.969 20.8438H139.969ZM139.75 18.9234C139.602 18.3418 139.374 17.8314 139.058 17.405L138.255 18.0013C138.48 18.304 138.659 18.6895 138.781 19.1704L139.75 18.9234ZM139.063 17.4125C138.754 16.9803 138.361 16.6479 137.886 16.4231L137.458 17.3269C137.775 17.4771 138.037 17.6968 138.249 17.9937L139.063 17.4125ZM137.895 16.4278C137.416 16.1882 136.868 16.0781 136.266 16.0781V17.0781C136.747 17.0781 137.136 17.1659 137.448 17.3222L137.895 16.4278ZM136.266 16.0781C135.654 16.0781 135.1 16.2231 134.629 16.5371L135.184 17.3692C135.463 17.1831 135.815 17.0781 136.266 17.0781V16.0781ZM134.637 16.5318C134.183 16.8218 133.821 17.2265 133.546 17.7286L134.423 18.2089C134.627 17.836 134.879 17.5636 135.175 17.3745L134.637 16.5318ZM133.541 17.7367C133.285 18.2258 133.1 18.7896 132.978 19.4209L133.96 19.6104C134.067 19.0542 134.225 18.5867 134.427 18.2008L133.541 17.7367ZM132.977 19.4277C132.866 20.0442 132.812 20.7095 132.812 21.4219H133.812C133.812 20.7593 133.863 20.1537 133.961 19.6035L132.977 19.4277ZM158.594 22.0938H158.094V22.5938H158.594V22.0938ZM158.594 18.1406V17.6406H158.094V18.1406H158.594ZM166.344 17.7188L166.106 17.2788L166.102 17.2808L166.344 17.7188ZM167.484 16.5625L167.037 16.3389L167.035 16.3427L167.484 16.5625ZM167.484 13.0781L167.024 13.2741L167.029 13.2844L167.484 13.0781ZM166.344 11.7188L166.064 12.1335L166.068 12.1361L166.344 11.7188ZM160.438 11.2031V10.7031H159.938V11.2031H160.438ZM160.438 30V30.5H160.938V30H160.438ZM155.344 30H154.844V30.5H155.344V30ZM155.344 7.25V6.75H154.844V7.25H155.344ZM168.969 8.23438L168.742 8.68014L168.744 8.68087L168.969 8.23438ZM171.953 10.9375L171.524 11.1948L171.527 11.1993L171.953 10.9375ZM171.953 18.6719L171.533 18.4011L171.531 18.404L171.953 18.6719ZM168.969 21.2031L169.178 21.6574L169.179 21.6567L168.969 21.2031ZM164.312 21.5938H158.594V22.5938H164.312V21.5938ZM159.094 22.0938V18.1406H158.094V22.0938H159.094ZM158.594 18.6406H164.312V17.6406H158.594V18.6406ZM164.312 18.6406C165.205 18.6406 165.975 18.4928 166.585 18.1567L166.102 17.2808C165.692 17.5072 165.107 17.6406 164.312 17.6406V18.6406ZM166.581 18.1587C167.186 17.8324 167.644 17.3736 167.933 16.7823L167.035 16.3427C166.845 16.7305 166.544 17.0426 166.106 17.2788L166.581 18.1587ZM167.932 16.7861C168.22 16.2088 168.359 15.5684 168.359 14.875H167.359C167.359 15.4316 167.249 15.9162 167.037 16.3389L167.932 16.7861ZM168.359 14.875C168.359 14.1628 168.221 13.493 167.94 12.8719L167.029 13.2844C167.248 13.7675 167.359 14.2955 167.359 14.875H168.359ZM167.944 12.8822C167.665 12.2274 167.22 11.6981 166.619 11.3014L166.068 12.1361C166.509 12.4269 166.824 12.8038 167.024 13.2741L167.944 12.8822ZM166.623 11.304C166.005 10.8876 165.22 10.7031 164.312 10.7031V11.7031C165.093 11.7031 165.662 11.8624 166.064 12.1335L166.623 11.304ZM164.312 10.7031H160.438V11.7031H164.312V10.7031ZM159.938 11.2031V30H160.938V11.2031H159.938ZM160.438 29.5H155.344V30.5H160.438V29.5ZM155.844 30V7.25H154.844V30H155.844ZM155.344 7.75H164.312V6.75H155.344V7.75ZM164.312 7.75C166.066 7.75 167.536 8.06737 168.742 8.68014L169.195 7.78861C167.818 7.08888 166.184 6.75 164.312 6.75V7.75ZM168.744 8.68087C169.969 9.2986 170.89 10.1373 171.524 11.1947L172.382 10.6803C171.641 9.446 170.572 8.48265 169.194 7.78788L168.744 8.68087ZM171.527 11.1993C172.172 12.2481 172.5 13.4577 172.5 14.8438H173.5C173.5 13.2923 173.13 11.8977 172.379 10.6757L171.527 11.1993ZM172.5 14.8438C172.5 16.2302 172.172 17.4093 171.533 18.4011L172.373 18.9427C173.13 17.7677 173.5 16.3948 173.5 14.8438H172.5ZM171.531 18.404C170.901 19.397 169.984 20.1808 168.758 20.7496L169.179 21.6567C170.558 21.0171 171.631 20.1134 172.375 18.9398L171.531 18.404ZM168.76 20.7488C167.549 21.3054 166.072 21.5938 164.312 21.5938V22.5938C166.178 22.5938 167.805 22.2884 169.178 21.6574L168.76 20.7488ZM180.734 17.0312H181.234V17.0124L181.233 16.9937L180.734 17.0312ZM180.734 30V30.5H181.234V30H180.734ZM175.859 30H175.359V30.5H175.859V30ZM175.859 13.0938V12.5938H175.359V13.0938H175.859ZM180.438 13.0938L180.936 13.0562L180.901 12.5938H180.438V13.0938ZM185.781 12.9688L186.281 12.9773L186.287 12.6172L185.948 12.4973L185.781 12.9688ZM185.703 17.5156L185.629 18.0101L186.193 18.0947L186.203 17.5242L185.703 17.5156ZM184.891 17.4375L184.844 17.9353L184.852 17.936L184.859 17.9365L184.891 17.4375ZM182.406 17.625L182.561 18.1005L182.568 18.0983L182.406 17.625ZM181.281 18.2812L180.934 17.9215L180.928 17.9277L181.281 18.2812ZM180.625 19.375L181.098 19.5366L181.099 19.5331L180.625 19.375ZM180.406 20.8594L180.186 21.3081L180.906 21.6623V20.8594H180.406ZM179.484 20.4062H178.984V20.7176L179.264 20.855L179.484 20.4062ZM180.766 14.9375L181.191 15.1996L181.193 15.1967L180.766 14.9375ZM180.234 17.0312V30H181.234V17.0312H180.234ZM180.734 29.5H175.859V30.5H180.734V29.5ZM176.359 30V13.0938H175.359V30H176.359ZM175.859 13.5938H180.438V12.5938H175.859V13.5938ZM179.939 13.1313L180.236 17.0688L181.233 16.9937L180.936 13.0562L179.939 13.1313ZM185.281 12.9602L185.203 17.507L186.203 17.5242L186.281 12.9773L185.281 12.9602ZM185.777 17.0212C185.549 16.9869 185.262 16.9598 184.922 16.9385L184.859 17.9365C185.186 17.9569 185.441 17.9818 185.629 18.0101L185.777 17.0212ZM184.937 16.9397C184.594 16.9075 184.291 16.8906 184.031 16.8906V17.8906C184.251 17.8906 184.521 17.905 184.844 17.9353L184.937 16.9397ZM184.031 16.8906C183.366 16.8906 182.768 16.9735 182.245 17.1517L182.568 18.0983C182.961 17.964 183.446 17.8906 184.031 17.8906V16.8906ZM182.251 17.1496C181.74 17.316 181.297 17.5711 180.934 17.9215L181.629 18.641C181.87 18.4081 182.176 18.2257 182.561 18.1004L182.251 17.1496ZM180.928 17.9277C180.575 18.2804 180.318 18.7145 180.151 19.2169L181.099 19.5331C181.224 19.1605 181.404 18.8654 181.635 18.6348L180.928 17.9277ZM180.152 19.2134C179.984 19.7035 179.906 20.2549 179.906 20.8594H180.906C180.906 20.3389 180.974 19.9006 181.098 19.5366L180.152 19.2134ZM180.627 20.4107L179.705 19.9575L179.264 20.855L180.186 21.3081L180.627 20.4107ZM179.984 20.4062C179.984 19.324 180.091 18.3423 180.299 17.4586L179.326 17.2289C179.097 18.1994 178.984 19.2594 178.984 20.4062H179.984ZM180.299 17.4586C180.508 16.5735 180.808 15.8231 181.191 15.1995L180.34 14.6755C179.89 15.406 179.555 16.2598 179.326 17.2289L180.299 17.4586ZM181.193 15.1967C181.574 14.5676 182.032 14.0969 182.561 13.7686L182.033 12.9189C181.354 13.3406 180.79 13.9324 180.338 14.6783L181.193 15.1967ZM182.561 13.7686C183.079 13.4468 183.674 13.2812 184.359 13.2812V12.2812C183.503 12.2812 182.723 12.4907 182.033 12.9189L182.561 13.7686ZM184.359 13.2812C184.589 13.2812 184.824 13.2956 185.065 13.3246L185.185 12.3317C184.905 12.2982 184.63 12.2812 184.359 12.2812V13.2812ZM185.065 13.3246C185.303 13.353 185.483 13.3937 185.615 13.4402L185.948 12.4973C185.725 12.4188 185.468 12.3657 185.185 12.3317L185.065 13.3246ZM187.078 17.9688L187.552 18.1297L187.552 18.1283L187.078 17.9688ZM191.172 13.4375L191.368 13.8973L191.372 13.8956L191.172 13.4375ZM198.078 13.4375L197.878 13.8956L197.883 13.898L198.078 13.4375ZM202.188 17.9688L201.714 18.1283L201.714 18.1297L202.188 17.9688ZM202.188 25.1406L202.661 25.3016L202.661 25.3001L202.188 25.1406ZM200.625 27.875L200.998 28.2078L201 28.2053L200.625 27.875ZM188.641 27.875L188.265 28.2053L188.267 28.2078L188.641 27.875ZM187.078 25.1406L186.604 25.3001L186.605 25.3016L187.078 25.1406ZM191.594 23.5938L191.101 23.6817L191.103 23.6901L191.594 23.5938ZM193.125 26.1562L192.863 26.5821L192.869 26.586L192.876 26.5897L193.125 26.1562ZM196.141 26.1562L196.395 26.587L196.403 26.5821L196.141 26.1562ZM197.656 23.5938L197.166 23.4974L197.164 23.5059L197.656 23.5938ZM197.656 19.5469L197.164 19.6348L197.166 19.6449L197.656 19.5469ZM196.125 16.9531L195.863 17.379L195.868 17.3819L196.125 16.9531ZM191.594 19.5469L191.103 19.4505L191.102 19.4574L191.594 19.5469ZM187.047 21.7188V21.3906H186.047V21.7188H187.047ZM187.047 21.3906C187.047 20.1989 187.217 19.1134 187.552 18.1297L186.605 17.8078C186.231 18.9074 186.047 20.1031 186.047 21.3906H187.047ZM187.552 18.1283C187.886 17.1353 188.374 16.284 189.014 15.5672L188.267 14.9016C187.532 15.7264 186.978 16.698 186.604 17.8092L187.552 18.1283ZM189.014 15.5672C189.65 14.854 190.432 14.2971 191.368 13.8973L190.975 12.9777C189.912 13.432 189.006 14.073 188.267 14.9016L189.014 15.5672ZM191.372 13.8956C192.299 13.4903 193.374 13.2812 194.609 13.2812V12.2812C193.261 12.2812 192.045 12.5097 190.971 12.9794L191.372 13.8956ZM194.609 13.2812C195.867 13.2812 196.952 13.4907 197.878 13.8956L198.279 12.9794C197.204 12.5093 195.977 12.2812 194.609 12.2812V13.2812ZM197.883 13.898C198.83 14.2981 199.617 14.855 200.252 15.5672L200.998 14.9016C200.258 14.0721 199.347 13.431 198.273 12.977L197.883 13.898ZM200.252 15.5672C200.891 16.284 201.379 17.1353 201.714 18.1283L202.661 17.8092C202.287 16.698 201.734 15.7264 200.998 14.9016L200.252 15.5672ZM201.714 18.1297C202.049 19.1134 202.219 20.1989 202.219 21.3906H203.219C203.219 20.1031 203.035 18.9074 202.661 17.8078L201.714 18.1297ZM202.219 21.3906V21.7188H203.219V21.3906H202.219ZM202.219 21.7188C202.219 22.8995 202.049 23.9856 201.714 24.9811L202.661 25.3001C203.035 24.1915 203.219 22.9964 203.219 21.7188H202.219ZM201.714 24.9797C201.38 25.9626 200.891 26.8157 200.25 27.5447L201 28.2053C201.734 27.3718 202.287 26.402 202.661 25.3016L201.714 24.9797ZM200.252 27.5422C199.616 28.2553 198.833 28.8123 197.897 29.2121L198.29 30.1317C199.354 29.6773 200.259 29.0363 200.998 28.2078L200.252 27.5422ZM197.897 29.2121C196.97 29.6079 195.888 29.8125 194.641 29.8125V30.8125C195.997 30.8125 197.217 30.59 198.29 30.1317L197.897 29.2121ZM194.641 29.8125C193.404 29.8125 192.321 29.6082 191.382 29.2113L190.993 30.1324C192.075 30.5897 193.294 30.8125 194.641 30.8125V29.8125ZM191.382 29.2113C190.436 28.8113 189.649 28.2544 189.014 27.5422L188.267 28.2078C189.007 29.0373 189.919 29.6783 190.993 30.1324L191.382 29.2113ZM189.016 27.5447C188.374 26.8157 187.886 25.9626 187.552 24.9797L186.605 25.3016C186.979 26.402 187.532 27.3718 188.265 28.2053L189.016 27.5447ZM187.552 24.9811C187.217 23.9856 187.047 22.8995 187.047 21.7188H186.047C186.047 22.9964 186.231 24.1915 186.604 25.3001L187.552 24.9811ZM190.938 21.3906V21.7188H191.938V21.3906H190.938ZM190.938 21.7188C190.938 22.4113 190.992 23.066 191.102 23.6816L192.086 23.5059C191.988 22.9549 191.938 22.3595 191.938 21.7188H190.938ZM191.103 23.6901C191.226 24.3174 191.425 24.8808 191.706 25.3731L192.575 24.8769C192.356 24.4942 192.19 24.0367 192.084 23.4974L191.103 23.6901ZM191.706 25.3731C191.996 25.8791 192.381 26.2857 192.863 26.5821L193.387 25.7304C193.056 25.5268 192.786 25.2459 192.575 24.8769L191.706 25.3731ZM192.876 26.5897C193.384 26.882 193.98 27.0156 194.641 27.0156V26.0156C194.114 26.0156 193.699 25.9096 193.374 25.7228L192.876 26.5897ZM194.641 27.0156C195.301 27.0156 195.894 26.8822 196.395 26.5869L195.887 25.7256C195.575 25.9094 195.168 26.0156 194.641 26.0156V27.0156ZM196.403 26.5821C196.884 26.2857 197.27 25.8791 197.559 25.3731L196.691 24.8769C196.48 25.2459 196.209 25.5268 195.879 25.7304L196.403 26.5821ZM197.559 25.3731C197.842 24.878 198.036 24.3116 198.148 23.6816L197.164 23.5059C197.068 24.0426 196.908 24.497 196.691 24.8769L197.559 25.3731ZM198.147 23.6901C198.268 23.0715 198.328 22.4139 198.328 21.7188H197.328C197.328 22.3569 197.273 22.9493 197.166 23.4974L198.147 23.6901ZM198.328 21.7188V21.3906H197.328V21.7188H198.328ZM198.328 21.3906C198.328 20.7054 198.268 20.0577 198.147 19.4488L197.166 19.6449C197.273 20.1819 197.328 20.7633 197.328 21.3906H198.328ZM198.148 19.459C198.036 18.8293 197.842 18.2596 197.562 17.7563L196.688 18.2437C196.908 18.6362 197.068 19.0978 197.164 19.6348L198.148 19.459ZM197.562 17.7563C197.271 17.2365 196.878 16.8219 196.382 16.5244L195.868 17.3819C196.205 17.5844 196.479 17.8677 196.688 18.2437L197.562 17.7563ZM196.387 16.5273C195.884 16.2174 195.282 16.0781 194.609 16.0781V17.0781C195.145 17.0781 195.554 17.1888 195.863 17.379L196.387 16.5273ZM194.609 16.0781C193.954 16.0781 193.364 16.219 192.863 16.5273L193.387 17.379C193.699 17.1872 194.098 17.0781 194.609 17.0781V16.0781ZM192.863 16.5273C192.378 16.8254 191.992 17.2396 191.704 17.7563L192.577 18.2437C192.789 17.8646 193.059 17.5808 193.387 17.379L192.863 16.5273ZM191.704 17.7563C191.425 18.2568 191.226 18.8236 191.103 19.4505L192.084 19.6432C192.19 19.1035 192.357 18.639 192.577 18.2437L191.704 17.7563ZM191.102 19.4574C190.992 20.0633 190.938 20.7081 190.938 21.3906H191.938C191.938 20.7607 191.988 20.1763 192.086 19.6363L191.102 19.4574ZM214.922 7.25L215.397 7.40486L215.611 6.75H214.922V7.25ZM206.875 31.9531V32.4531H207.238L207.35 32.108L206.875 31.9531ZM203.328 31.9531L202.853 31.7983L202.639 32.4531H203.328V31.9531ZM211.375 7.25V6.75H211.012L210.9 7.09514L211.375 7.25ZM214.446 7.09514L206.4 31.7983L207.35 32.108L215.397 7.40486L214.446 7.09514ZM206.875 31.4531H203.328V32.4531H206.875V31.4531ZM203.804 32.108L211.85 7.40486L210.9 7.09514L202.853 31.7983L203.804 32.108ZM211.375 7.75H214.922V6.75H211.375V7.75ZM226.766 20.6562L226.601 21.1285L226.617 21.134L226.634 21.1385L226.766 20.6562ZM217.016 17.2656H216.516V17.6211L216.851 17.7379L217.016 17.2656ZM217.016 12.7656L217.207 12.3037L216.516 12.0172V12.7656H217.016ZM230.703 18.4375H231.203V18.1035L230.895 17.9756L230.703 18.4375ZM230.703 21.7344L230.571 22.2166L231.203 22.3897V21.7344H230.703ZM217.016 23.4844L216.848 23.0135L216.516 23.1319V23.4844H217.016ZM226.781 20L226.66 19.515L226.636 19.5209L226.613 19.5291L226.781 20ZM230.703 19.0156H231.203V18.3746L230.581 18.5307L230.703 19.0156ZM230.703 22.2969L230.895 22.7588L231.203 22.6309V22.2969H230.703ZM217.016 27.9688H216.516V28.7172L217.207 28.4307L217.016 27.9688ZM226.93 20.184L217.18 16.7934L216.851 17.7379L226.601 21.1285L226.93 20.184ZM217.516 17.2656V12.7656H216.516V17.2656H217.516ZM216.824 13.2275L230.512 18.8994L230.895 17.9756L217.207 12.3037L216.824 13.2275ZM230.203 18.4375V21.7344H231.203V18.4375H230.203ZM230.835 21.2521L226.898 20.174L226.634 21.1385L230.571 22.2166L230.835 21.2521ZM217.184 23.9553L226.949 20.4709L226.613 19.5291L216.848 23.0135L217.184 23.9553ZM226.903 20.485L230.825 19.5006L230.581 18.5307L226.66 19.515L226.903 20.485ZM230.203 19.0156V22.2969H231.203V19.0156H230.203ZM230.512 21.835L216.824 27.5068L217.207 28.4307L230.895 22.7588L230.512 21.835ZM217.516 27.9688V23.4844H216.516V27.9688H217.516Z" fill="white" fill-opacity="0.22" mask="url(#path-1-outside-1_795_6004)"/>
</g>
</svg>
