<svg width="48" height="48" viewBox="0 0 48 48" fill="none" xmlns="http://www.w3.org/2000/svg">
<path d="M24 42H4.5C3.67125 42 3 41.3288 3 40.5V37.5C3 36.6712 3.67125 36 4.5 36H24V42Z" fill="#C80A50"/>
<path d="M9.84766 36C13.1462 39.6803 17.9334 42 23.2524 42V36H9.84766Z" fill="#A00028"/>
<path d="M12 24H6C6 14.0745 14.0753 6 24 6V12C17.3835 12 12 17.3835 12 24Z" fill="#FAB400"/>
<path d="M24 42C14.0753 42 6 33.9255 6 24H12C12 30.6165 17.3835 36 24 36V42Z" fill="#00A0C8"/>
<path d="M24 36H37.5V42H24V36Z" fill="#00A0C8"/>
<path d="M17.6893 7.9395C17.1036 8.52525 17.1036 9.47475 17.6893 10.0605L20.2341 12.6052C21.4191 12.213 22.6851 12 23.9998 12V6C22.2253 6 20.5108 6.258 18.8901 6.73875L17.6893 7.9395Z" fill="#DC9600"/>
<path d="M7.9395 30.3105C8.52525 30.8963 9.47475 30.8963 10.0605 30.3105L12.6052 27.7657C12.213 26.5807 12 25.3147 12 24H6C6 25.7745 6.258 27.489 6.73875 29.1097L7.9395 30.3105Z" fill="#0082AA"/>
<path d="M40.0622 17.6893C39.4765 17.1036 38.527 17.1036 37.9412 17.6893L35.3965 20.2341C35.7887 21.4191 36.0017 22.6851 36.0017 23.9998H42.0017C42.0017 22.2253 41.7437 20.5108 41.263 18.8901L40.0622 17.6893Z" fill="#0082AA"/>
<path d="M25.4998 6.06303V4.50078C25.4998 3.89403 25.1346 3.34728 24.5743 3.11478C24.0126 2.88153 23.3691 3.01053 22.9393 3.44028L18.4393 7.94028C17.8536 8.52603 17.8536 9.47553 18.4393 10.0613L22.9393 14.5613C23.2266 14.8485 23.6091 15.0008 23.9998 15.0008C24.1933 15.0008 24.3883 14.9633 24.5743 14.8868C25.1346 14.6543 25.4998 14.1075 25.4998 13.5008V12.0945C31.4113 12.8348 35.9998 17.892 35.9998 24.0008H41.9998C41.9998 14.5808 34.7256 6.82803 25.4998 6.06303Z" fill="#00A0C8"/>
<path d="M14.8864 23.4263C14.6539 22.8653 14.1072 22.5 13.5005 22.5H4.50045C3.8937 22.5 3.34695 22.8653 3.11445 23.4263C2.88195 23.9865 3.0102 24.6315 3.43995 25.0605L7.93995 29.5605C8.2332 29.8538 8.61645 30 9.00045 30C9.38445 30 9.7677 29.8538 10.0609 29.5605L14.5609 25.0605C14.99 24.6315 15.1182 23.9865 14.8864 23.4263Z" fill="#FAB400"/>
<path d="M41.9378 25.4998H43.5C44.1068 25.4998 44.6535 25.1346 44.886 24.5736C45.1185 24.0133 44.9903 23.3683 44.5605 22.9393L40.0605 18.4393C39.4748 17.8536 38.5253 17.8536 37.9395 18.4393L33.4395 22.9393C33.0105 23.3683 32.8823 24.0133 33.114 24.5736C33.3465 25.1346 33.8933 25.4998 34.5 25.4998H35.9063C35.166 31.4113 30.1088 35.9998 24 35.9998H37.4048C39.9473 33.1626 41.6048 29.5161 41.9378 25.4998Z" fill="#C80A50"/>
<path d="M30.75 22.5H30.3645C30.0352 22.5 29.76 22.281 29.6482 21.9713C29.583 21.7905 29.5102 21.6143 29.4285 21.4425C29.2875 21.1448 29.328 20.7938 29.5605 20.5613L29.8335 20.2883C30.1267 19.995 30.1267 19.5202 29.8335 19.2277L28.773 18.1672C28.4797 17.874 28.005 17.874 27.7125 18.1672L27.4395 18.4402C27.2062 18.6735 26.856 18.7133 26.5582 18.5723C26.3865 18.4913 26.2095 18.4177 26.0295 18.3525C25.719 18.2407 25.5 17.9647 25.5 17.6355V17.25C25.5 16.836 25.164 16.5 24.75 16.5H23.25C22.836 16.5 22.5 16.836 22.5 17.25V17.6355C22.5 17.9647 22.281 18.24 21.9713 18.3517C21.7905 18.417 21.6143 18.4897 21.4425 18.5715C21.1448 18.7125 20.7938 18.672 20.5613 18.4395L20.2883 18.1665C19.995 17.8733 19.5202 17.8733 19.2277 18.1665L18.1672 19.227C17.874 19.5202 17.874 19.995 18.1672 20.2875L18.4402 20.5605C18.6735 20.7937 18.7133 21.144 18.5723 21.4418C18.4913 21.6135 18.4177 21.7905 18.3525 21.9705C18.2407 22.281 17.9647 22.5 17.6355 22.5H17.25C16.836 22.5 16.5 22.836 16.5 23.25V24.75C16.5 25.164 16.836 25.5 17.25 25.5H17.6355C17.9647 25.5 18.24 25.719 18.3517 26.0288C18.417 26.2095 18.4897 26.3857 18.5715 26.5575C18.7125 26.8553 18.672 27.2062 18.4395 27.4387L18.1665 27.7118C17.8733 28.005 17.8733 28.4797 18.1665 28.7722L19.227 29.8328C19.5202 30.126 19.995 30.126 20.2875 29.8328L20.5605 29.5597C20.7937 29.3265 21.144 29.2867 21.4418 29.4277C21.6135 29.5087 21.7905 29.5822 21.9705 29.6475C22.281 29.7592 22.5 30.0352 22.5 30.3645V30.75C22.5 31.164 22.836 31.5 23.25 31.5H24.75C25.164 31.5 25.5 31.164 25.5 30.75V30.3645C25.5 30.0352 25.719 29.76 26.0288 29.6482C26.2095 29.583 26.3857 29.5102 26.5575 29.4285C26.8553 29.2875 27.2062 29.328 27.4387 29.5605L27.7118 29.8335C28.005 30.1267 28.4797 30.1267 28.7722 29.8335L29.8328 28.773C30.126 28.4797 30.126 28.005 29.8328 27.7125L29.5597 27.4395C29.3265 27.2062 29.2867 26.856 29.4277 26.5582C29.5087 26.3865 29.5822 26.2095 29.6475 26.0295C29.7592 25.719 30.0352 25.5 30.3645 25.5H30.75C31.164 25.5 31.5 25.164 31.5 24.75V23.25C31.5 22.836 31.164 22.5 30.75 22.5ZM24 27C22.3432 27 21 25.6567 21 24C21 22.3432 22.3432 21 24 21C25.6567 21 27 22.3432 27 24C27 25.6567 25.6567 27 24 27Z" fill="#C80A50"/>
<path d="M44.5605 37.9396L40.0605 33.4396C39.6307 33.0099 38.9872 32.8824 38.4255 33.1141C37.8652 33.3466 37.5 33.8934 37.5 34.5001V36.0001H24V42.0001H37.5V43.5001C37.5 44.1069 37.8652 44.6536 38.4255 44.8861C38.6115 44.9626 38.8065 45.0001 39 45.0001C39.3907 45.0001 39.7732 44.8479 40.0605 44.5606L44.5605 40.0606C45.1462 39.4749 45.1462 38.5254 44.5605 37.9396Z" fill="#00A0C8"/>
</svg>
