<svg width="467" height="468" viewBox="0 0 467 468" fill="none" xmlns="http://www.w3.org/2000/svg">
<mask id="path-1-inside-1_795_8195" fill="white">
<path d="M334.276 335.004C339.447 329.821 344.164 324.327 348.411 318.566C358.083 305.4 365.413 290.686 370.104 275.085C373.356 264.161 375.294 252.81 375.856 241.223L375.977 241.177C375.986 241.006 375.994 240.834 376.002 240.663C376.099 238.621 377.829 237.045 379.866 237.142C381.904 237.239 383.476 238.973 383.379 241.014C381.571 279.118 365.367 315.106 338.055 341.678C310.743 368.249 274.367 383.414 236.307 384.097C198.247 384.779 161.354 370.927 133.11 345.352C104.867 319.777 87.3889 284.393 84.2219 246.378C84.0522 244.341 85.5622 242.552 87.5945 242.382C89.6269 242.212 91.412 243.725 91.5816 245.762C94.5927 281.904 111.21 315.545 138.062 339.861C164.914 364.176 199.99 377.345 236.175 376.697C270.869 376.075 304.092 362.794 329.658 339.434C331.223 337.996 332.763 336.519 334.276 335.004Z"/>
<path d="M271.2 96.0881C280.615 98.6666 289.772 102.216 298.519 106.698C317.911 116.635 334.772 130.893 347.809 148.378C349.03 150.015 351.344 150.35 352.978 149.127C354.611 147.904 354.946 145.585 353.725 143.948C340.013 125.557 322.278 110.56 301.881 100.108C281.484 89.6563 258.969 84.0276 236.063 83.6544C213.158 83.2811 190.471 88.1731 169.746 97.9548C149.021 107.736 130.809 122.148 116.507 140.082C115.234 141.678 115.493 144.007 117.086 145.283C118.679 146.559 121.003 146.299 122.276 144.702C123.669 142.956 125.101 141.244 126.571 139.569C128.541 137.335 130.591 135.15 132.72 133.018C139.034 126.69 145.812 121.043 152.972 116.102C159.275 111.767 165.935 107.934 172.893 104.65C178.341 102.079 183.931 99.8635 189.628 98.0106C203.609 93.5001 218.328 91.1798 233.377 91.1798C241.564 91.1798 249.861 91.8667 258.178 93.2646C262.593 94.0059 266.937 94.9503 271.2 96.0881Z"/>
<path d="M179.893 199.961C179.758 200.184 179.502 200.285 179.251 200.285C179.136 200.285 179.02 200.261 178.918 200.222C173.98 197.392 169.298 194.171 164.206 190.659C163.79 190.374 163.372 190.086 162.951 189.797L161.907 189.08C161.521 188.815 161.132 188.548 160.74 188.279C155.252 184.578 144.082 179.664 122.052 179.664C119.59 179.664 116.993 179.727 114.251 179.857C113.112 179.915 111.924 179.988 110.684 180.065C107.783 180.244 104.621 180.433 101.252 180.481C101.003 180.481 100.754 180.484 100.503 180.486L100.499 180.486C100.244 180.488 99.9886 180.491 99.7315 180.491C98.8916 180.491 98.0421 180.481 97.178 180.457C95.8506 180.423 94.499 180.355 93.1185 180.254C83.3294 179.523 72.3383 176.853 61.1445 169.152C56.2113 165.824 51.2105 160.145 48.6136 154.858C48.3529 154.399 48.2274 153.813 48.1598 153.228C48.1067 152.734 48.5556 152.333 49.048 152.333C49.1397 152.333 49.2363 152.348 49.328 152.377C71.3343 161.258 86.4814 164.755 99.2005 166.477C100.581 166.666 101.928 166.835 103.255 166.985C104.631 167.14 105.982 167.28 107.315 167.406C110.324 167.689 113.242 167.912 116.139 168.133L116.437 168.156C125.677 168.861 134.725 169.55 145.936 172.156C157.24 174.81 170.877 189.462 177.366 196.436L177.577 196.662L177.579 196.664L177.583 196.669C178.489 197.642 179.245 198.456 179.826 199.047C180.087 199.245 180.087 199.637 179.893 199.961Z"/>
<path d="M417.751 152.633C417.583 152.633 417.415 152.677 417.256 152.768C401.728 162.917 385.099 167.087 369.464 169.191C368.103 169.37 366.752 169.539 365.41 169.689C364.044 169.849 362.687 169.989 361.34 170.12C356.48 170.599 351.764 170.932 347.25 171.252C334.908 172.122 324.105 172.887 316.232 176.137C311.719 177.966 303.938 183.867 293.883 191.501L292.797 192.323C289.061 195.167 285.793 197.789 282.67 200.295C276.173 205.509 270.284 210.231 262.083 215.431C258.578 217.583 255.851 221.042 254.553 224.96C252.409 231.355 249.296 237.426 245.14 242.781C244.397 243.869 243.595 244.938 242.789 246.012C240.839 248.6 238.865 251.222 237.673 254.269C237.093 255.914 236.751 257.593 236.524 259.295C236.298 260.994 236.186 262.716 236.076 264.434L236.075 264.447L236.043 264.921C235.987 265.767 235.931 266.611 235.858 267.451C235.78 270.005 235.549 272.559 235.317 275.113C235.153 276.932 234.989 278.756 234.883 280.575C235.037 281.126 235.462 281.378 235.901 281.378C236.398 281.378 236.92 281.058 237.089 280.507C237.812 279.318 238.472 278.091 239.132 276.864L239.135 276.859L239.18 276.777C240.478 274.376 241.777 271.974 243.552 269.86C243.692 269.691 243.875 269.618 244.049 269.618C244.464 269.618 244.86 270.02 244.691 270.513L243.605 273.648C243.591 273.696 243.581 273.744 243.576 273.797C242.722 282.05 241.877 290.297 241.032 298.55L241.03 298.571C239.303 315.417 237.575 332.263 235.79 349.109C235.679 349.859 235.563 351.33 236.485 351.475C236.514 351.48 236.543 351.48 236.576 351.48H236.577C236.77 351.48 236.963 351.388 237.084 351.233C237.679 350.462 238.033 349.57 238.387 348.681L238.411 348.621C238.508 348.369 238.609 348.118 238.71 347.871C241.268 341.503 243.825 335.199 246.382 328.895L246.892 327.637C248.191 324.042 248.712 320.192 247.93 316.472C247.621 314.349 246.897 312.404 246.149 310.411C246.135 310.373 246.121 310.336 246.107 310.299L246.098 310.276C246.081 310.231 246.064 310.186 246.048 310.14C245.531 308.771 245.463 307.204 245.922 305.767C247.994 299.009 250.007 292.305 252.018 285.607L252.019 285.603L252.212 284.962V284.947C253.322 281.619 253.645 278.025 253.582 274.567C253.558 272.724 253.302 270.934 252.926 269.173C252.567 267.49 252.103 265.838 251.638 264.184L251.536 263.819L251.534 263.812L251.534 263.811L251.532 263.804C251.216 262.684 250.902 261.567 250.619 260.437C250.604 260.374 250.595 260.306 250.599 260.239C250.666 259.208 250.615 257.984 250.558 256.61L250.556 256.552C250.358 251.889 250.088 245.475 253.906 238.8C255.537 235.897 258.501 234.093 261.745 234.093C261.861 234.093 261.972 234.093 262.083 234.098C267.417 234.32 270.182 236.923 273.137 239.709C276.709 243.081 280.565 246.713 289.582 246.713C290.813 246.713 292.141 246.646 293.574 246.501C295.65 246.307 295.848 243.758 293.965 243.235C286.492 241.192 282.516 238.817 278.883 236.647L278.842 236.623C274.783 234.19 271.138 232.008 263.492 230.808C262.72 230.688 262.749 229.556 263.526 229.483C264.583 229.381 265.611 229.333 266.615 229.333C276.158 229.333 283.475 233.619 290.405 237.679L290.427 237.692L290.462 237.712C296.695 241.362 302.613 244.827 309.552 244.827C312.173 244.827 314.938 244.333 317.922 243.173C319.022 242.713 320.195 242.191 321.233 241.475C322.594 240.56 322.14 238.408 320.518 238.209H320.456C305.922 236.855 298.885 233.484 292.19 230.277L292.189 230.276C286.083 227.35 280.252 224.563 269.29 223.552C268.498 223.48 268.469 222.333 269.251 222.227C274.107 221.555 278.162 221.26 281.656 221.26C291.985 221.26 297.396 223.847 303.961 226.987L303.981 226.997C309.436 229.609 315.691 232.603 326.234 234.819C329.14 235.414 331.765 235.67 334.145 235.67C343.249 235.67 348.785 231.887 352.85 228.68C353.062 228.501 353.299 228.317 353.545 228.133L353.608 228.084L353.659 228.045L353.736 227.985L353.739 227.983C353.963 227.81 354.192 227.633 354.409 227.442C355.278 226.692 354.66 225.342 353.583 225.342C353.563 225.342 353.543 225.343 353.522 225.344C353.498 225.346 353.473 225.348 353.447 225.351L353.434 225.352C349.017 225.928 345.185 226.179 341.762 226.179C331.876 226.179 325.413 224.089 318.105 221.719L318.089 221.714C309.283 218.866 299.244 215.619 280.507 215.16C279.721 215.14 279.614 214.008 280.382 213.839C290.388 211.624 298.112 210.768 304.406 210.768C315.082 210.768 321.639 213.229 328.216 215.699L328.237 215.706C333.827 217.806 339.431 219.91 347.593 220.524C349.616 220.674 351.498 220.747 353.26 220.747C364.198 220.747 370.295 217.961 374.711 214.4C375.971 213.384 377.096 212.306 378.158 211.213C378.862 210.482 379.538 209.752 380.209 209.021L380.378 208.837C380.542 208.639 380.735 208.446 380.933 208.247C381.126 208.054 381.319 207.86 381.484 207.662C381.488 207.657 381.493 207.647 381.498 207.643C382.068 206.994 381.855 205.921 381.117 205.495C380.957 205.403 380.774 205.34 380.571 205.316C380.475 205.301 380.378 205.297 380.282 205.297C379.842 205.297 379.374 205.403 378.949 205.509C378.38 205.645 377.82 205.775 377.265 205.901C375.966 206.201 374.706 206.472 373.49 206.719C366.259 208.175 360.423 208.736 355.442 208.736C347.362 208.736 341.519 207.262 335.557 205.759L335.545 205.756L335.537 205.754C329.317 204.187 322.966 202.588 313.809 202.588C308.881 202.588 303.136 203.052 296.157 204.237C296.118 204.242 296.075 204.247 296.031 204.247C295.384 204.247 295.104 203.347 295.717 202.999C299.878 200.604 306.351 197.76 316.753 196.435C319.481 196.086 322.053 195.936 324.51 195.936C331.963 195.936 338.359 197.325 344.953 198.757L344.954 198.757C351.967 200.28 359.203 201.852 368.166 201.852C369.204 201.852 370.266 201.833 371.352 201.789C371.728 201.775 372.1 201.756 372.467 201.731C373.828 201.654 375.122 201.533 376.348 201.378C377.694 201.209 378.964 200.991 380.161 200.74C393.474 197.91 397.919 190.165 401.993 183.059C402.288 182.581 402.047 181.724 401.067 181.724C400.97 181.724 400.869 181.734 400.758 181.749C390.587 185.701 383.101 187.602 376.893 188.361C375.517 188.53 374.209 188.647 372.945 188.709C371.921 188.767 370.927 188.792 369.957 188.792C369.609 188.792 369.266 188.787 368.924 188.782C365.13 188.715 361.646 188.283 357.968 187.826L357.797 187.805C353.144 187.224 348.168 186.605 341.835 186.605C338.301 186.605 334.353 186.799 329.796 187.297C322.903 188.042 317.27 189.353 313.867 190.277C313.799 190.296 313.737 190.306 313.674 190.306C313.07 190.306 312.747 189.474 313.307 189.087C316.329 186.983 320.258 184.878 326.745 183.055C330.033 182.131 334.256 181.879 339.151 181.879C341.692 181.879 344.415 181.949 347.282 182.022L348.228 182.046L348.23 182.046H348.239C351.502 182.13 354.938 182.218 358.502 182.218C361.118 182.218 363.807 182.169 366.539 182.044C367.871 181.986 369.213 181.903 370.565 181.797C371.887 181.7 373.22 181.574 374.557 181.424C383.443 180.438 392.595 178.319 401.342 173.985C411.083 169.152 415.171 163.541 418.613 154.79C419.196 153.558 418.513 152.635 417.751 152.633Z"/>
<path d="M166.011 197.581C159.359 194.592 147.2 189.754 135.485 188.342C132.285 187.95 129.422 187.819 126.647 187.819C124.035 187.819 121.5 187.935 118.851 188.055L118.822 188.056C115.887 188.192 112.803 188.332 109.294 188.332C106.113 188.332 102.584 188.216 98.5054 187.873C97.2649 187.771 95.9761 187.645 94.6294 187.5C93.3792 187.36 92.0759 187.2 90.7195 187.021C83.7155 186.078 75.2827 184.52 64.784 182.01C64.6923 181.986 64.6006 181.976 64.5137 181.976C63.6159 181.976 63.0173 183.132 63.5483 183.969C63.5821 184.032 63.6159 184.08 63.6448 184.129L63.6631 184.157C63.6906 184.2 63.7176 184.241 63.7414 184.293C70.2965 194.093 78.0824 198.302 87.1572 199.729C88.4218 199.932 89.7155 200.077 91.0332 200.179C92.3027 200.271 93.5916 200.324 94.9093 200.338C95.2183 200.348 95.5272 200.348 95.8409 200.348C102.005 200.348 108.681 199.603 115.868 198.8C124.267 197.857 133.371 196.841 143.199 196.841C150.294 196.841 157.762 197.368 165.615 198.844C165.663 198.853 165.712 198.858 165.755 198.858C166.431 198.858 166.687 197.886 166.011 197.581Z"/>
<path d="M174.246 206.22C168.463 204.455 159.113 202.138 149.879 202.138C149.145 202.138 148.417 202.152 147.688 202.181C142.253 202.413 137.575 203.333 132.338 204.363C124.248 205.954 114.826 207.807 99.2102 207.807C97.347 207.807 95.3969 207.783 93.3454 207.72C92.1 207.691 90.8112 207.643 89.4886 207.585C88.2239 207.531 86.9206 207.464 85.5787 207.386C84.0631 207.299 82.4943 207.198 80.8821 207.077C80.87 207.077 80.8579 207.075 80.8459 207.074C80.834 207.073 80.8215 207.072 80.8097 207.072C79.8829 207.072 79.4678 208.334 80.1001 209.036C80.1896 209.078 80.2469 209.153 80.2945 209.215L80.298 209.22C80.3075 209.231 80.3163 209.242 80.3246 209.253L80.3361 209.268C80.3396 209.273 80.3432 209.277 80.3466 209.281C80.3514 209.287 80.3561 209.292 80.3607 209.297C81.7654 210.811 83.1942 212.117 84.652 213.239C85.8346 214.154 87.0365 214.947 88.2577 215.624C89.4596 216.292 90.676 216.853 91.9166 217.312C95.3775 218.604 98.9881 219.141 102.758 219.141C110.785 219.141 119.537 216.722 129.128 214.071L129.147 214.066C140.77 210.856 153.628 207.304 167.923 207.304C169.921 207.304 171.948 207.372 174.005 207.522C174.01 207.522 174.016 207.522 174.022 207.523C174.027 207.523 174.033 207.524 174.038 207.525L174.043 207.525C174.05 207.526 174.056 207.527 174.062 207.527C174.806 207.527 174.989 206.443 174.246 206.22Z"/>
<path d="M184.851 217.017C181.602 215.735 175.993 214.187 167.894 214.187C165.326 214.187 162.516 214.342 159.446 214.71C154.633 215.297 150.435 216.577 145.71 218.018L145.627 218.043L145.606 218.049C136.188 220.921 124.656 224.438 102.077 224.438H101.662C100.755 224.438 100.557 226.136 101.209 226.721L101.469 226.982C108.966 232.09 115.622 233.991 121.936 233.991C130.356 233.991 138.167 230.614 146.57 226.98L146.621 226.958C156.405 222.72 166.991 218.14 180.246 218.14C181.65 218.14 183.084 218.193 184.552 218.304H184.609C185.324 218.304 185.546 217.288 184.851 217.017Z"/>
<path d="M193.713 221.506C191.575 221.235 188.978 221.013 186.227 221.013C183.475 221.013 180.338 221.255 177.49 221.937C173.976 222.774 171.485 223.799 168.656 224.965C163.086 227.268 156.193 230.112 137.498 233.101C135.485 233.363 134.187 236.231 137.952 237.276C141.384 238.234 144.487 238.645 147.36 238.645C155.522 238.645 161.845 235.312 168.753 231.669C175.67 228.017 183.176 224.06 193.713 222.832C194.49 222.74 194.495 221.608 193.713 221.506Z"/>
<path d="M201.75 229.575C200.635 229.454 199.356 229.362 198.009 229.362C195.654 229.362 193.086 229.638 190.798 230.508C188.559 231.403 187.073 232.399 185.385 233.53L185.382 233.532L185.37 233.539C182.013 235.787 177.862 238.567 165.48 242.123C164.177 242.515 163.53 244.604 166.45 245.064C168.676 245.427 170.64 245.596 172.402 245.596C180.303 245.596 184.082 242.259 188.136 238.68L188.138 238.679C191.589 235.631 195.243 232.405 201.813 230.891C202.551 230.721 202.498 229.657 201.75 229.575Z"/>
<path d="M224.871 217.956C224.162 216.427 223.452 214.899 222.936 213.341C221.633 209.79 222.424 206.245 223.216 202.699C223.645 200.764 224.075 198.824 224.167 196.889C224.167 193.678 222.316 191.106 220.535 188.632L220.358 188.385C220.064 187.977 219.772 187.572 219.494 187.166C219.34 186.954 219.248 186.837 219.171 186.837C219.079 186.837 219.011 186.983 218.91 187.297C217.824 191.989 218.751 196.933 220.764 201.262C220.822 201.393 220.841 201.538 220.812 201.678L220.617 202.594C220.098 205.022 219.577 207.46 219.687 209.945C219.847 213.283 221.208 216.258 222.569 219.233L222.585 219.267C223.458 221.176 224.329 223.081 224.881 225.091C225.506 227.511 225.173 229.926 224.836 232.365L224.817 232.503C224.634 233.835 224.451 235.166 224.427 236.512C224.427 236.874 224.717 237.155 225.065 237.155C225.077 237.155 225.089 237.155 225.101 237.154C225.113 237.153 225.126 237.153 225.139 237.151C225.146 237.15 225.154 237.15 225.161 237.149C225.167 237.148 225.173 237.147 225.179 237.146C225.193 237.143 225.208 237.141 225.222 237.137C225.261 237.128 225.3 237.115 225.34 237.097C225.533 237.034 225.596 236.903 225.663 236.71C225.866 235.912 226.098 235.123 226.334 234.33L226.345 234.292C226.93 232.307 227.517 230.316 227.608 228.22C227.637 227.896 227.647 227.577 227.647 227.258C227.647 223.966 226.266 220.976 224.892 218.001L224.871 217.956Z"/>
<path d="M243.499 201.756C243.47 201.606 243.489 201.456 243.557 201.32C245.628 197.184 246.617 192.246 245.594 187.689C245.555 187.481 245.381 187.355 245.198 187.355C245.087 187.355 244.976 187.399 244.879 187.495L244.657 187.718C243.253 189.125 241.92 190.465 240.873 192.613C240.871 192.618 240.869 192.623 240.866 192.629L240.863 192.635L240.855 192.653C240.852 192.658 240.85 192.664 240.847 192.669C240.844 192.676 240.842 192.683 240.839 192.691C240.26 194.195 240.385 195.39 240.521 196.647V196.662C240.525 196.705 240.53 196.754 240.535 196.797C239.328 195.506 237.011 193.697 233.328 193.368C233.285 193.363 233.237 193.363 233.193 193.358C233.184 193.358 233.175 193.357 233.165 193.356C233.158 193.355 233.15 193.354 233.142 193.354C233.138 193.353 233.134 193.353 233.13 193.353C232.397 193.353 232.218 194.422 232.947 194.659C233.859 194.954 234.801 195.409 235.703 196.077C235.766 196.125 235.824 196.183 235.867 196.251C236.012 196.468 236.118 196.705 236.176 196.957C236.719 199.645 235.242 202.962 234.081 205.569L234.067 205.601C233.565 206.719 233.126 207.701 232.933 208.446C232.926 208.471 232.921 208.494 232.918 208.514C232.914 208.537 232.912 208.557 232.91 208.575C232.909 208.591 232.908 208.606 232.908 208.62L232.879 208.808C232.382 210.468 232.155 212.224 232.093 213.931V239.38C232.093 239.384 232.093 239.388 232.092 239.392L232.092 239.398C232.092 239.406 232.091 239.414 232.09 239.422C232.089 239.438 232.086 239.454 232.083 239.47C232.08 239.485 232.077 239.5 232.073 239.516C231.856 240.498 232.735 241.586 233.705 241.586C233.879 241.586 234.057 241.552 234.236 241.475C234.492 241.397 234.767 241.325 235.047 241.252L235.056 241.25C236.937 240.747 239.097 240.17 239.492 238.016C239.686 236.347 239.512 234.659 239.338 232.976C239.222 231.829 239.106 230.683 239.101 229.546V229.512C238.73 225.633 240.308 222.198 241.891 218.754L241.906 218.722C243.296 215.69 244.691 212.647 244.749 209.292C244.749 207.217 244.281 205.18 243.827 203.212C243.716 202.723 243.605 202.235 243.499 201.756Z"/>
<path d="M223.419 305.83C223.356 305.786 223.288 305.757 223.221 305.733C222.632 305.564 221.966 305.506 221.29 305.448C219.653 305.312 217.983 305.167 217.351 303.353C215.739 299.038 214.204 294.699 212.674 290.37C211.496 287.032 210.318 283.699 209.106 280.376C209.035 280.236 208.976 280.08 208.914 279.916L208.914 279.914C208.901 279.88 208.888 279.845 208.875 279.81L208.873 279.806C208.642 279.174 208.395 278.499 207.702 278.499C207.596 278.499 207.48 278.514 207.354 278.548C206.572 278.877 206.316 279.399 206.572 280.178C209.039 291.41 211.506 302.57 214.04 313.729C214.146 314.068 214.223 314.431 214.3 314.798L214.305 314.819C214.516 315.795 214.736 316.811 215.531 317.517C216.313 318.392 217.486 318.823 218.664 318.823C220.025 318.823 221.386 318.247 222.154 317.125C222.53 316.622 222.772 316.051 222.95 315.456C223.124 314.861 223.23 314.232 223.336 313.604C223.452 312.917 223.573 312.225 223.781 311.577C223.853 311.219 223.959 310.837 224.07 310.445C224.529 308.795 225.04 306.947 223.419 305.83Z"/>
<path d="M227.092 280.768C224.798 273.814 222.608 266.802 220.424 259.809L220.358 259.6V259.59H220.353C219.103 255.575 217.853 251.57 216.584 247.584C216.579 247.56 216.569 247.536 216.555 247.512C216.386 247.158 216.27 246.776 216.154 246.385C216.101 246.206 216.048 246.027 215.99 245.848C215.84 245.403 215.464 245.17 215.082 245.17C214.788 245.17 214.498 245.306 214.3 245.586C214.189 245.727 214.091 245.879 213.993 246.032L213.943 246.109C213.837 246.278 213.726 246.452 213.6 246.612L213.571 246.655C210.468 251.415 210.217 257.863 213.002 262.817C214.522 265.816 217.095 268.002 219.571 270.107L219.755 270.261C220.794 272.277 221.739 274.353 222.683 276.425L222.684 276.426L222.733 276.535C223.53 278.291 224.326 280.038 225.176 281.75C225.195 281.794 225.214 281.837 225.224 281.885C225.34 282.355 225.605 282.485 225.933 282.485C225.945 282.485 225.957 282.485 225.969 282.485C226 282.484 226.033 282.483 226.067 282.48C226.086 282.478 226.106 282.476 226.126 282.474C226.144 282.472 226.162 282.469 226.18 282.466C226.962 282.335 227.353 281.489 227.092 280.768Z"/>
<path d="M240.728 44.9545L238.025 46.6766C235.201 48.4857 233.753 49.9369 233.7 52.3991V52.52L243.436 52.728C243.759 52.7329 244.025 52.9505 244.015 53.2746L243.967 55.5288C243.962 55.8529 243.687 56.1141 243.363 56.1093L230.813 55.8432C230.49 55.8384 230.229 55.5627 230.234 55.2386L230.297 52.3314C230.364 49.071 232.469 46.2364 234.96 44.6546L237.933 42.7584C240.245 41.2927 240.699 40.8283 240.733 39.1981C240.766 37.597 239.772 36.9826 237.315 36.9294C235.568 36.8907 233.169 37.0794 231.388 37.2487H231.33C231.006 37.2438 230.804 36.9681 230.808 36.644L230.847 34.8639C230.852 34.5688 231.122 34.3947 231.421 34.3124C232.971 33.9303 235.462 33.6546 237.388 33.6981C242.567 33.8094 244.633 35.604 244.551 39.2803C244.498 41.7425 243.19 43.3775 240.728 44.9545Z"/>
<path d="M205.607 58.1361C204.931 58.3828 203.468 58.7843 202.247 59.0117C199.365 59.5583 197.463 58.8907 196.826 55.5095L194.056 40.8186C193.998 40.4993 194.22 40.243 194.529 40.1269L197.145 39.1497L197.232 39.1352C197.492 39.0869 197.782 39.3336 197.835 39.6238L198.376 42.4826L202.479 41.7087C202.797 41.6458 203.111 41.8586 203.169 42.1827L203.492 43.9048C203.55 44.2241 203.338 44.5385 203.019 44.5965L198.916 45.3705L200.693 54.7839C200.915 55.9497 201.475 56.0561 202.725 55.8191L205.023 55.3837C205.399 55.3111 205.66 55.4127 205.718 55.7078L206.06 57.517C206.113 57.8072 205.973 58.0152 205.607 58.1458V58.1361Z"/>
<path d="M181.911 63.3652C183.624 63.3459 186.062 62.8186 187.172 62.5042L187.177 62.509C190.908 61.4642 192.212 58.973 191.517 56.4866C191.111 55.0306 190.368 53.6955 187.568 52.9118L183.195 51.6735C182.365 51.4461 181.853 51.2768 181.727 50.8221C181.481 49.9369 181.993 49.4532 183.359 49.071C184.981 48.6163 187.327 48.2052 188.157 48.0939C188.171 48.0891 188.186 48.0854 188.2 48.0818C188.215 48.0782 188.229 48.0745 188.244 48.0697C188.529 47.9923 188.673 47.7359 188.577 47.3925L188.114 45.7381C188.022 45.3947 187.785 45.2157 187.418 45.2254C185.879 45.3173 184.493 45.4286 182.186 46.0767C178.566 47.0926 177.171 49.0227 177.967 51.8815C178.431 53.5407 179.826 54.6871 181.462 55.1515L186.038 56.4527C187.11 56.7672 187.549 57.0139 187.698 57.5557C187.916 58.3296 187.824 58.9972 186.057 59.4954C185.203 59.7373 182.596 60.3129 181.182 60.5257C181.176 60.5278 181.17 60.5297 181.163 60.5314C181.158 60.5329 181.153 60.5343 181.147 60.5357L181.139 60.5378C181.124 60.5415 181.11 60.5451 181.095 60.5499C180.781 60.637 180.646 60.9224 180.709 61.1498L181.187 62.8622C181.283 63.2056 181.544 63.3749 181.911 63.3652Z"/>
<path fill-rule="evenodd" clip-rule="evenodd" d="M164.847 62.5719L173.821 59.0214C174.207 58.8666 174.275 58.5521 174.101 58.1119L173.493 56.5688C171.871 52.4571 168.415 50.4739 164.176 52.1524C159.962 53.8164 158.635 57.4686 160.329 61.7738L161.135 63.8151C163.279 69.2522 167.777 69.1942 170.529 68.1058C173.005 67.1238 174.024 66.5627 175.684 65.5227C176.147 65.2421 176.152 65.0148 175.978 64.5746L175.259 62.7557C175.153 62.48 174.878 62.4268 174.603 62.5381C174.574 62.5526 174.55 62.5622 174.521 62.5719C173.406 63.1379 171.571 64.057 169.563 64.8503C166.923 65.8951 165.514 64.2553 164.881 62.6542L164.847 62.5719ZM165.417 55.3015C167.126 54.6242 168.796 55.3982 169.645 57.5508V57.5557L169.689 57.6669L163.853 59.9743L163.81 59.863C162.95 57.6814 163.708 55.9787 165.417 55.3015Z"/>
<path d="M211.389 57.3428L214.006 57.0284H214.01C214.334 56.9897 214.565 56.6946 214.527 56.3705L214.126 53.0424C214.088 52.7183 213.793 52.5152 213.47 52.5539L210.854 52.8683C210.53 52.907 210.294 53.1731 210.332 53.4972L210.733 56.8252C210.771 57.1493 211.066 57.3815 211.389 57.3428Z"/>
<path fill-rule="evenodd" clip-rule="evenodd" d="M251.256 46.7249C250.232 54.0389 252.752 57.1783 257.502 57.8459H257.506C262.256 58.5134 265.539 56.1867 266.562 48.8727L266.866 46.7008C267.885 39.3868 265.37 36.2183 260.62 35.5508C255.87 34.8832 252.583 37.239 251.56 44.553L251.256 46.7249ZM260.157 38.8692C262.179 39.1497 263.531 40.8089 262.787 46.1251H262.792L262.488 48.2971C261.745 53.6133 259.992 54.8032 257.97 54.5227C255.947 54.2421 254.591 52.6119 255.334 47.2957L255.638 45.1238C256.377 39.8076 258.134 38.5886 260.157 38.8692Z"/>
<path d="M283.519 51.7461L280.488 52.7861C277.321 53.8793 275.569 54.9532 274.942 57.3331L274.913 57.4492L284.33 59.9404C284.644 60.0227 284.851 60.2936 284.765 60.608L284.19 62.7896C284.108 63.104 283.78 63.2927 283.466 63.2104L271.331 59.9985C271.017 59.9162 270.829 59.5873 270.911 59.2729L271.65 56.4624C272.48 53.3085 275.188 51.0495 277.983 50.0965L281.313 48.9549C283.901 48.0745 284.451 47.7311 284.871 46.1541C285.281 44.6062 284.456 43.7742 282.081 43.1453C280.391 42.7003 278.012 42.3133 276.245 42.0618C276.226 42.0553 276.206 42.0505 276.187 42.0473C275.873 41.965 275.738 41.6506 275.825 41.3362L276.279 39.6141C276.356 39.3287 276.655 39.2223 276.964 39.2126C278.557 39.2029 281.048 39.527 282.906 40.0156C287.917 41.341 289.5 43.571 288.563 47.1264C287.936 49.5064 286.28 50.7883 283.519 51.7461Z"/>
<path d="M291.233 65.2276C292.647 66.2386 294.206 67.2109 296.243 68.0187L296.234 68.0332C300.139 69.586 303.87 68.9281 305.497 64.8213L305.728 64.2408C306.423 62.4752 306.206 60.5354 305.019 59.1084C306.824 58.9004 308.238 57.8991 309.001 55.969L309.175 55.5288C310.821 51.3639 308.48 48.6792 304.517 47.1023C302.48 46.2896 300.684 45.9268 298.961 45.6898C298.666 45.6317 298.343 45.7285 298.232 46.0042L297.556 47.7118C297.435 48.0117 297.58 48.2922 297.855 48.4035C297.863 48.4067 297.872 48.4099 297.88 48.4131C297.889 48.4163 297.899 48.4196 297.908 48.4228C298.379 48.5566 298.795 48.6726 299.172 48.7779C300.814 49.2364 301.73 49.4922 303.32 50.1256C305.849 51.1366 305.907 52.5926 305.352 54.0002L305.178 54.4404C304.599 55.9061 303.667 56.9703 301.577 56.1383L296.707 54.2034C296.407 54.0825 296.098 54.2131 295.978 54.5178L295.292 56.2544C295.172 56.5543 295.302 56.8639 295.606 56.9848L300.476 58.9198C302.567 59.7518 302.484 61.2513 301.905 62.7122L301.678 63.2927C300.916 65.2228 299.67 65.8758 297.44 64.9906C296.123 64.4633 294.423 63.5974 292.338 62.5139C292.322 62.5042 292.304 62.4961 292.285 62.4897C292.01 62.3784 291.715 62.4849 291.595 62.7896L290.919 64.4972C290.808 64.7729 290.982 65.0631 291.233 65.2276Z"/>
<path d="M145.312 56.1553C146.724 56.6497 147.468 58.1975 146.975 59.6124L142.815 71.5425L154.72 75.7113C156.132 76.2057 156.876 77.7535 156.383 79.1683C155.89 80.5832 154.345 81.3294 152.933 80.835L138.472 75.771C137.06 75.2766 136.316 73.7289 136.809 72.314L141.862 57.822C142.356 56.4071 143.9 55.6609 145.312 56.1553Z"/>
<path d="M322.455 59.6124C321.962 58.1975 322.706 56.6497 324.118 56.1553C325.53 55.6609 327.075 56.4071 327.568 57.822L332.621 72.314C333.115 73.7289 332.37 75.2766 330.958 75.771L316.497 80.835C315.085 81.3294 313.541 80.5832 313.047 79.1683C312.554 77.7535 313.298 76.2057 314.71 75.7113L326.615 71.5425L322.455 59.6124Z"/>
<path d="M260.533 146.62C259.983 146.228 259.249 146.223 258.694 146.596L249.368 152.754C249.011 152.996 248.76 153.368 248.678 153.794C248.591 154.215 248.678 154.655 248.924 155.018C249.46 155.821 249.745 156.754 249.745 157.722C249.745 160.416 247.558 162.607 244.869 162.607C242.181 162.607 239.994 160.416 239.994 157.722C239.994 156.14 240.776 154.645 242.079 153.726C242.813 153.213 242.992 152.197 242.475 151.462L234.824 140.51C234.221 139.64 232.768 139.64 232.165 140.51L224.514 151.462C224.002 152.197 224.176 153.213 224.91 153.726C226.213 154.645 226.995 156.14 226.995 157.722C226.995 160.416 224.808 162.607 222.12 162.607C219.431 162.607 217.245 160.416 217.245 157.722C217.245 156.754 217.524 155.821 218.065 155.018C218.306 154.66 218.393 154.219 218.311 153.794C218.229 153.368 217.978 152.996 217.621 152.754L208.295 146.596C207.735 146.223 207.006 146.228 206.456 146.62C205.906 147.007 205.655 147.694 205.814 148.347L212.418 174.396C212.62 175.218 213.412 175.765 214.261 175.605C227.024 173.477 239.956 173.477 252.718 175.605C252.805 175.62 252.897 175.629 252.984 175.629C253.717 175.629 254.379 175.131 254.562 174.396L261.165 148.347C261.325 147.694 261.074 147.012 260.523 146.62H260.533Z"/>
<path d="M119.245 89.2595C120.843 87.99 121.112 85.6625 119.845 84.0608C118.578 82.4591 116.256 82.1898 114.658 83.4593C98.7674 96.0808 84.9779 111.151 73.8042 128.107C72.6803 129.812 73.1488 132.108 74.8506 133.234C76.5524 134.36 78.8431 133.891 79.967 132.185C90.7098 115.883 103.968 101.394 119.245 89.2595Z"/>
<path d="M347.425 84.0754C346.158 85.6769 346.426 88.0045 348.024 89.2742C363.341 101.443 376.627 115.979 387.383 132.335C388.505 134.042 390.795 134.513 392.498 133.389C394.201 132.264 394.672 129.969 393.549 128.262C382.362 111.25 368.544 96.1319 352.613 83.4746C351.014 82.2048 348.692 82.4738 347.425 84.0754Z"/>
<path d="M414.319 198.331C413.926 196.325 415.23 194.38 417.231 193.987C419.232 193.593 421.173 194.9 421.566 196.905C426.683 223.028 426.322 249.933 420.504 275.908C420.058 277.902 418.083 279.156 416.093 278.709C414.103 278.261 412.852 276.282 413.298 274.287C418.891 249.314 419.239 223.447 414.319 198.331Z"/>
<path d="M50.0199 193.987C52.0211 194.38 53.3249 196.325 52.9321 198.331C48.0122 223.447 48.3598 249.314 53.9528 274.287C54.3994 276.282 53.1483 278.261 51.1583 278.709C49.1684 279.156 47.1932 277.902 46.7466 275.908C40.9294 249.933 40.5678 223.028 45.685 196.905C46.0779 194.9 48.0186 193.593 50.0199 193.987Z"/>
<path d="M45.1007 314.708C46.0546 317.043 48.7833 322.346 49.7657 324.001L49.7752 323.991C50.7955 325.732 51.7304 326.269 53.8849 325.389L82.3017 313.743C82.781 313.548 82.9566 312.963 82.7572 312.478L80.4224 306.756C80.2231 306.271 79.7106 306.019 79.2265 306.219L53.6191 316.715C52.8313 315.293 51.8205 313.191 51.2083 311.693C49.5948 307.731 50.9094 305.805 55.3892 303.97L75.0219 295.923C75.5059 295.723 75.6958 295.186 75.4964 294.701L73.1426 288.932C72.9433 288.447 72.4308 288.195 71.9467 288.395L52.3093 296.441C42.2961 300.545 41.9212 306.918 45.1007 314.708Z"/>
<path d="M59.9498 343.138L63.3476 348.526V348.521C63.6276 348.964 64.1924 349.059 64.6337 348.778L92.8702 330.882C93.3115 330.602 93.4302 330.079 93.1502 329.636L89.7523 324.248C89.4723 323.811 88.974 323.73 88.5327 324.01L60.2962 341.906C59.8549 342.187 59.6698 342.696 59.9498 343.138Z"/>
<path d="M87.593 378.725C86.6866 378.193 84.5179 376.428 82.3349 373.922C77.5893 368.477 75.952 360.815 84.4609 353.368L88.9645 349.425C97.4734 341.978 104.791 344.665 109.537 350.11C111.725 352.616 113.177 355.008 113.58 355.978C113.874 356.606 113.983 357.015 113.48 357.453L110.011 360.487C109.584 360.863 109.11 360.896 108.673 360.397L108.611 360.325L108.293 359.894C107.24 358.468 105.829 356.557 104.279 354.775C102.124 352.302 99.1202 351.461 94.365 355.622L89.8614 359.564C85.1063 363.726 85.5382 366.822 87.6927 369.295C89.2601 371.091 90.9737 372.761 92.246 374L92.2466 374.001C92.3684 374.12 92.4864 374.235 92.5997 374.345L92.6614 374.416C93.098 374.916 92.9983 375.382 92.5712 375.758L89.1021 378.792C88.6039 379.229 88.172 379.101 87.593 378.725Z"/>
<path d="M117.695 404.606L122.967 408.168L122.962 408.173C123.394 408.463 123.949 408.32 124.239 407.887L142.908 380.123C143.202 379.686 143.098 379.158 142.666 378.868L137.394 375.306C136.962 375.016 136.473 375.144 136.183 375.577L117.514 403.341C117.225 403.774 117.263 404.316 117.695 404.606Z"/>
<path d="M171.097 401.263L164.121 398.019L152.494 423.13C152.276 423.605 151.706 423.81 151.232 423.591L145.594 420.97C145.119 420.752 144.911 420.181 145.134 419.705L156.76 394.6L149.742 391.337C149.267 391.119 149.039 390.591 149.262 390.115L151.322 385.673C151.54 385.198 152.091 385.036 152.561 385.255L173.911 395.185C174.386 395.404 174.656 395.95 174.438 396.426L172.378 400.868C172.16 401.343 171.567 401.486 171.092 401.267L171.097 401.263Z"/>
<path fill-rule="evenodd" clip-rule="evenodd" d="M215.891 440.455L222.112 441.192V441.197C222.63 441.258 223.104 440.883 223.166 440.364L226.018 416.281C227.024 407.778 222.16 405.286 215.843 404.535L212.403 404.126C206.091 403.374 200.729 404.649 199.723 413.152L196.87 437.235C196.809 437.753 197.184 438.229 197.701 438.291L203.922 439.028C204.44 439.09 204.867 438.709 204.929 438.191L206.286 426.715L216.513 427.933L215.155 439.409C215.094 439.927 215.374 440.393 215.891 440.455ZM215.018 411.516C217.656 411.83 218.316 412.724 218.007 415.321L217.305 421.27L207.078 420.053L207.781 414.103C208.089 411.507 208.986 410.798 211.577 411.107L215.018 411.516Z"/>
<path d="M261.748 439.204C260.785 439.618 258.08 440.326 254.767 440.602C247.577 441.206 240.45 437.991 239.505 426.711L239.002 420.737C238.058 409.457 244.55 405.139 251.739 404.535C255.052 404.254 257.833 404.497 258.853 404.749C259.532 404.882 259.926 405.039 259.983 405.705L260.367 410.303C260.414 410.874 260.163 411.273 259.499 411.331C259.499 411.331 259.482 411.331 259.459 411.332C259.443 411.334 259.423 411.336 259.404 411.34L259.139 411.341C259.011 411.342 258.879 411.342 258.744 411.343H258.742C256.988 411.348 254.674 411.356 252.371 411.549C249.106 411.825 246.647 413.751 247.179 420.053L247.682 426.026C248.209 432.327 250.956 433.816 254.217 433.54C256.541 433.344 258.849 432.959 260.588 432.669L260.589 432.669C260.795 432.634 260.994 432.601 261.183 432.57C261.204 432.57 261.225 432.568 261.242 432.566C261.264 432.563 261.278 432.56 261.278 432.56C261.938 432.503 262.256 432.86 262.303 433.431L262.688 438.029C262.745 438.695 262.384 438.961 261.738 439.209L261.748 439.204Z"/>
<path fill-rule="evenodd" clip-rule="evenodd" d="M298.218 430.996L304.221 429.207V429.212C304.724 429.06 305.009 428.527 304.862 428.028L297.962 404.777C295.527 396.573 290.075 396.212 283.976 398.029L280.654 399.018C274.561 400.835 270.143 404.135 272.577 412.339L279.478 435.59C279.629 436.094 280.161 436.379 280.659 436.232L286.662 434.443C287.161 434.296 287.403 433.773 287.256 433.274L283.967 422.197L293.838 419.254L297.127 430.33C297.278 430.829 297.72 431.143 298.218 430.996ZM285.979 404.772C288.523 404.011 289.481 404.573 290.226 407.079V407.074L291.93 412.819L282.059 415.763L280.355 410.018C279.61 407.512 280.156 406.508 282.657 405.762L285.979 404.772Z"/>
<path fill-rule="evenodd" clip-rule="evenodd" d="M332.776 416.253C329.34 418.184 325.472 419.919 323.612 420.585C322.758 420.904 322.131 420.761 321.6 419.805L306.262 392.384C305.73 391.428 305.934 390.824 306.651 390.258C308.184 389.012 311.686 386.615 315.122 384.684C323.36 380.057 330.763 381.621 335.661 390.377L338.655 395.727C343.553 404.482 341.019 411.625 332.78 416.253H332.776ZM328.581 394.353C325.448 388.75 322.212 388.608 318.487 390.7C317.452 391.28 316.152 392.065 315.592 392.436L326.426 411.811C327.029 411.526 328.376 410.822 329.411 410.242C333.136 408.149 334.702 405.305 331.57 399.708L328.576 394.357L328.581 394.353Z"/>
<path d="M375.37 384.417L375.5 384.266L375.491 384.27C375.928 383.762 375.956 383.357 375.553 382.891L372.658 379.553C372.316 379.158 371.714 379.115 371.32 379.458L364.049 385.792C362.365 387.262 361.259 387.214 359.641 385.35L356.338 381.545L365.615 373.465C366.009 373.123 366.052 372.519 365.71 372.124L362.754 368.714C362.412 368.32 361.809 368.277 361.416 368.619L352.138 376.699L349.305 373.432C347.686 371.568 347.796 370.46 349.48 368.995L356.751 362.66C357.144 362.318 357.187 361.714 356.845 361.319L353.951 357.981C353.547 357.515 353.177 357.519 352.612 357.886L352.385 358.032C350.984 358.938 348.96 360.245 345.295 363.44C340.677 367.464 337.554 372.2 343.221 378.735L353.557 390.653C359.228 397.182 364.334 394.809 368.956 390.786C372.673 387.546 374.277 385.684 375.37 384.417Z"/>
<path d="M407.7 345.373L403.989 350.433C403.737 350.78 403.196 350.795 402.774 350.486L386.828 338.739C386.563 338.544 386.439 338.629 386.382 338.706C386.297 338.82 386.321 338.953 386.425 339.21L390.207 347.304C390.468 347.908 390.378 348.436 390.013 348.93L387.763 351.998C387.398 352.497 386.928 352.74 386.268 352.668L377.432 351.47C377.157 351.446 377.024 351.465 376.938 351.579C376.882 351.655 376.834 351.798 377.105 351.998L393.05 363.74C393.472 364.049 393.619 364.572 393.368 364.914L389.657 369.975C389.434 370.279 389.064 370.54 388.646 370.231L362.07 350.657C361.268 350.067 361.192 349.125 361.781 348.317L364.424 344.717C365.013 343.913 365.791 343.656 366.693 343.789L381.893 345.953C382.31 346.025 382.586 346.053 382.7 345.896C382.814 345.744 382.704 345.487 382.51 345.107L375.913 331.215C375.515 330.393 375.529 329.575 376.117 328.771L378.761 325.171C379.349 324.367 380.308 324.186 381.11 324.776L407.647 344.322C408.07 344.631 407.927 345.059 407.704 345.368L407.7 345.373Z"/>
<path d="M411.116 307.037L396.253 289.607L396.239 289.612C396.146 289.473 396.022 289.42 395.893 289.364L395.883 289.36C395.532 289.213 395.204 289.384 395.038 289.778L392.347 296.175C392.162 296.612 392.404 297.021 392.722 297.364L402.28 307.698L388.205 308.098C387.739 308.107 387.298 308.178 387.113 308.616L384.403 315.055C384.242 315.45 384.346 315.807 384.698 315.954C384.83 316.011 384.963 316.068 385.129 316.035L407.961 314.532L419.768 319.521C420.247 319.725 420.769 319.583 420.973 319.102L423.446 313.229C423.65 312.744 423.403 312.23 422.923 312.026L411.116 307.037Z"/>
<path fill-rule="evenodd" clip-rule="evenodd" d="M145.882 451.505C173.507 462.466 202.767 468 232.998 468C236.183 468 239.382 467.937 242.587 467.816C300.979 465.577 356.055 441.622 397.673 400.375C439.258 359.156 463.764 304.296 466.68 245.891C468.398 211.411 463.19 178.13 451.19 146.978C439.61 116.914 422.267 90.1734 399.643 67.501C377.018 44.8286 350.335 27.4482 320.335 15.8436C289.249 3.81804 256.044 -1.4014 221.637 0.320673C163.361 3.2424 108.613 27.8062 67.4823 69.4795C26.3224 111.187 2.41912 166.38 0.184221 224.897C-1.10459 258.598 4.37405 291.207 16.4609 321.807C28.1229 351.334 45.3794 377.678 67.7574 400.099C90.1354 422.52 116.418 439.818 145.882 451.505ZM222.023 8.05551C226.184 7.84267 230.316 7.74108 234.434 7.74108C295.611 7.74108 351.952 30.6505 394.188 72.9672C439.263 118.138 462.268 179.412 458.971 245.499C453.189 361.381 358.015 455.636 242.297 460.081C239.179 460.202 236.085 460.26 232.99 460.26C172.093 460.26 115.656 437.153 73.2216 394.628C28.6297 349.946 5.436 289.77 7.90259 225.192C12.3338 109.228 106.388 13.8506 222.023 8.05551Z"/>
</mask>
<path d="M334.276 335.004C339.447 329.821 344.164 324.327 348.411 318.566C358.083 305.4 365.413 290.686 370.104 275.085C373.356 264.161 375.294 252.81 375.856 241.223L375.977 241.177C375.986 241.006 375.994 240.834 376.002 240.663C376.099 238.621 377.829 237.045 379.866 237.142C381.904 237.239 383.476 238.973 383.379 241.014C381.571 279.118 365.367 315.106 338.055 341.678C310.743 368.249 274.367 383.414 236.307 384.097C198.247 384.779 161.354 370.927 133.11 345.352C104.867 319.777 87.3889 284.393 84.2219 246.378C84.0522 244.341 85.5622 242.552 87.5945 242.382C89.6269 242.212 91.412 243.725 91.5816 245.762C94.5927 281.904 111.21 315.545 138.062 339.861C164.914 364.176 199.99 377.345 236.175 376.697C270.869 376.075 304.092 362.794 329.658 339.434C331.223 337.996 332.763 336.519 334.276 335.004Z" stroke="url(#paint0_linear_795_8195)" stroke-opacity="0.24" stroke-width="2" mask="url(#path-1-inside-1_795_8195)"/>
<path d="M271.2 96.0881C280.615 98.6666 289.772 102.216 298.519 106.698C317.911 116.635 334.772 130.893 347.809 148.378C349.03 150.015 351.344 150.35 352.978 149.127C354.611 147.904 354.946 145.585 353.725 143.948C340.013 125.557 322.278 110.56 301.881 100.108C281.484 89.6563 258.969 84.0276 236.063 83.6544C213.158 83.2811 190.471 88.1731 169.746 97.9548C149.021 107.736 130.809 122.148 116.507 140.082C115.234 141.678 115.493 144.007 117.086 145.283C118.679 146.559 121.003 146.299 122.276 144.702C123.669 142.956 125.101 141.244 126.571 139.569C128.541 137.335 130.591 135.15 132.72 133.018C139.034 126.69 145.812 121.043 152.972 116.102C159.275 111.767 165.935 107.934 172.893 104.65C178.341 102.079 183.931 99.8635 189.628 98.0106C203.609 93.5001 218.328 91.1798 233.377 91.1798C241.564 91.1798 249.861 91.8667 258.178 93.2646C262.593 94.0059 266.937 94.9503 271.2 96.0881Z" stroke="url(#paint1_linear_795_8195)" stroke-opacity="0.24" stroke-width="2" mask="url(#path-1-inside-1_795_8195)"/>
<path d="M179.893 199.961C179.758 200.184 179.502 200.285 179.251 200.285C179.136 200.285 179.02 200.261 178.918 200.222C173.98 197.392 169.298 194.171 164.206 190.659C163.79 190.374 163.372 190.086 162.951 189.797L161.907 189.08C161.521 188.815 161.132 188.548 160.74 188.279C155.252 184.578 144.082 179.664 122.052 179.664C119.59 179.664 116.993 179.727 114.251 179.857C113.112 179.915 111.924 179.988 110.684 180.065C107.783 180.244 104.621 180.433 101.252 180.481C101.003 180.481 100.754 180.484 100.503 180.486L100.499 180.486C100.244 180.488 99.9886 180.491 99.7315 180.491C98.8916 180.491 98.0421 180.481 97.178 180.457C95.8506 180.423 94.499 180.355 93.1185 180.254C83.3294 179.523 72.3383 176.853 61.1445 169.152C56.2113 165.824 51.2105 160.145 48.6136 154.858C48.3529 154.399 48.2274 153.813 48.1598 153.228C48.1067 152.734 48.5556 152.333 49.048 152.333C49.1397 152.333 49.2363 152.348 49.328 152.377C71.3343 161.258 86.4814 164.755 99.2005 166.477C100.581 166.666 101.928 166.835 103.255 166.985C104.631 167.14 105.982 167.28 107.315 167.406C110.324 167.689 113.242 167.912 116.139 168.133L116.437 168.156C125.677 168.861 134.725 169.55 145.936 172.156C157.24 174.81 170.877 189.462 177.366 196.436L177.577 196.662L177.579 196.664L177.583 196.669C178.489 197.642 179.245 198.456 179.826 199.047C180.087 199.245 180.087 199.637 179.893 199.961Z" stroke="url(#paint2_linear_795_8195)" stroke-opacity="0.24" stroke-width="2" mask="url(#path-1-inside-1_795_8195)"/>
<path d="M417.751 152.633C417.583 152.633 417.415 152.677 417.256 152.768C401.728 162.917 385.099 167.087 369.464 169.191C368.103 169.37 366.752 169.539 365.41 169.689C364.044 169.849 362.687 169.989 361.34 170.12C356.48 170.599 351.764 170.932 347.25 171.252C334.908 172.122 324.105 172.887 316.232 176.137C311.719 177.966 303.938 183.867 293.883 191.501L292.797 192.323C289.061 195.167 285.793 197.789 282.67 200.295C276.173 205.509 270.284 210.231 262.083 215.431C258.578 217.583 255.851 221.042 254.553 224.96C252.409 231.355 249.296 237.426 245.14 242.781C244.397 243.869 243.595 244.938 242.789 246.012C240.839 248.6 238.865 251.222 237.673 254.269C237.093 255.914 236.751 257.593 236.524 259.295C236.298 260.994 236.186 262.716 236.076 264.434L236.075 264.447L236.043 264.921C235.987 265.767 235.931 266.611 235.858 267.451C235.78 270.005 235.549 272.559 235.317 275.113C235.153 276.932 234.989 278.756 234.883 280.575C235.037 281.126 235.462 281.378 235.901 281.378C236.398 281.378 236.92 281.058 237.089 280.507C237.812 279.318 238.472 278.091 239.132 276.864L239.135 276.859L239.18 276.777C240.478 274.376 241.777 271.974 243.552 269.86C243.692 269.691 243.875 269.618 244.049 269.618C244.464 269.618 244.86 270.02 244.691 270.513L243.605 273.648C243.591 273.696 243.581 273.744 243.576 273.797C242.722 282.05 241.877 290.297 241.032 298.55L241.03 298.571C239.303 315.417 237.575 332.263 235.79 349.109C235.679 349.859 235.563 351.33 236.485 351.475C236.514 351.48 236.543 351.48 236.576 351.48H236.577C236.77 351.48 236.963 351.388 237.084 351.233C237.679 350.462 238.033 349.57 238.387 348.681L238.411 348.621C238.508 348.369 238.609 348.118 238.71 347.871C241.268 341.503 243.825 335.199 246.382 328.895L246.892 327.637C248.191 324.042 248.712 320.192 247.93 316.472C247.621 314.349 246.897 312.404 246.149 310.411C246.135 310.373 246.121 310.336 246.107 310.299L246.098 310.276C246.081 310.231 246.064 310.186 246.048 310.14C245.531 308.771 245.463 307.204 245.922 305.767C247.994 299.009 250.007 292.305 252.018 285.607L252.019 285.603L252.212 284.962V284.947C253.322 281.619 253.645 278.025 253.582 274.567C253.558 272.724 253.302 270.934 252.926 269.173C252.567 267.49 252.103 265.838 251.638 264.184L251.536 263.819L251.534 263.812L251.534 263.811L251.532 263.804C251.216 262.684 250.902 261.567 250.619 260.437C250.604 260.374 250.595 260.306 250.599 260.239C250.666 259.208 250.615 257.984 250.558 256.61L250.556 256.552C250.358 251.889 250.088 245.475 253.906 238.8C255.537 235.897 258.501 234.093 261.745 234.093C261.861 234.093 261.972 234.093 262.083 234.098C267.417 234.32 270.182 236.923 273.137 239.709C276.709 243.081 280.565 246.713 289.582 246.713C290.813 246.713 292.141 246.646 293.574 246.501C295.65 246.307 295.848 243.758 293.965 243.235C286.492 241.192 282.516 238.817 278.883 236.647L278.842 236.623C274.783 234.19 271.138 232.008 263.492 230.808C262.72 230.688 262.749 229.556 263.526 229.483C264.583 229.381 265.611 229.333 266.615 229.333C276.158 229.333 283.475 233.619 290.405 237.679L290.427 237.692L290.462 237.712C296.695 241.362 302.613 244.827 309.552 244.827C312.173 244.827 314.938 244.333 317.922 243.173C319.022 242.713 320.195 242.191 321.233 241.475C322.594 240.56 322.14 238.408 320.518 238.209H320.456C305.922 236.855 298.885 233.484 292.19 230.277L292.189 230.276C286.083 227.35 280.252 224.563 269.29 223.552C268.498 223.48 268.469 222.333 269.251 222.227C274.107 221.555 278.162 221.26 281.656 221.26C291.985 221.26 297.396 223.847 303.961 226.987L303.981 226.997C309.436 229.609 315.691 232.603 326.234 234.819C329.14 235.414 331.765 235.67 334.145 235.67C343.249 235.67 348.785 231.887 352.85 228.68C353.062 228.501 353.299 228.317 353.545 228.133L353.608 228.084L353.659 228.045L353.736 227.985L353.739 227.983C353.963 227.81 354.192 227.633 354.409 227.442C355.278 226.692 354.66 225.342 353.583 225.342C353.563 225.342 353.543 225.343 353.522 225.344C353.498 225.346 353.473 225.348 353.447 225.351L353.434 225.352C349.017 225.928 345.185 226.179 341.762 226.179C331.876 226.179 325.413 224.089 318.105 221.719L318.089 221.714C309.283 218.866 299.244 215.619 280.507 215.16C279.721 215.14 279.614 214.008 280.382 213.839C290.388 211.624 298.112 210.768 304.406 210.768C315.082 210.768 321.639 213.229 328.216 215.699L328.237 215.706C333.827 217.806 339.431 219.91 347.593 220.524C349.616 220.674 351.498 220.747 353.26 220.747C364.198 220.747 370.295 217.961 374.711 214.4C375.971 213.384 377.096 212.306 378.158 211.213C378.862 210.482 379.538 209.752 380.209 209.021L380.378 208.837C380.542 208.639 380.735 208.446 380.933 208.247C381.126 208.054 381.319 207.86 381.484 207.662C381.488 207.657 381.493 207.647 381.498 207.643C382.068 206.994 381.855 205.921 381.117 205.495C380.957 205.403 380.774 205.34 380.571 205.316C380.475 205.301 380.378 205.297 380.282 205.297C379.842 205.297 379.374 205.403 378.949 205.509C378.38 205.645 377.82 205.775 377.265 205.901C375.966 206.201 374.706 206.472 373.49 206.719C366.259 208.175 360.423 208.736 355.442 208.736C347.362 208.736 341.519 207.262 335.557 205.759L335.545 205.756L335.537 205.754C329.317 204.187 322.966 202.588 313.809 202.588C308.881 202.588 303.136 203.052 296.157 204.237C296.118 204.242 296.075 204.247 296.031 204.247C295.384 204.247 295.104 203.347 295.717 202.999C299.878 200.604 306.351 197.76 316.753 196.435C319.481 196.086 322.053 195.936 324.51 195.936C331.963 195.936 338.359 197.325 344.953 198.757L344.954 198.757C351.967 200.28 359.203 201.852 368.166 201.852C369.204 201.852 370.266 201.833 371.352 201.789C371.728 201.775 372.1 201.756 372.467 201.731C373.828 201.654 375.122 201.533 376.348 201.378C377.694 201.209 378.964 200.991 380.161 200.74C393.474 197.91 397.919 190.165 401.993 183.059C402.288 182.581 402.047 181.724 401.067 181.724C400.97 181.724 400.869 181.734 400.758 181.749C390.587 185.701 383.101 187.602 376.893 188.361C375.517 188.53 374.209 188.647 372.945 188.709C371.921 188.767 370.927 188.792 369.957 188.792C369.609 188.792 369.266 188.787 368.924 188.782C365.13 188.715 361.646 188.283 357.968 187.826L357.797 187.805C353.144 187.224 348.168 186.605 341.835 186.605C338.301 186.605 334.353 186.799 329.796 187.297C322.903 188.042 317.27 189.353 313.867 190.277C313.799 190.296 313.737 190.306 313.674 190.306C313.07 190.306 312.747 189.474 313.307 189.087C316.329 186.983 320.258 184.878 326.745 183.055C330.033 182.131 334.256 181.879 339.151 181.879C341.692 181.879 344.415 181.949 347.282 182.022L348.228 182.046L348.23 182.046H348.239C351.502 182.13 354.938 182.218 358.502 182.218C361.118 182.218 363.807 182.169 366.539 182.044C367.871 181.986 369.213 181.903 370.565 181.797C371.887 181.7 373.22 181.574 374.557 181.424C383.443 180.438 392.595 178.319 401.342 173.985C411.083 169.152 415.171 163.541 418.613 154.79C419.196 153.558 418.513 152.635 417.751 152.633Z" stroke="url(#paint3_linear_795_8195)" stroke-opacity="0.24" stroke-width="2" mask="url(#path-1-inside-1_795_8195)"/>
<path d="M166.011 197.581C159.359 194.592 147.2 189.754 135.485 188.342C132.285 187.95 129.422 187.819 126.647 187.819C124.035 187.819 121.5 187.935 118.851 188.055L118.822 188.056C115.887 188.192 112.803 188.332 109.294 188.332C106.113 188.332 102.584 188.216 98.5054 187.873C97.2649 187.771 95.9761 187.645 94.6294 187.5C93.3792 187.36 92.0759 187.2 90.7195 187.021C83.7155 186.078 75.2827 184.52 64.784 182.01C64.6923 181.986 64.6006 181.976 64.5137 181.976C63.6159 181.976 63.0173 183.132 63.5483 183.969C63.5821 184.032 63.6159 184.08 63.6448 184.129L63.6631 184.157C63.6906 184.2 63.7176 184.241 63.7414 184.293C70.2965 194.093 78.0824 198.302 87.1572 199.729C88.4218 199.932 89.7155 200.077 91.0332 200.179C92.3027 200.271 93.5916 200.324 94.9093 200.338C95.2183 200.348 95.5272 200.348 95.8409 200.348C102.005 200.348 108.681 199.603 115.868 198.8C124.267 197.857 133.371 196.841 143.199 196.841C150.294 196.841 157.762 197.368 165.615 198.844C165.663 198.853 165.712 198.858 165.755 198.858C166.431 198.858 166.687 197.886 166.011 197.581Z" stroke="url(#paint4_linear_795_8195)" stroke-opacity="0.24" stroke-width="2" mask="url(#path-1-inside-1_795_8195)"/>
<path d="M174.246 206.22C168.463 204.455 159.113 202.138 149.879 202.138C149.145 202.138 148.417 202.152 147.688 202.181C142.253 202.413 137.575 203.333 132.338 204.363C124.248 205.954 114.826 207.807 99.2102 207.807C97.347 207.807 95.3969 207.783 93.3454 207.72C92.1 207.691 90.8112 207.643 89.4886 207.585C88.2239 207.531 86.9206 207.464 85.5787 207.386C84.0631 207.299 82.4943 207.198 80.8821 207.077C80.87 207.077 80.8579 207.075 80.8459 207.074C80.834 207.073 80.8215 207.072 80.8097 207.072C79.8829 207.072 79.4678 208.334 80.1001 209.036C80.1896 209.078 80.2469 209.153 80.2945 209.215L80.298 209.22C80.3075 209.231 80.3163 209.242 80.3246 209.253L80.3361 209.268C80.3396 209.273 80.3432 209.277 80.3466 209.281C80.3514 209.287 80.3561 209.292 80.3607 209.297C81.7654 210.811 83.1942 212.117 84.652 213.239C85.8346 214.154 87.0365 214.947 88.2577 215.624C89.4596 216.292 90.676 216.853 91.9166 217.312C95.3775 218.604 98.9881 219.141 102.758 219.141C110.785 219.141 119.537 216.722 129.128 214.071L129.147 214.066C140.77 210.856 153.628 207.304 167.923 207.304C169.921 207.304 171.948 207.372 174.005 207.522C174.01 207.522 174.016 207.522 174.022 207.523C174.027 207.523 174.033 207.524 174.038 207.525L174.043 207.525C174.05 207.526 174.056 207.527 174.062 207.527C174.806 207.527 174.989 206.443 174.246 206.22Z" stroke="url(#paint5_linear_795_8195)" stroke-opacity="0.24" stroke-width="2" mask="url(#path-1-inside-1_795_8195)"/>
<path d="M184.851 217.017C181.602 215.735 175.993 214.187 167.894 214.187C165.326 214.187 162.516 214.342 159.446 214.71C154.633 215.297 150.435 216.577 145.71 218.018L145.627 218.043L145.606 218.049C136.188 220.921 124.656 224.438 102.077 224.438H101.662C100.755 224.438 100.557 226.136 101.209 226.721L101.469 226.982C108.966 232.09 115.622 233.991 121.936 233.991C130.356 233.991 138.167 230.614 146.57 226.98L146.621 226.958C156.405 222.72 166.991 218.14 180.246 218.14C181.65 218.14 183.084 218.193 184.552 218.304H184.609C185.324 218.304 185.546 217.288 184.851 217.017Z" stroke="url(#paint6_linear_795_8195)" stroke-opacity="0.24" stroke-width="2" mask="url(#path-1-inside-1_795_8195)"/>
<path d="M193.713 221.506C191.575 221.235 188.978 221.013 186.227 221.013C183.475 221.013 180.338 221.255 177.49 221.937C173.976 222.774 171.485 223.799 168.656 224.965C163.086 227.268 156.193 230.112 137.498 233.101C135.485 233.363 134.187 236.231 137.952 237.276C141.384 238.234 144.487 238.645 147.36 238.645C155.522 238.645 161.845 235.312 168.753 231.669C175.67 228.017 183.176 224.06 193.713 222.832C194.49 222.74 194.495 221.608 193.713 221.506Z" stroke="url(#paint7_linear_795_8195)" stroke-opacity="0.24" stroke-width="2" mask="url(#path-1-inside-1_795_8195)"/>
<path d="M201.75 229.575C200.635 229.454 199.356 229.362 198.009 229.362C195.654 229.362 193.086 229.638 190.798 230.508C188.559 231.403 187.073 232.399 185.385 233.53L185.382 233.532L185.37 233.539C182.013 235.787 177.862 238.567 165.48 242.123C164.177 242.515 163.53 244.604 166.45 245.064C168.676 245.427 170.64 245.596 172.402 245.596C180.303 245.596 184.082 242.259 188.136 238.68L188.138 238.679C191.589 235.631 195.243 232.405 201.813 230.891C202.551 230.721 202.498 229.657 201.75 229.575Z" stroke="url(#paint8_linear_795_8195)" stroke-opacity="0.24" stroke-width="2" mask="url(#path-1-inside-1_795_8195)"/>
<path d="M224.871 217.956C224.162 216.427 223.452 214.899 222.936 213.341C221.633 209.79 222.424 206.245 223.216 202.699C223.645 200.764 224.075 198.824 224.167 196.889C224.167 193.678 222.316 191.106 220.535 188.632L220.358 188.385C220.064 187.977 219.772 187.572 219.494 187.166C219.34 186.954 219.248 186.837 219.171 186.837C219.079 186.837 219.011 186.983 218.91 187.297C217.824 191.989 218.751 196.933 220.764 201.262C220.822 201.393 220.841 201.538 220.812 201.678L220.617 202.594C220.098 205.022 219.577 207.46 219.687 209.945C219.847 213.283 221.208 216.258 222.569 219.233L222.585 219.267C223.458 221.176 224.329 223.081 224.881 225.091C225.506 227.511 225.173 229.926 224.836 232.365L224.817 232.503C224.634 233.835 224.451 235.166 224.427 236.512C224.427 236.874 224.717 237.155 225.065 237.155C225.077 237.155 225.089 237.155 225.101 237.154C225.113 237.153 225.126 237.153 225.139 237.151C225.146 237.15 225.154 237.15 225.161 237.149C225.167 237.148 225.173 237.147 225.179 237.146C225.193 237.143 225.208 237.141 225.222 237.137C225.261 237.128 225.3 237.115 225.34 237.097C225.533 237.034 225.596 236.903 225.663 236.71C225.866 235.912 226.098 235.123 226.334 234.33L226.345 234.292C226.93 232.307 227.517 230.316 227.608 228.22C227.637 227.896 227.647 227.577 227.647 227.258C227.647 223.966 226.266 220.976 224.892 218.001L224.871 217.956Z" stroke="url(#paint9_linear_795_8195)" stroke-opacity="0.24" stroke-width="2" mask="url(#path-1-inside-1_795_8195)"/>
<path d="M243.499 201.756C243.47 201.606 243.489 201.456 243.557 201.32C245.628 197.184 246.617 192.246 245.594 187.689C245.555 187.481 245.381 187.355 245.198 187.355C245.087 187.355 244.976 187.399 244.879 187.495L244.657 187.718C243.253 189.125 241.92 190.465 240.873 192.613C240.871 192.618 240.869 192.623 240.866 192.629L240.863 192.635L240.855 192.653C240.852 192.658 240.85 192.664 240.847 192.669C240.844 192.676 240.842 192.683 240.839 192.691C240.26 194.195 240.385 195.39 240.521 196.647V196.662C240.525 196.705 240.53 196.754 240.535 196.797C239.328 195.506 237.011 193.697 233.328 193.368C233.285 193.363 233.237 193.363 233.193 193.358C233.184 193.358 233.175 193.357 233.165 193.356C233.158 193.355 233.15 193.354 233.142 193.354C233.138 193.353 233.134 193.353 233.13 193.353C232.397 193.353 232.218 194.422 232.947 194.659C233.859 194.954 234.801 195.409 235.703 196.077C235.766 196.125 235.824 196.183 235.867 196.251C236.012 196.468 236.118 196.705 236.176 196.957C236.719 199.645 235.242 202.962 234.081 205.569L234.067 205.601C233.565 206.719 233.126 207.701 232.933 208.446C232.926 208.471 232.921 208.494 232.918 208.514C232.914 208.537 232.912 208.557 232.91 208.575C232.909 208.591 232.908 208.606 232.908 208.62L232.879 208.808C232.382 210.468 232.155 212.224 232.093 213.931V239.38C232.093 239.384 232.093 239.388 232.092 239.392L232.092 239.398C232.092 239.406 232.091 239.414 232.09 239.422C232.089 239.438 232.086 239.454 232.083 239.47C232.08 239.485 232.077 239.5 232.073 239.516C231.856 240.498 232.735 241.586 233.705 241.586C233.879 241.586 234.057 241.552 234.236 241.475C234.492 241.397 234.767 241.325 235.047 241.252L235.056 241.25C236.937 240.747 239.097 240.17 239.492 238.016C239.686 236.347 239.512 234.659 239.338 232.976C239.222 231.829 239.106 230.683 239.101 229.546V229.512C238.73 225.633 240.308 222.198 241.891 218.754L241.906 218.722C243.296 215.69 244.691 212.647 244.749 209.292C244.749 207.217 244.281 205.18 243.827 203.212C243.716 202.723 243.605 202.235 243.499 201.756Z" stroke="url(#paint10_linear_795_8195)" stroke-opacity="0.24" stroke-width="2" mask="url(#path-1-inside-1_795_8195)"/>
<path d="M223.419 305.83C223.356 305.786 223.288 305.757 223.221 305.733C222.632 305.564 221.966 305.506 221.29 305.448C219.653 305.312 217.983 305.167 217.351 303.353C215.739 299.038 214.204 294.699 212.674 290.37C211.496 287.032 210.318 283.699 209.106 280.376C209.035 280.236 208.976 280.08 208.914 279.916L208.914 279.914C208.901 279.88 208.888 279.845 208.875 279.81L208.873 279.806C208.642 279.174 208.395 278.499 207.702 278.499C207.596 278.499 207.48 278.514 207.354 278.548C206.572 278.877 206.316 279.399 206.572 280.178C209.039 291.41 211.506 302.57 214.04 313.729C214.146 314.068 214.223 314.431 214.3 314.798L214.305 314.819C214.516 315.795 214.736 316.811 215.531 317.517C216.313 318.392 217.486 318.823 218.664 318.823C220.025 318.823 221.386 318.247 222.154 317.125C222.53 316.622 222.772 316.051 222.95 315.456C223.124 314.861 223.23 314.232 223.336 313.604C223.452 312.917 223.573 312.225 223.781 311.577C223.853 311.219 223.959 310.837 224.07 310.445C224.529 308.795 225.04 306.947 223.419 305.83Z" stroke="url(#paint11_linear_795_8195)" stroke-opacity="0.24" stroke-width="2" mask="url(#path-1-inside-1_795_8195)"/>
<path d="M227.092 280.768C224.798 273.814 222.608 266.802 220.424 259.809L220.358 259.6V259.59H220.353C219.103 255.575 217.853 251.57 216.584 247.584C216.579 247.56 216.569 247.536 216.555 247.512C216.386 247.158 216.27 246.776 216.154 246.385C216.101 246.206 216.048 246.027 215.99 245.848C215.84 245.403 215.464 245.17 215.082 245.17C214.788 245.17 214.498 245.306 214.3 245.586C214.189 245.727 214.091 245.879 213.993 246.032L213.943 246.109C213.837 246.278 213.726 246.452 213.6 246.612L213.571 246.655C210.468 251.415 210.217 257.863 213.002 262.817C214.522 265.816 217.095 268.002 219.571 270.107L219.755 270.261C220.794 272.277 221.739 274.353 222.683 276.425L222.684 276.426L222.733 276.535C223.53 278.291 224.326 280.038 225.176 281.75C225.195 281.794 225.214 281.837 225.224 281.885C225.34 282.355 225.605 282.485 225.933 282.485C225.945 282.485 225.957 282.485 225.969 282.485C226 282.484 226.033 282.483 226.067 282.48C226.086 282.478 226.106 282.476 226.126 282.474C226.144 282.472 226.162 282.469 226.18 282.466C226.962 282.335 227.353 281.489 227.092 280.768Z" stroke="url(#paint12_linear_795_8195)" stroke-opacity="0.24" stroke-width="2" mask="url(#path-1-inside-1_795_8195)"/>
<path d="M240.728 44.9545L238.025 46.6766C235.201 48.4857 233.753 49.9369 233.7 52.3991V52.52L243.436 52.728C243.759 52.7329 244.025 52.9505 244.015 53.2746L243.967 55.5288C243.962 55.8529 243.687 56.1141 243.363 56.1093L230.813 55.8432C230.49 55.8384 230.229 55.5627 230.234 55.2386L230.297 52.3314C230.364 49.071 232.469 46.2364 234.96 44.6546L237.933 42.7584C240.245 41.2927 240.699 40.8283 240.733 39.1981C240.766 37.597 239.772 36.9826 237.315 36.9294C235.568 36.8907 233.169 37.0794 231.388 37.2487H231.33C231.006 37.2438 230.804 36.9681 230.808 36.644L230.847 34.8639C230.852 34.5688 231.122 34.3947 231.421 34.3124C232.971 33.9303 235.462 33.6546 237.388 33.6981C242.567 33.8094 244.633 35.604 244.551 39.2803C244.498 41.7425 243.19 43.3775 240.728 44.9545Z" stroke="url(#paint13_linear_795_8195)" stroke-opacity="0.24" stroke-width="2" mask="url(#path-1-inside-1_795_8195)"/>
<path d="M205.607 58.1361C204.931 58.3828 203.468 58.7843 202.247 59.0117C199.365 59.5583 197.463 58.8907 196.826 55.5095L194.056 40.8186C193.998 40.4993 194.22 40.243 194.529 40.1269L197.145 39.1497L197.232 39.1352C197.492 39.0869 197.782 39.3336 197.835 39.6238L198.376 42.4826L202.479 41.7087C202.797 41.6458 203.111 41.8586 203.169 42.1827L203.492 43.9048C203.55 44.2241 203.338 44.5385 203.019 44.5965L198.916 45.3705L200.693 54.7839C200.915 55.9497 201.475 56.0561 202.725 55.8191L205.023 55.3837C205.399 55.3111 205.66 55.4127 205.718 55.7078L206.06 57.517C206.113 57.8072 205.973 58.0152 205.607 58.1458V58.1361Z" stroke="url(#paint14_linear_795_8195)" stroke-opacity="0.24" stroke-width="2" mask="url(#path-1-inside-1_795_8195)"/>
<path d="M181.911 63.3652C183.624 63.3459 186.062 62.8186 187.172 62.5042L187.177 62.509C190.908 61.4642 192.212 58.973 191.517 56.4866C191.111 55.0306 190.368 53.6955 187.568 52.9118L183.195 51.6735C182.365 51.4461 181.853 51.2768 181.727 50.8221C181.481 49.9369 181.993 49.4532 183.359 49.071C184.981 48.6163 187.327 48.2052 188.157 48.0939C188.171 48.0891 188.186 48.0854 188.2 48.0818C188.215 48.0782 188.229 48.0745 188.244 48.0697C188.529 47.9923 188.673 47.7359 188.577 47.3925L188.114 45.7381C188.022 45.3947 187.785 45.2157 187.418 45.2254C185.879 45.3173 184.493 45.4286 182.186 46.0767C178.566 47.0926 177.171 49.0227 177.967 51.8815C178.431 53.5407 179.826 54.6871 181.462 55.1515L186.038 56.4527C187.11 56.7672 187.549 57.0139 187.698 57.5557C187.916 58.3296 187.824 58.9972 186.057 59.4954C185.203 59.7373 182.596 60.3129 181.182 60.5257C181.176 60.5278 181.17 60.5297 181.163 60.5314C181.158 60.5329 181.153 60.5343 181.147 60.5357L181.139 60.5378C181.124 60.5415 181.11 60.5451 181.095 60.5499C180.781 60.637 180.646 60.9224 180.709 61.1498L181.187 62.8622C181.283 63.2056 181.544 63.3749 181.911 63.3652Z" stroke="url(#paint15_linear_795_8195)" stroke-opacity="0.24" stroke-width="2" mask="url(#path-1-inside-1_795_8195)"/>
<path fill-rule="evenodd" clip-rule="evenodd" d="M164.847 62.5719L173.821 59.0214C174.207 58.8666 174.275 58.5521 174.101 58.1119L173.493 56.5688C171.871 52.4571 168.415 50.4739 164.176 52.1524C159.962 53.8164 158.635 57.4686 160.329 61.7738L161.135 63.8151C163.279 69.2522 167.777 69.1942 170.529 68.1058C173.005 67.1238 174.024 66.5627 175.684 65.5227C176.147 65.2421 176.152 65.0148 175.978 64.5746L175.259 62.7557C175.153 62.48 174.878 62.4268 174.603 62.5381C174.574 62.5526 174.55 62.5622 174.521 62.5719C173.406 63.1379 171.571 64.057 169.563 64.8503C166.923 65.8951 165.514 64.2553 164.881 62.6542L164.847 62.5719ZM165.417 55.3015C167.126 54.6242 168.796 55.3982 169.645 57.5508V57.5557L169.689 57.6669L163.853 59.9743L163.81 59.863C162.95 57.6814 163.708 55.9787 165.417 55.3015Z" stroke="url(#paint16_linear_795_8195)" stroke-opacity="0.24" stroke-width="2" mask="url(#path-1-inside-1_795_8195)"/>
<path d="M211.389 57.3428L214.006 57.0284H214.01C214.334 56.9897 214.565 56.6946 214.527 56.3705L214.126 53.0424C214.088 52.7183 213.793 52.5152 213.47 52.5539L210.854 52.8683C210.53 52.907 210.294 53.1731 210.332 53.4972L210.733 56.8252C210.771 57.1493 211.066 57.3815 211.389 57.3428Z" stroke="url(#paint17_linear_795_8195)" stroke-opacity="0.24" stroke-width="2" mask="url(#path-1-inside-1_795_8195)"/>
<path fill-rule="evenodd" clip-rule="evenodd" d="M251.256 46.7249C250.232 54.0389 252.752 57.1783 257.502 57.8459H257.506C262.256 58.5134 265.539 56.1867 266.562 48.8727L266.866 46.7008C267.885 39.3868 265.37 36.2183 260.62 35.5508C255.87 34.8832 252.583 37.239 251.56 44.553L251.256 46.7249ZM260.157 38.8692C262.179 39.1497 263.531 40.8089 262.787 46.1251H262.792L262.488 48.2971C261.745 53.6133 259.992 54.8032 257.97 54.5227C255.947 54.2421 254.591 52.6119 255.334 47.2957L255.638 45.1238C256.377 39.8076 258.134 38.5886 260.157 38.8692Z" stroke="url(#paint18_linear_795_8195)" stroke-opacity="0.24" stroke-width="2" mask="url(#path-1-inside-1_795_8195)"/>
<path d="M283.519 51.7461L280.488 52.7861C277.321 53.8793 275.569 54.9532 274.942 57.3331L274.913 57.4492L284.33 59.9404C284.644 60.0227 284.851 60.2936 284.765 60.608L284.19 62.7896C284.108 63.104 283.78 63.2927 283.466 63.2104L271.331 59.9985C271.017 59.9162 270.829 59.5873 270.911 59.2729L271.65 56.4624C272.48 53.3085 275.188 51.0495 277.983 50.0965L281.313 48.9549C283.901 48.0745 284.451 47.7311 284.871 46.1541C285.281 44.6062 284.456 43.7742 282.081 43.1453C280.391 42.7003 278.012 42.3133 276.245 42.0618C276.226 42.0553 276.206 42.0505 276.187 42.0473C275.873 41.965 275.738 41.6506 275.825 41.3362L276.279 39.6141C276.356 39.3287 276.655 39.2223 276.964 39.2126C278.557 39.2029 281.048 39.527 282.906 40.0156C287.917 41.341 289.5 43.571 288.563 47.1264C287.936 49.5064 286.28 50.7883 283.519 51.7461Z" stroke="url(#paint19_linear_795_8195)" stroke-opacity="0.24" stroke-width="2" mask="url(#path-1-inside-1_795_8195)"/>
<path d="M291.233 65.2276C292.647 66.2386 294.206 67.2109 296.243 68.0187L296.234 68.0332C300.139 69.586 303.87 68.9281 305.497 64.8213L305.728 64.2408C306.423 62.4752 306.206 60.5354 305.019 59.1084C306.824 58.9004 308.238 57.8991 309.001 55.969L309.175 55.5288C310.821 51.3639 308.48 48.6792 304.517 47.1023C302.48 46.2896 300.684 45.9268 298.961 45.6898C298.666 45.6317 298.343 45.7285 298.232 46.0042L297.556 47.7118C297.435 48.0117 297.58 48.2922 297.855 48.4035C297.863 48.4067 297.872 48.4099 297.88 48.4131C297.889 48.4163 297.899 48.4196 297.908 48.4228C298.379 48.5566 298.795 48.6726 299.172 48.7779C300.814 49.2364 301.73 49.4922 303.32 50.1256C305.849 51.1366 305.907 52.5926 305.352 54.0002L305.178 54.4404C304.599 55.9061 303.667 56.9703 301.577 56.1383L296.707 54.2034C296.407 54.0825 296.098 54.2131 295.978 54.5178L295.292 56.2544C295.172 56.5543 295.302 56.8639 295.606 56.9848L300.476 58.9198C302.567 59.7518 302.484 61.2513 301.905 62.7122L301.678 63.2927C300.916 65.2228 299.67 65.8758 297.44 64.9906C296.123 64.4633 294.423 63.5974 292.338 62.5139C292.322 62.5042 292.304 62.4961 292.285 62.4897C292.01 62.3784 291.715 62.4849 291.595 62.7896L290.919 64.4972C290.808 64.7729 290.982 65.0631 291.233 65.2276Z" stroke="url(#paint20_linear_795_8195)" stroke-opacity="0.24" stroke-width="2" mask="url(#path-1-inside-1_795_8195)"/>
<path d="M145.312 56.1553C146.724 56.6497 147.468 58.1975 146.975 59.6124L142.815 71.5425L154.72 75.7113C156.132 76.2057 156.876 77.7535 156.383 79.1683C155.89 80.5832 154.345 81.3294 152.933 80.835L138.472 75.771C137.06 75.2766 136.316 73.7289 136.809 72.314L141.862 57.822C142.356 56.4071 143.9 55.6609 145.312 56.1553Z" stroke="url(#paint21_linear_795_8195)" stroke-opacity="0.24" stroke-width="2" mask="url(#path-1-inside-1_795_8195)"/>
<path d="M322.455 59.6124C321.962 58.1975 322.706 56.6497 324.118 56.1553C325.53 55.6609 327.075 56.4071 327.568 57.822L332.621 72.314C333.115 73.7289 332.37 75.2766 330.958 75.771L316.497 80.835C315.085 81.3294 313.541 80.5832 313.047 79.1683C312.554 77.7535 313.298 76.2057 314.71 75.7113L326.615 71.5425L322.455 59.6124Z" stroke="url(#paint22_linear_795_8195)" stroke-opacity="0.24" stroke-width="2" mask="url(#path-1-inside-1_795_8195)"/>
<path d="M260.533 146.62C259.983 146.228 259.249 146.223 258.694 146.596L249.368 152.754C249.011 152.996 248.76 153.368 248.678 153.794C248.591 154.215 248.678 154.655 248.924 155.018C249.46 155.821 249.745 156.754 249.745 157.722C249.745 160.416 247.558 162.607 244.869 162.607C242.181 162.607 239.994 160.416 239.994 157.722C239.994 156.14 240.776 154.645 242.079 153.726C242.813 153.213 242.992 152.197 242.475 151.462L234.824 140.51C234.221 139.64 232.768 139.64 232.165 140.51L224.514 151.462C224.002 152.197 224.176 153.213 224.91 153.726C226.213 154.645 226.995 156.14 226.995 157.722C226.995 160.416 224.808 162.607 222.12 162.607C219.431 162.607 217.245 160.416 217.245 157.722C217.245 156.754 217.524 155.821 218.065 155.018C218.306 154.66 218.393 154.219 218.311 153.794C218.229 153.368 217.978 152.996 217.621 152.754L208.295 146.596C207.735 146.223 207.006 146.228 206.456 146.62C205.906 147.007 205.655 147.694 205.814 148.347L212.418 174.396C212.62 175.218 213.412 175.765 214.261 175.605C227.024 173.477 239.956 173.477 252.718 175.605C252.805 175.62 252.897 175.629 252.984 175.629C253.717 175.629 254.379 175.131 254.562 174.396L261.165 148.347C261.325 147.694 261.074 147.012 260.523 146.62H260.533Z" stroke="url(#paint23_linear_795_8195)" stroke-opacity="0.24" stroke-width="2" mask="url(#path-1-inside-1_795_8195)"/>
<path d="M119.245 89.2595C120.843 87.99 121.112 85.6625 119.845 84.0608C118.578 82.4591 116.256 82.1898 114.658 83.4593C98.7674 96.0808 84.9779 111.151 73.8042 128.107C72.6803 129.812 73.1488 132.108 74.8506 133.234C76.5524 134.36 78.8431 133.891 79.967 132.185C90.7098 115.883 103.968 101.394 119.245 89.2595Z" stroke="url(#paint24_linear_795_8195)" stroke-opacity="0.24" stroke-width="2" mask="url(#path-1-inside-1_795_8195)"/>
<path d="M347.425 84.0754C346.158 85.6769 346.426 88.0045 348.024 89.2742C363.341 101.443 376.627 115.979 387.383 132.335C388.505 134.042 390.795 134.513 392.498 133.389C394.201 132.264 394.672 129.969 393.549 128.262C382.362 111.25 368.544 96.1319 352.613 83.4746C351.014 82.2048 348.692 82.4738 347.425 84.0754Z" stroke="url(#paint25_linear_795_8195)" stroke-opacity="0.24" stroke-width="2" mask="url(#path-1-inside-1_795_8195)"/>
<path d="M414.319 198.331C413.926 196.325 415.23 194.38 417.231 193.987C419.232 193.593 421.173 194.9 421.566 196.905C426.683 223.028 426.322 249.933 420.504 275.908C420.058 277.902 418.083 279.156 416.093 278.709C414.103 278.261 412.852 276.282 413.298 274.287C418.891 249.314 419.239 223.447 414.319 198.331Z" stroke="url(#paint26_linear_795_8195)" stroke-opacity="0.24" stroke-width="2" mask="url(#path-1-inside-1_795_8195)"/>
<path d="M50.0199 193.987C52.0211 194.38 53.3249 196.325 52.9321 198.331C48.0122 223.447 48.3598 249.314 53.9528 274.287C54.3994 276.282 53.1483 278.261 51.1583 278.709C49.1684 279.156 47.1932 277.902 46.7466 275.908C40.9294 249.933 40.5678 223.028 45.685 196.905C46.0779 194.9 48.0186 193.593 50.0199 193.987Z" stroke="url(#paint27_linear_795_8195)" stroke-opacity="0.24" stroke-width="2" mask="url(#path-1-inside-1_795_8195)"/>
<path d="M45.1007 314.708C46.0546 317.043 48.7833 322.346 49.7657 324.001L49.7752 323.991C50.7955 325.732 51.7304 326.269 53.8849 325.389L82.3017 313.743C82.781 313.548 82.9566 312.963 82.7572 312.478L80.4224 306.756C80.2231 306.271 79.7106 306.019 79.2265 306.219L53.6191 316.715C52.8313 315.293 51.8205 313.191 51.2083 311.693C49.5948 307.731 50.9094 305.805 55.3892 303.97L75.0219 295.923C75.5059 295.723 75.6958 295.186 75.4964 294.701L73.1426 288.932C72.9433 288.447 72.4308 288.195 71.9467 288.395L52.3093 296.441C42.2961 300.545 41.9212 306.918 45.1007 314.708Z" stroke="url(#paint28_linear_795_8195)" stroke-opacity="0.24" stroke-width="2" mask="url(#path-1-inside-1_795_8195)"/>
<path d="M59.9498 343.138L63.3476 348.526V348.521C63.6276 348.964 64.1924 349.059 64.6337 348.778L92.8702 330.882C93.3115 330.602 93.4302 330.079 93.1502 329.636L89.7523 324.248C89.4723 323.811 88.974 323.73 88.5327 324.01L60.2962 341.906C59.8549 342.187 59.6698 342.696 59.9498 343.138Z" stroke="url(#paint29_linear_795_8195)" stroke-opacity="0.24" stroke-width="2" mask="url(#path-1-inside-1_795_8195)"/>
<path d="M87.593 378.725C86.6866 378.193 84.5179 376.428 82.3349 373.922C77.5893 368.477 75.952 360.815 84.4609 353.368L88.9645 349.425C97.4734 341.978 104.791 344.665 109.537 350.11C111.725 352.616 113.177 355.008 113.58 355.978C113.874 356.606 113.983 357.015 113.48 357.453L110.011 360.487C109.584 360.863 109.11 360.896 108.673 360.397L108.611 360.325L108.293 359.894C107.24 358.468 105.829 356.557 104.279 354.775C102.124 352.302 99.1202 351.461 94.365 355.622L89.8614 359.564C85.1063 363.726 85.5382 366.822 87.6927 369.295C89.2601 371.091 90.9737 372.761 92.246 374L92.2466 374.001C92.3684 374.12 92.4864 374.235 92.5997 374.345L92.6614 374.416C93.098 374.916 92.9983 375.382 92.5712 375.758L89.1021 378.792C88.6039 379.229 88.172 379.101 87.593 378.725Z" stroke="url(#paint30_linear_795_8195)" stroke-opacity="0.24" stroke-width="2" mask="url(#path-1-inside-1_795_8195)"/>
<path d="M117.695 404.606L122.967 408.168L122.962 408.173C123.394 408.463 123.949 408.32 124.239 407.887L142.908 380.123C143.202 379.686 143.098 379.158 142.666 378.868L137.394 375.306C136.962 375.016 136.473 375.144 136.183 375.577L117.514 403.341C117.225 403.774 117.263 404.316 117.695 404.606Z" stroke="url(#paint31_linear_795_8195)" stroke-opacity="0.24" stroke-width="2" mask="url(#path-1-inside-1_795_8195)"/>
<path d="M171.097 401.263L164.121 398.019L152.494 423.13C152.276 423.605 151.706 423.81 151.232 423.591L145.594 420.97C145.119 420.752 144.911 420.181 145.134 419.705L156.76 394.6L149.742 391.337C149.267 391.119 149.039 390.591 149.262 390.115L151.322 385.673C151.54 385.198 152.091 385.036 152.561 385.255L173.911 395.185C174.386 395.404 174.656 395.95 174.438 396.426L172.378 400.868C172.16 401.343 171.567 401.486 171.092 401.267L171.097 401.263Z" stroke="url(#paint32_linear_795_8195)" stroke-opacity="0.24" stroke-width="2" mask="url(#path-1-inside-1_795_8195)"/>
<path fill-rule="evenodd" clip-rule="evenodd" d="M215.891 440.455L222.112 441.192V441.197C222.63 441.258 223.104 440.883 223.166 440.364L226.018 416.281C227.024 407.778 222.16 405.286 215.843 404.535L212.403 404.126C206.091 403.374 200.729 404.649 199.723 413.152L196.87 437.235C196.809 437.753 197.184 438.229 197.701 438.291L203.922 439.028C204.44 439.09 204.867 438.709 204.929 438.191L206.286 426.715L216.513 427.933L215.155 439.409C215.094 439.927 215.374 440.393 215.891 440.455ZM215.018 411.516C217.656 411.83 218.316 412.724 218.007 415.321L217.305 421.27L207.078 420.053L207.781 414.103C208.089 411.507 208.986 410.798 211.577 411.107L215.018 411.516Z" stroke="url(#paint33_linear_795_8195)" stroke-opacity="0.24" stroke-width="2" mask="url(#path-1-inside-1_795_8195)"/>
<path d="M261.748 439.204C260.785 439.618 258.08 440.326 254.767 440.602C247.577 441.206 240.45 437.991 239.505 426.711L239.002 420.737C238.058 409.457 244.55 405.139 251.739 404.535C255.052 404.254 257.833 404.497 258.853 404.749C259.532 404.882 259.926 405.039 259.983 405.705L260.367 410.303C260.414 410.874 260.163 411.273 259.499 411.331C259.499 411.331 259.482 411.331 259.459 411.332C259.443 411.334 259.423 411.336 259.404 411.34L259.139 411.341C259.011 411.342 258.879 411.342 258.744 411.343H258.742C256.988 411.348 254.674 411.356 252.371 411.549C249.106 411.825 246.647 413.751 247.179 420.053L247.682 426.026C248.209 432.327 250.956 433.816 254.217 433.54C256.541 433.344 258.849 432.959 260.588 432.669L260.589 432.669C260.795 432.634 260.994 432.601 261.183 432.57C261.204 432.57 261.225 432.568 261.242 432.566C261.264 432.563 261.278 432.56 261.278 432.56C261.938 432.503 262.256 432.86 262.303 433.431L262.688 438.029C262.745 438.695 262.384 438.961 261.738 439.209L261.748 439.204Z" stroke="url(#paint34_linear_795_8195)" stroke-opacity="0.24" stroke-width="2" mask="url(#path-1-inside-1_795_8195)"/>
<path fill-rule="evenodd" clip-rule="evenodd" d="M298.218 430.996L304.221 429.207V429.212C304.724 429.06 305.009 428.527 304.862 428.028L297.962 404.777C295.527 396.573 290.075 396.212 283.976 398.029L280.654 399.018C274.561 400.835 270.143 404.135 272.577 412.339L279.478 435.59C279.629 436.094 280.161 436.379 280.659 436.232L286.662 434.443C287.161 434.296 287.403 433.773 287.256 433.274L283.967 422.197L293.838 419.254L297.127 430.33C297.278 430.829 297.72 431.143 298.218 430.996ZM285.979 404.772C288.523 404.011 289.481 404.573 290.226 407.079V407.074L291.93 412.819L282.059 415.763L280.355 410.018C279.61 407.512 280.156 406.508 282.657 405.762L285.979 404.772Z" stroke="url(#paint35_linear_795_8195)" stroke-opacity="0.24" stroke-width="2" mask="url(#path-1-inside-1_795_8195)"/>
<path fill-rule="evenodd" clip-rule="evenodd" d="M332.776 416.253C329.34 418.184 325.472 419.919 323.612 420.585C322.758 420.904 322.131 420.761 321.6 419.805L306.262 392.384C305.73 391.428 305.934 390.824 306.651 390.258C308.184 389.012 311.686 386.615 315.122 384.684C323.36 380.057 330.763 381.621 335.661 390.377L338.655 395.727C343.553 404.482 341.019 411.625 332.78 416.253H332.776ZM328.581 394.353C325.448 388.75 322.212 388.608 318.487 390.7C317.452 391.28 316.152 392.065 315.592 392.436L326.426 411.811C327.029 411.526 328.376 410.822 329.411 410.242C333.136 408.149 334.702 405.305 331.57 399.708L328.576 394.357L328.581 394.353Z" stroke="url(#paint36_linear_795_8195)" stroke-opacity="0.24" stroke-width="2" mask="url(#path-1-inside-1_795_8195)"/>
<path d="M375.37 384.417L375.5 384.266L375.491 384.27C375.928 383.762 375.956 383.357 375.553 382.891L372.658 379.553C372.316 379.158 371.714 379.115 371.32 379.458L364.049 385.792C362.365 387.262 361.259 387.214 359.641 385.35L356.338 381.545L365.615 373.465C366.009 373.123 366.052 372.519 365.71 372.124L362.754 368.714C362.412 368.32 361.809 368.277 361.416 368.619L352.138 376.699L349.305 373.432C347.686 371.568 347.796 370.46 349.48 368.995L356.751 362.66C357.144 362.318 357.187 361.714 356.845 361.319L353.951 357.981C353.547 357.515 353.177 357.519 352.612 357.886L352.385 358.032C350.984 358.938 348.96 360.245 345.295 363.44C340.677 367.464 337.554 372.2 343.221 378.735L353.557 390.653C359.228 397.182 364.334 394.809 368.956 390.786C372.673 387.546 374.277 385.684 375.37 384.417Z" stroke="url(#paint37_linear_795_8195)" stroke-opacity="0.24" stroke-width="2" mask="url(#path-1-inside-1_795_8195)"/>
<path d="M407.7 345.373L403.989 350.433C403.737 350.78 403.196 350.795 402.774 350.486L386.828 338.739C386.563 338.544 386.439 338.629 386.382 338.706C386.297 338.82 386.321 338.953 386.425 339.21L390.207 347.304C390.468 347.908 390.378 348.436 390.013 348.93L387.763 351.998C387.398 352.497 386.928 352.74 386.268 352.668L377.432 351.47C377.157 351.446 377.024 351.465 376.938 351.579C376.882 351.655 376.834 351.798 377.105 351.998L393.05 363.74C393.472 364.049 393.619 364.572 393.368 364.914L389.657 369.975C389.434 370.279 389.064 370.54 388.646 370.231L362.07 350.657C361.268 350.067 361.192 349.125 361.781 348.317L364.424 344.717C365.013 343.913 365.791 343.656 366.693 343.789L381.893 345.953C382.31 346.025 382.586 346.053 382.7 345.896C382.814 345.744 382.704 345.487 382.51 345.107L375.913 331.215C375.515 330.393 375.529 329.575 376.117 328.771L378.761 325.171C379.349 324.367 380.308 324.186 381.11 324.776L407.647 344.322C408.07 344.631 407.927 345.059 407.704 345.368L407.7 345.373Z" stroke="url(#paint38_linear_795_8195)" stroke-opacity="0.24" stroke-width="2" mask="url(#path-1-inside-1_795_8195)"/>
<path d="M411.116 307.037L396.253 289.607L396.239 289.612C396.146 289.473 396.022 289.42 395.893 289.364L395.883 289.36C395.532 289.213 395.204 289.384 395.038 289.778L392.347 296.175C392.162 296.612 392.404 297.021 392.722 297.364L402.28 307.698L388.205 308.098C387.739 308.107 387.298 308.178 387.113 308.616L384.403 315.055C384.242 315.45 384.346 315.807 384.698 315.954C384.83 316.011 384.963 316.068 385.129 316.035L407.961 314.532L419.768 319.521C420.247 319.725 420.769 319.583 420.973 319.102L423.446 313.229C423.65 312.744 423.403 312.23 422.923 312.026L411.116 307.037Z" stroke="url(#paint39_linear_795_8195)" stroke-opacity="0.24" stroke-width="2" mask="url(#path-1-inside-1_795_8195)"/>
<path fill-rule="evenodd" clip-rule="evenodd" d="M145.882 451.505C173.507 462.466 202.767 468 232.998 468C236.183 468 239.382 467.937 242.587 467.816C300.979 465.577 356.055 441.622 397.673 400.375C439.258 359.156 463.764 304.296 466.68 245.891C468.398 211.411 463.19 178.13 451.19 146.978C439.61 116.914 422.267 90.1734 399.643 67.501C377.018 44.8286 350.335 27.4482 320.335 15.8436C289.249 3.81804 256.044 -1.4014 221.637 0.320673C163.361 3.2424 108.613 27.8062 67.4823 69.4795C26.3224 111.187 2.41912 166.38 0.184221 224.897C-1.10459 258.598 4.37405 291.207 16.4609 321.807C28.1229 351.334 45.3794 377.678 67.7574 400.099C90.1354 422.52 116.418 439.818 145.882 451.505ZM222.023 8.05551C226.184 7.84267 230.316 7.74108 234.434 7.74108C295.611 7.74108 351.952 30.6505 394.188 72.9672C439.263 118.138 462.268 179.412 458.971 245.499C453.189 361.381 358.015 455.636 242.297 460.081C239.179 460.202 236.085 460.26 232.99 460.26C172.093 460.26 115.656 437.153 73.2216 394.628C28.6297 349.946 5.436 289.77 7.90259 225.192C12.3338 109.228 106.388 13.8506 222.023 8.05551Z" stroke="url(#paint40_linear_795_8195)" stroke-opacity="0.24" stroke-width="2" mask="url(#path-1-inside-1_795_8195)"/>
<defs>
<linearGradient id="paint0_linear_795_8195" x1="233.5" y1="0" x2="233.5" y2="468" gradientUnits="userSpaceOnUse">
<stop stop-color="white"/>
<stop offset="1" stop-color="white" stop-opacity="0"/>
</linearGradient>
<linearGradient id="paint1_linear_795_8195" x1="233.5" y1="0" x2="233.5" y2="468" gradientUnits="userSpaceOnUse">
<stop stop-color="white"/>
<stop offset="1" stop-color="white" stop-opacity="0"/>
</linearGradient>
<linearGradient id="paint2_linear_795_8195" x1="233.5" y1="0" x2="233.5" y2="468" gradientUnits="userSpaceOnUse">
<stop stop-color="white"/>
<stop offset="1" stop-color="white" stop-opacity="0"/>
</linearGradient>
<linearGradient id="paint3_linear_795_8195" x1="233.5" y1="0" x2="233.5" y2="468" gradientUnits="userSpaceOnUse">
<stop stop-color="white"/>
<stop offset="1" stop-color="white" stop-opacity="0"/>
</linearGradient>
<linearGradient id="paint4_linear_795_8195" x1="233.5" y1="0" x2="233.5" y2="468" gradientUnits="userSpaceOnUse">
<stop stop-color="white"/>
<stop offset="1" stop-color="white" stop-opacity="0"/>
</linearGradient>
<linearGradient id="paint5_linear_795_8195" x1="233.5" y1="0" x2="233.5" y2="468" gradientUnits="userSpaceOnUse">
<stop stop-color="white"/>
<stop offset="1" stop-color="white" stop-opacity="0"/>
</linearGradient>
<linearGradient id="paint6_linear_795_8195" x1="233.5" y1="0" x2="233.5" y2="468" gradientUnits="userSpaceOnUse">
<stop stop-color="white"/>
<stop offset="1" stop-color="white" stop-opacity="0"/>
</linearGradient>
<linearGradient id="paint7_linear_795_8195" x1="233.5" y1="0" x2="233.5" y2="468" gradientUnits="userSpaceOnUse">
<stop stop-color="white"/>
<stop offset="1" stop-color="white" stop-opacity="0"/>
</linearGradient>
<linearGradient id="paint8_linear_795_8195" x1="233.5" y1="0" x2="233.5" y2="468" gradientUnits="userSpaceOnUse">
<stop stop-color="white"/>
<stop offset="1" stop-color="white" stop-opacity="0"/>
</linearGradient>
<linearGradient id="paint9_linear_795_8195" x1="233.5" y1="0" x2="233.5" y2="468" gradientUnits="userSpaceOnUse">
<stop stop-color="white"/>
<stop offset="1" stop-color="white" stop-opacity="0"/>
</linearGradient>
<linearGradient id="paint10_linear_795_8195" x1="233.5" y1="0" x2="233.5" y2="468" gradientUnits="userSpaceOnUse">
<stop stop-color="white"/>
<stop offset="1" stop-color="white" stop-opacity="0"/>
</linearGradient>
<linearGradient id="paint11_linear_795_8195" x1="233.5" y1="0" x2="233.5" y2="468" gradientUnits="userSpaceOnUse">
<stop stop-color="white"/>
<stop offset="1" stop-color="white" stop-opacity="0"/>
</linearGradient>
<linearGradient id="paint12_linear_795_8195" x1="233.5" y1="0" x2="233.5" y2="468" gradientUnits="userSpaceOnUse">
<stop stop-color="white"/>
<stop offset="1" stop-color="white" stop-opacity="0"/>
</linearGradient>
<linearGradient id="paint13_linear_795_8195" x1="233.5" y1="0" x2="233.5" y2="468" gradientUnits="userSpaceOnUse">
<stop stop-color="white"/>
<stop offset="1" stop-color="white" stop-opacity="0"/>
</linearGradient>
<linearGradient id="paint14_linear_795_8195" x1="233.5" y1="0" x2="233.5" y2="468" gradientUnits="userSpaceOnUse">
<stop stop-color="white"/>
<stop offset="1" stop-color="white" stop-opacity="0"/>
</linearGradient>
<linearGradient id="paint15_linear_795_8195" x1="233.5" y1="0" x2="233.5" y2="468" gradientUnits="userSpaceOnUse">
<stop stop-color="white"/>
<stop offset="1" stop-color="white" stop-opacity="0"/>
</linearGradient>
<linearGradient id="paint16_linear_795_8195" x1="233.5" y1="0" x2="233.5" y2="468" gradientUnits="userSpaceOnUse">
<stop stop-color="white"/>
<stop offset="1" stop-color="white" stop-opacity="0"/>
</linearGradient>
<linearGradient id="paint17_linear_795_8195" x1="233.5" y1="0" x2="233.5" y2="468" gradientUnits="userSpaceOnUse">
<stop stop-color="white"/>
<stop offset="1" stop-color="white" stop-opacity="0"/>
</linearGradient>
<linearGradient id="paint18_linear_795_8195" x1="233.5" y1="0" x2="233.5" y2="468" gradientUnits="userSpaceOnUse">
<stop stop-color="white"/>
<stop offset="1" stop-color="white" stop-opacity="0"/>
</linearGradient>
<linearGradient id="paint19_linear_795_8195" x1="233.5" y1="0" x2="233.5" y2="468" gradientUnits="userSpaceOnUse">
<stop stop-color="white"/>
<stop offset="1" stop-color="white" stop-opacity="0"/>
</linearGradient>
<linearGradient id="paint20_linear_795_8195" x1="233.5" y1="0" x2="233.5" y2="468" gradientUnits="userSpaceOnUse">
<stop stop-color="white"/>
<stop offset="1" stop-color="white" stop-opacity="0"/>
</linearGradient>
<linearGradient id="paint21_linear_795_8195" x1="233.5" y1="0" x2="233.5" y2="468" gradientUnits="userSpaceOnUse">
<stop stop-color="white"/>
<stop offset="1" stop-color="white" stop-opacity="0"/>
</linearGradient>
<linearGradient id="paint22_linear_795_8195" x1="233.5" y1="0" x2="233.5" y2="468" gradientUnits="userSpaceOnUse">
<stop stop-color="white"/>
<stop offset="1" stop-color="white" stop-opacity="0"/>
</linearGradient>
<linearGradient id="paint23_linear_795_8195" x1="233.5" y1="0" x2="233.5" y2="468" gradientUnits="userSpaceOnUse">
<stop stop-color="white"/>
<stop offset="1" stop-color="white" stop-opacity="0"/>
</linearGradient>
<linearGradient id="paint24_linear_795_8195" x1="233.5" y1="0" x2="233.5" y2="468" gradientUnits="userSpaceOnUse">
<stop stop-color="white"/>
<stop offset="1" stop-color="white" stop-opacity="0"/>
</linearGradient>
<linearGradient id="paint25_linear_795_8195" x1="233.5" y1="0" x2="233.5" y2="468" gradientUnits="userSpaceOnUse">
<stop stop-color="white"/>
<stop offset="1" stop-color="white" stop-opacity="0"/>
</linearGradient>
<linearGradient id="paint26_linear_795_8195" x1="233.5" y1="0" x2="233.5" y2="468" gradientUnits="userSpaceOnUse">
<stop stop-color="white"/>
<stop offset="1" stop-color="white" stop-opacity="0"/>
</linearGradient>
<linearGradient id="paint27_linear_795_8195" x1="233.5" y1="0" x2="233.5" y2="468" gradientUnits="userSpaceOnUse">
<stop stop-color="white"/>
<stop offset="1" stop-color="white" stop-opacity="0"/>
</linearGradient>
<linearGradient id="paint28_linear_795_8195" x1="233.5" y1="0" x2="233.5" y2="468" gradientUnits="userSpaceOnUse">
<stop stop-color="white"/>
<stop offset="1" stop-color="white" stop-opacity="0"/>
</linearGradient>
<linearGradient id="paint29_linear_795_8195" x1="233.5" y1="0" x2="233.5" y2="468" gradientUnits="userSpaceOnUse">
<stop stop-color="white"/>
<stop offset="1" stop-color="white" stop-opacity="0"/>
</linearGradient>
<linearGradient id="paint30_linear_795_8195" x1="233.5" y1="0" x2="233.5" y2="468" gradientUnits="userSpaceOnUse">
<stop stop-color="white"/>
<stop offset="1" stop-color="white" stop-opacity="0"/>
</linearGradient>
<linearGradient id="paint31_linear_795_8195" x1="233.5" y1="0" x2="233.5" y2="468" gradientUnits="userSpaceOnUse">
<stop stop-color="white"/>
<stop offset="1" stop-color="white" stop-opacity="0"/>
</linearGradient>
<linearGradient id="paint32_linear_795_8195" x1="233.5" y1="0" x2="233.5" y2="468" gradientUnits="userSpaceOnUse">
<stop stop-color="white"/>
<stop offset="1" stop-color="white" stop-opacity="0"/>
</linearGradient>
<linearGradient id="paint33_linear_795_8195" x1="233.5" y1="0" x2="233.5" y2="468" gradientUnits="userSpaceOnUse">
<stop stop-color="white"/>
<stop offset="1" stop-color="white" stop-opacity="0"/>
</linearGradient>
<linearGradient id="paint34_linear_795_8195" x1="233.5" y1="0" x2="233.5" y2="468" gradientUnits="userSpaceOnUse">
<stop stop-color="white"/>
<stop offset="1" stop-color="white" stop-opacity="0"/>
</linearGradient>
<linearGradient id="paint35_linear_795_8195" x1="233.5" y1="0" x2="233.5" y2="468" gradientUnits="userSpaceOnUse">
<stop stop-color="white"/>
<stop offset="1" stop-color="white" stop-opacity="0"/>
</linearGradient>
<linearGradient id="paint36_linear_795_8195" x1="233.5" y1="0" x2="233.5" y2="468" gradientUnits="userSpaceOnUse">
<stop stop-color="white"/>
<stop offset="1" stop-color="white" stop-opacity="0"/>
</linearGradient>
<linearGradient id="paint37_linear_795_8195" x1="233.5" y1="0" x2="233.5" y2="468" gradientUnits="userSpaceOnUse">
<stop stop-color="white"/>
<stop offset="1" stop-color="white" stop-opacity="0"/>
</linearGradient>
<linearGradient id="paint38_linear_795_8195" x1="233.5" y1="0" x2="233.5" y2="468" gradientUnits="userSpaceOnUse">
<stop stop-color="white"/>
<stop offset="1" stop-color="white" stop-opacity="0"/>
</linearGradient>
<linearGradient id="paint39_linear_795_8195" x1="233.5" y1="0" x2="233.5" y2="468" gradientUnits="userSpaceOnUse">
<stop stop-color="white"/>
<stop offset="1" stop-color="white" stop-opacity="0"/>
</linearGradient>
<linearGradient id="paint40_linear_795_8195" x1="233.5" y1="0" x2="233.5" y2="468" gradientUnits="userSpaceOnUse">
<stop stop-color="white"/>
<stop offset="1" stop-color="white" stop-opacity="0"/>
</linearGradient>
</defs>
</svg>
