<svg width="48" height="48" viewBox="0 0 48 48" fill="none" xmlns="http://www.w3.org/2000/svg">
<path d="M40.509 6.00092H23.1777C23.1777 10.3209 26.6748 13.818 30.9947 13.818H34.1832V16.9037C34.1832 21.2236 37.6803 24.7207 42.0002 24.7207V7.49237C42.0003 6.66951 41.3317 6.00092 40.509 6.00092Z" fill="#2684FF"/>
<path d="M31.9212 14.6414H14.5898C14.5898 18.9614 18.0869 22.4584 22.4069 22.4584H25.5954V25.5442C25.5954 29.8641 29.0926 33.3612 33.4126 33.3612V16.1329C33.4126 15.3099 32.7439 14.6414 31.9212 14.6414Z" fill="url(#paint0_linear_866_5238)"/>
<path d="M23.3352 23.2792H6.00391C6.00391 27.5992 9.50101 31.0962 13.821 31.0962H17.0095V34.182C17.0095 38.502 20.5067 41.9991 24.8267 41.9991V24.7707C24.8267 23.9478 24.1581 23.2792 23.3352 23.2792Z" fill="url(#paint1_linear_866_5238)"/>
<defs>
<linearGradient id="paint0_linear_866_5238" x1="33.0561" y1="14.6635" x2="25.6818" y2="22.2682" gradientUnits="userSpaceOnUse">
<stop offset="0.176" stop-color="#0052CC"/>
<stop offset="1" stop-color="#2684FF"/>
</linearGradient>
<linearGradient id="paint1_linear_866_5238" x1="24.9666" y1="23.3461" x2="16.4403" y2="31.6419" gradientUnits="userSpaceOnUse">
<stop offset="0.176" stop-color="#0052CC"/>
<stop offset="1" stop-color="#2684FF"/>
</linearGradient>
</defs>
</svg>
