<svg width="76" height="76" viewBox="0 0 76 76" fill="none" xmlns="http://www.w3.org/2000/svg">
<path d="M37.9199 76C33.0001 76 28.2382 75.1014 23.7426 73.3214C18.9476 71.4235 14.6704 68.6144 11.0287 64.9735C7.38691 61.3325 4.57862 57.0545 2.68076 52.2596C0.713778 47.2902 -0.177805 41.9949 0.0319328 36.5221C0.395636 27.0195 4.28561 18.0565 10.9839 11.2836C17.6774 4.51622 26.587 0.527271 36.0708 0.0528071C41.6701 -0.226844 47.0738 0.62075 52.1326 2.57359C57.0147 4.45809 61.3572 7.28053 65.039 10.9623C68.7208 14.6441 71.5432 18.9866 73.4277 23.8687C75.3806 28.9276 76.2282 34.332 75.9485 39.9313C75.4741 49.4159 71.4859 58.3247 64.7185 65.0182C57.9456 71.7165 48.9826 75.6065 39.48 75.9702C38.9584 75.9898 38.4376 76 37.9191 76H37.9199ZM38.1532 1.25782C37.4832 1.25782 36.8107 1.27432 36.1336 1.30888C17.3153 2.24995 2.00913 17.7384 1.28801 36.57C0.886596 47.0569 4.6611 56.829 11.9179 64.085C18.8235 70.9907 28.008 74.7432 37.9184 74.7432C38.4219 74.7432 38.9254 74.7337 39.4329 74.7141C58.2645 73.9922 73.753 58.686 74.694 39.8677C75.2305 29.1357 71.4867 19.1853 64.1513 11.85C57.2779 4.97812 48.1091 1.25782 38.1532 1.25782Z" fill="white" fill-opacity="0.19"/>
<path d="M29.2776 32.4727C29.2556 32.5089 29.214 32.5254 29.1732 32.5254C29.1543 32.5254 29.1355 32.5214 29.119 32.5152C28.3154 32.0556 27.5534 31.5324 26.7246 30.9621C26.54 30.8357 26.3523 30.7068 26.1606 30.5757C25.2675 29.9747 23.4497 29.1766 19.8646 29.1766C19.4639 29.1766 19.0413 29.1868 18.5951 29.208C18.4097 29.2175 18.2165 29.2293 18.0146 29.2418C17.5425 29.2709 17.028 29.3015 16.4797 29.3094C16.398 29.3094 16.3155 29.311 16.2322 29.311C16.0956 29.311 15.9573 29.3094 15.8167 29.3055C15.6007 29.3 15.3807 29.289 15.1561 29.2725C13.563 29.1538 11.7743 28.7202 9.95266 27.4697C9.14984 26.9292 8.33602 26.007 7.9134 25.1484C7.87099 25.0738 7.85056 24.9787 7.83956 24.8837C7.83092 24.8035 7.90398 24.7383 7.9841 24.7383C7.99903 24.7383 8.01474 24.7407 8.02966 24.7454C11.6109 26.1877 14.0759 26.7556 16.1458 27.0353C16.3705 27.0659 16.5897 27.0934 16.8057 27.1177C17.0296 27.1429 17.2495 27.1657 17.4663 27.1861C17.9691 27.2332 18.4561 27.2701 18.94 27.307C20.4474 27.4217 21.9227 27.5333 23.7514 27.9575C25.5927 28.3887 27.8142 30.772 28.8692 31.9032C29.031 32.0768 29.1653 32.2214 29.2666 32.3243C29.3091 32.3565 29.3091 32.4201 29.2776 32.4727ZM67.9865 24.787C67.959 24.787 67.9315 24.7941 67.9056 24.809C65.3785 26.4571 62.6724 27.1342 60.128 27.4759C59.9065 27.505 59.6865 27.5325 59.4682 27.5568C59.2459 27.5828 59.0251 27.6056 58.806 27.6268C58.0149 27.7045 57.2474 27.7587 56.513 27.8106C54.5044 27.952 52.7463 28.0761 51.4651 28.604C50.7306 28.9009 49.4644 29.8593 47.8281 31.0988L47.6513 31.2324C47.0433 31.6943 46.5115 32.12 46.0033 32.5269C44.9459 33.3737 43.9876 34.1404 42.653 34.9849C42.0827 35.3344 41.6388 35.8961 41.4275 36.5324C41.0787 37.5709 40.5721 38.5567 39.8957 39.4263C39.7748 39.6031 39.6444 39.7767 39.5132 39.951C39.1958 40.3713 38.8745 40.7971 38.6805 41.292C38.5862 41.559 38.5305 41.8316 38.4935 42.1081C38.4566 42.3846 38.4386 42.6651 38.4205 42.9447C38.4095 43.1081 38.3993 43.2707 38.3851 43.4325C38.3726 43.8473 38.3349 44.2621 38.2972 44.6768C38.2705 44.9722 38.2437 45.2683 38.2265 45.5637C38.2516 45.6533 38.3207 45.6941 38.3922 45.6941C38.4731 45.6941 38.558 45.6423 38.5855 45.5527C38.7033 45.3595 38.8109 45.1599 38.9185 44.9604C39.1322 44.5661 39.3451 44.1709 39.6373 43.8237C39.6601 43.7962 39.6899 43.7845 39.7182 43.7845C39.7858 43.7845 39.8502 43.8497 39.8227 43.9298L39.6459 44.4388C39.6436 44.4467 39.642 44.4545 39.6412 44.4632C39.5022 45.8033 39.3647 47.1426 39.2272 48.4828C38.946 51.2196 38.6648 53.9564 38.3741 56.6932C38.3561 56.8149 38.3372 57.0537 38.4873 57.0773C38.492 57.0781 38.4967 57.0781 38.5022 57.0781C38.5336 57.0781 38.565 57.0632 38.5847 57.038C38.6837 56.91 38.7418 56.7615 38.8007 56.6138C38.8164 56.573 38.8329 56.5322 38.8494 56.4921C39.2932 55.3892 39.7371 54.2981 40.1809 53.2062C40.3922 52.6225 40.477 51.9972 40.3498 51.3932C40.2995 51.0483 40.1817 50.7325 40.0599 50.4089C40.0544 50.394 40.0489 50.3798 40.0434 50.3649C39.9594 50.1426 39.9484 49.8881 40.023 49.6548C40.371 48.522 40.7088 47.3987 41.0465 46.2762V46.2738C41.2272 45.7334 41.2799 45.1497 41.2696 44.5881C41.2657 44.2888 41.2241 43.9981 41.1628 43.7122C41.1015 43.4255 41.0214 43.1443 40.9421 42.8622C40.8886 42.6729 40.8352 42.4844 40.7873 42.2935C40.785 42.2833 40.7834 42.2723 40.7842 42.2613C40.7952 42.0916 40.7865 41.8897 40.7771 41.6627C40.7449 40.9055 40.7009 39.8638 41.3223 38.7798C41.5878 38.3085 42.0701 38.0155 42.598 38.0155C42.6168 38.0155 42.6349 38.0155 42.653 38.0163C43.521 38.0524 43.9711 38.475 44.4518 38.9275C45.0331 39.475 45.6608 40.0649 47.1282 40.0649C47.3285 40.0649 47.5445 40.0539 47.7778 40.0304C48.1156 39.999 48.1478 39.585 47.8414 39.5001C46.6207 39.1671 45.9734 38.7798 45.3803 38.4263C44.7197 38.0312 44.1266 37.6769 42.8823 37.4821C42.7567 37.4625 42.7614 37.2786 42.8878 37.2669C43.0599 37.2504 43.2272 37.2425 43.3906 37.2425C44.9452 37.2425 46.1368 37.9401 47.2656 38.5999C48.2821 39.1938 49.2468 39.7586 50.3779 39.7586C50.8045 39.7586 51.2546 39.6785 51.7401 39.4899C51.9192 39.4153 52.11 39.3305 52.2789 39.2142C52.5005 39.0657 52.4266 38.7162 52.1627 38.684H52.1525C49.7872 38.464 48.6419 37.9165 47.5524 37.3957C46.5587 36.9204 45.6097 36.468 43.8258 36.3038C43.6969 36.292 43.6922 36.1058 43.8195 36.0886C44.6097 35.9794 45.2696 35.9315 45.8383 35.9315C47.5209 35.9315 48.4015 36.3525 49.4714 36.8631C50.3591 37.2873 51.3771 37.7735 53.0927 38.1333C53.5656 38.2299 53.993 38.2716 54.3802 38.2716C55.8618 38.2716 56.7628 37.6573 57.4242 37.1365C57.4588 37.1074 57.4972 37.0775 57.5373 37.0477C57.5837 37.0116 57.6324 36.9754 57.6779 36.9354C57.8193 36.8136 57.7188 36.5944 57.5436 36.5944C57.5357 36.5944 57.5279 36.5952 57.5192 36.596C56.8005 36.6895 56.1768 36.7303 55.6198 36.7303C54.011 36.7303 52.9592 36.391 51.7699 36.0061C50.3363 35.5434 48.7024 35.0155 45.6514 34.9409C45.5233 34.9377 45.506 34.7539 45.6309 34.7264C47.2593 34.3667 48.5162 34.2276 49.5406 34.2276C51.2797 34.2276 52.3473 34.6282 53.4187 35.0297C54.3284 35.3706 55.2404 35.7123 56.5687 35.8121C56.8979 35.8364 57.2042 35.8482 57.491 35.8482C59.271 35.8482 60.2631 35.3957 60.9819 34.8176C61.1869 34.6526 61.3699 34.4774 61.5428 34.2999C61.6574 34.1813 61.7674 34.0627 61.8766 33.944L61.9041 33.9142C61.9308 33.882 61.9622 33.8506 61.9944 33.8184C62.0259 33.7869 62.0573 33.7555 62.084 33.7233C62.0848 33.7225 62.0856 33.721 62.0864 33.7202C62.179 33.6149 62.1445 33.4405 62.0243 33.3714C61.9984 33.3565 61.9685 33.3463 61.9355 33.3423C61.9198 33.34 61.9041 33.3392 61.8884 33.3392C61.8169 33.3392 61.7407 33.3565 61.6716 33.3737C61.5789 33.3957 61.4878 33.417 61.3974 33.4374C61.1861 33.4861 60.9811 33.5301 60.7831 33.5701C59.6064 33.8066 58.6567 33.8977 57.846 33.8977C56.5303 33.8977 55.579 33.6581 54.608 33.4138C53.5955 33.1593 52.5617 32.8993 51.0708 32.8993C50.2687 32.8993 49.334 32.9747 48.1981 33.1671C48.1918 33.1679 48.1847 33.1687 48.1776 33.1687C48.0724 33.1687 48.0268 33.0226 48.1266 32.9661C48.8037 32.5772 49.8571 32.1153 51.55 31.9001C51.9938 31.8435 52.4125 31.8192 52.8123 31.8192C54.0252 31.8192 55.066 32.0446 56.1391 32.2771C57.2804 32.5246 58.458 32.7799 59.9167 32.7799C60.0856 32.7799 60.2584 32.7767 60.4352 32.7697C60.4964 32.7673 60.5569 32.7642 60.6166 32.7602C60.8381 32.7477 61.0487 32.728 61.2482 32.7029C61.4674 32.6754 61.6739 32.6401 61.8688 32.5992C64.0353 32.1397 64.7587 30.882 65.4217 29.7281C65.4697 29.6503 65.4304 29.5113 65.2709 29.5113C65.2552 29.5113 65.2387 29.5128 65.2206 29.5152C63.5655 30.157 62.3471 30.4657 61.3369 30.589C61.1131 30.6165 60.9002 30.6354 60.6944 30.6456C60.5278 30.655 60.366 30.6589 60.2081 30.6589C60.1516 30.6589 60.0958 30.6581 60.04 30.6574C59.4132 30.6464 58.8382 30.5741 58.2294 30.4987C57.4721 30.4044 56.6622 30.3039 55.6316 30.3039C55.0566 30.3039 54.414 30.3353 53.6725 30.4162C52.5507 30.5372 51.634 30.7501 51.0802 30.9001C51.0692 30.9032 51.059 30.9048 51.0488 30.9048C50.9506 30.9048 50.898 30.7697 50.9891 30.7069C51.4808 30.3651 52.1203 30.0234 53.176 29.7273C53.711 29.5772 54.3983 29.5364 55.1948 29.5364C55.6316 29.5364 56.1014 29.549 56.597 29.5615C57.1508 29.5757 57.7361 29.5914 58.3441 29.5914C58.7698 29.5914 59.2074 29.5835 59.652 29.5631C59.8688 29.5537 60.0872 29.5403 60.3071 29.523C60.5224 29.5073 60.7392 29.4869 60.9568 29.4626C62.4029 29.3023 63.8923 28.9582 65.3157 28.2544C66.9009 27.4697 67.5663 26.5584 68.1263 25.1374C68.2214 24.9371 68.1098 24.787 67.9857 24.787H67.9865ZM27.0184 32.0863C25.936 31.6008 23.9572 30.8153 22.0507 30.5859C21.5299 30.5222 21.0641 30.501 20.6124 30.501C20.1858 30.501 19.7719 30.5199 19.339 30.5395C18.8614 30.5615 18.3595 30.5843 17.7884 30.5843C17.2707 30.5843 16.6965 30.5655 16.0327 30.5097C15.8308 30.4932 15.6211 30.4728 15.4019 30.4492C15.1985 30.4264 14.9864 30.4005 14.7656 30.3714C13.6258 30.2182 12.2535 29.9653 10.545 29.5576C10.53 29.5537 10.5151 29.5521 10.501 29.5521C10.3549 29.5521 10.2574 29.7399 10.3439 29.8758C10.3494 29.886 10.3549 29.8938 10.3596 29.9017C10.3651 29.9103 10.3706 29.9182 10.3753 29.9284C11.442 31.5199 12.7091 32.2033 14.1859 32.435C14.3917 32.468 14.6022 32.4916 14.8167 32.5081C15.0233 32.523 15.233 32.5317 15.4475 32.534C15.4978 32.5356 15.548 32.5356 15.5991 32.5356C16.6022 32.5356 17.6886 32.4146 18.8583 32.2842C20.2251 32.131 21.7066 31.9661 23.306 31.9661C24.4607 31.9661 25.676 32.0517 26.954 32.2913C26.9619 32.2928 26.9697 32.2936 26.9768 32.2936C27.0868 32.2936 27.1284 32.1357 27.0184 32.0863ZM28.3586 33.4892C27.4175 33.2025 25.8959 32.8262 24.3932 32.8262C24.2738 32.8262 24.1552 32.8286 24.0365 32.8333C23.152 32.871 22.3908 33.0203 21.5385 33.1876C20.222 33.446 18.6886 33.7469 16.1474 33.7469C15.8442 33.7469 15.5268 33.7429 15.193 33.7327C14.9903 33.728 14.7806 33.7202 14.5653 33.7107C14.3595 33.7021 14.1474 33.6911 13.929 33.6785C13.6824 33.6644 13.4271 33.6479 13.1647 33.6283C13.1608 33.6283 13.1569 33.6275 13.1529 33.6275C13.0021 33.6275 12.9346 33.8325 13.0375 33.9464C13.0524 33.9535 13.0618 33.966 13.0697 33.9763C13.0736 33.981 13.0767 33.9857 13.0799 33.9888C13.3085 34.2347 13.541 34.4468 13.7782 34.629C13.9707 34.7775 14.1663 34.9063 14.365 35.0163C14.5606 35.1247 14.7586 35.2158 14.9605 35.2905C15.5237 35.5002 16.1113 35.5874 16.7248 35.5874C18.0311 35.5874 19.4553 35.1946 21.0162 34.7641C22.9085 34.2425 25.002 33.6652 27.3295 33.6652C27.6547 33.6652 27.9846 33.6762 28.3193 33.7005C28.3224 33.7005 28.3256 33.7013 28.3287 33.7013C28.4497 33.7013 28.4795 33.5254 28.3586 33.4892ZM30.0844 35.2425C29.5557 35.0344 28.6429 34.783 27.3248 34.783C26.9069 34.783 26.4497 34.8081 25.9501 34.8678C25.1622 34.9637 24.4757 35.1734 23.7011 35.4091C22.1677 35.8757 20.2911 36.4476 16.614 36.4476H16.5464C16.3988 36.4476 16.3666 36.7233 16.4726 36.8183L16.515 36.8607C17.735 37.6903 18.8182 37.999 19.8457 37.999C21.2188 37.999 22.4922 37.4483 23.8629 36.8568C25.4552 36.1687 27.1779 35.4248 29.335 35.4248C29.5636 35.4248 29.7969 35.4334 30.0357 35.4515H30.0451C30.1614 35.4515 30.1975 35.2865 30.0844 35.2425ZM31.5266 35.9715C31.1786 35.9275 30.756 35.8914 30.3083 35.8914C29.8605 35.8914 29.3499 35.9307 28.8864 36.0414C28.3146 36.1773 27.9092 36.3439 27.4489 36.5332C26.5424 36.9071 25.4207 37.369 22.3783 37.8544C22.0507 37.8969 21.8394 38.3627 22.4521 38.5324C23.0106 38.6879 23.5157 38.7547 23.9831 38.7547C25.3115 38.7547 26.3405 38.2134 27.4646 37.6219C28.5903 37.0288 29.8118 36.3863 31.5266 36.1868C31.6531 36.1718 31.6539 35.988 31.5266 35.9715ZM32.8345 37.2818C32.6531 37.2622 32.4449 37.2472 32.2258 37.2472C31.8424 37.2472 31.4245 37.292 31.0522 37.4334C30.6877 37.5787 30.4457 37.7405 30.1708 37.9244C29.6241 38.2896 28.9493 38.7413 26.932 39.3195C26.7199 39.3831 26.6147 39.7225 27.0899 39.7971C27.4521 39.856 27.7718 39.8835 28.0585 39.8835C29.3444 39.8835 29.9595 39.3415 30.6193 38.7602C31.181 38.2653 31.7756 37.7413 32.8448 37.4955C32.9649 37.468 32.9563 37.2951 32.8345 37.2818ZM36.5973 35.3949C36.4818 35.1467 36.3663 34.8985 36.2823 34.6455C36.0702 34.0689 36.199 33.4931 36.3278 32.9173C36.3977 32.6031 36.4677 32.2881 36.4826 31.9739C36.4826 31.4508 36.1794 31.0321 35.8887 30.6291C35.8322 30.5505 35.7756 30.4728 35.7222 30.395C35.697 30.3604 35.6821 30.3416 35.6695 30.3416C35.6546 30.3416 35.6436 30.3651 35.6271 30.4162C35.4504 31.1782 35.6012 31.981 35.9288 32.684C35.9382 32.7053 35.9413 32.7288 35.9366 32.7516C35.9264 32.7995 35.9162 32.8474 35.906 32.8954C35.8212 33.2913 35.7355 33.6887 35.7536 34.0941C35.7795 34.6361 36.001 35.1192 36.2226 35.6023C36.3655 35.9142 36.5085 36.2252 36.5988 36.5536C36.701 36.9479 36.646 37.3415 36.591 37.739C36.5603 37.9613 36.5289 38.1836 36.525 38.4082C36.525 38.4672 36.5721 38.5127 36.6287 38.5127C36.6428 38.5127 36.6578 38.5104 36.6735 38.5033C36.7049 38.4931 36.7151 38.4719 36.7261 38.4405C36.7591 38.3108 36.7968 38.1828 36.8353 38.054C36.9311 37.7295 37.0277 37.4043 37.0427 37.0618C37.0474 37.0092 37.0489 36.9574 37.0489 36.9055C37.0489 36.3682 36.8219 35.8804 36.5973 35.3949ZM39.6287 32.7642C39.6239 32.7398 39.6271 32.7155 39.6381 32.6935C39.9751 32.0218 40.1361 31.2198 39.9696 30.4798C39.9633 30.4461 39.935 30.4256 39.9052 30.4256C39.8871 30.4256 39.869 30.4327 39.8533 30.4484L39.8172 30.4845C39.5886 30.7131 39.3718 30.9307 39.2013 31.2795C39.1997 31.2834 39.1974 31.2874 39.1958 31.2921C39.1016 31.5364 39.122 31.7304 39.144 31.9346V31.937C39.1448 31.9441 39.1455 31.9519 39.1463 31.959C38.9499 31.7493 38.5729 31.4555 37.9735 31.402C37.9665 31.4013 37.9586 31.4013 37.9515 31.4005C37.9484 31.4005 37.9452 31.3997 37.9413 31.3997C37.8219 31.3997 37.7929 31.5733 37.9115 31.6118C38.0599 31.6597 38.2131 31.7335 38.36 31.8419C38.3702 31.8498 38.3796 31.8592 38.3867 31.8702C38.4103 31.9056 38.4276 31.9441 38.437 31.9849C38.5258 32.4232 38.283 32.9645 38.0937 33.3887C38.012 33.5701 37.9405 33.7296 37.9091 33.8506C37.906 33.8631 37.9052 33.8718 37.9052 33.8788L37.9005 33.9095C37.8196 34.1789 37.7826 34.4641 37.7724 34.7414V38.8741C37.7724 38.8819 37.7709 38.889 37.7693 38.8961C37.7339 39.0555 37.8769 39.2323 38.0348 39.2323C38.0631 39.2323 38.0921 39.2268 38.1212 39.2142C38.1628 39.2016 38.2076 39.1899 38.2532 39.1781C38.5595 39.0964 38.9122 39.0029 38.9767 38.6526C39.0081 38.3815 38.9798 38.1074 38.9515 37.834C38.9327 37.6479 38.9138 37.4617 38.913 37.2771V37.2716C38.8525 36.6416 39.1094 36.0838 39.3671 35.5245C39.5941 35.0304 39.8227 34.5348 39.8321 33.988C39.8321 33.651 39.7559 33.3203 39.6821 33.0006C39.664 32.9213 39.6459 32.8419 39.6287 32.7642ZM36.3608 49.665C36.3506 49.6579 36.3396 49.6532 36.3286 49.6493C36.2328 49.6218 36.1244 49.6124 36.0144 49.6029C35.7481 49.5809 35.4763 49.5574 35.3734 49.2628C35.111 48.5621 34.8612 47.8575 34.6122 47.1544C34.4205 46.6124 34.2289 46.0712 34.0317 45.5315C34.0176 45.504 34.0066 45.4726 33.994 45.4396C33.9563 45.3367 33.9162 45.2267 33.8031 45.2267C33.7858 45.2267 33.767 45.2291 33.7466 45.2346C33.6193 45.288 33.5777 45.3728 33.6193 45.4993C34.0207 47.3233 34.4221 49.1355 34.8345 50.9478C34.8518 51.0028 34.8644 51.0617 34.8769 51.1214C34.9115 51.2808 34.9469 51.4474 35.0773 51.5628C35.2045 51.705 35.3954 51.7749 35.5871 51.7749C35.8086 51.7749 36.0301 51.6815 36.155 51.4992C36.2163 51.4175 36.2556 51.3248 36.2846 51.2282C36.3129 51.1316 36.3302 51.0295 36.3475 50.9273C36.3663 50.8158 36.386 50.7035 36.4197 50.5982C36.4315 50.5401 36.4488 50.478 36.4669 50.4144C36.5415 50.1465 36.6248 49.8464 36.3608 49.665ZM36.9586 45.5951C36.5816 44.4545 36.2218 43.3045 35.8628 42.1576V42.156H35.862C35.6585 41.5041 35.4551 40.8536 35.2485 40.2063C35.2477 40.2024 35.2461 40.1985 35.2438 40.1946C35.2163 40.1372 35.1974 40.0752 35.1786 40.0115C35.1699 39.9825 35.1613 39.9534 35.1519 39.9243C35.1275 39.8521 35.0663 39.8144 35.0042 39.8144C34.9563 39.8144 34.9091 39.8364 34.8769 39.8819C34.8557 39.9086 34.8377 39.9377 34.8188 39.9668C34.8015 39.9942 34.7835 40.0225 34.763 40.0485C34.7615 40.0508 34.7599 40.0532 34.7583 40.0555C34.2532 40.8285 34.2124 41.8756 34.6656 42.68C34.9131 43.167 35.3318 43.5221 35.7347 43.8638L35.7646 43.8889C35.9366 44.222 36.093 44.5653 36.2493 44.9078C36.3789 45.1929 36.5085 45.4765 36.6468 45.7546C36.6499 45.7617 36.653 45.7687 36.6546 45.7766C36.6735 45.8528 36.7167 45.874 36.7701 45.874C36.7827 45.874 36.7968 45.8732 36.8101 45.8708C36.9374 45.8496 37.001 45.7122 36.9586 45.5951Z" fill="url(#paint0_radial_1188_5382)"/>
<path d="M28.2896 9.58531L26.8292 10.1619L26.8347 10.1752C26.9376 10.4353 27.167 10.7016 27.5967 10.5319C27.9235 10.4031 28.222 10.2538 28.4035 10.1619C28.4082 10.1603 28.4121 10.1587 28.4168 10.1564C28.4616 10.1383 28.5064 10.147 28.5236 10.1917L28.6407 10.4871C28.669 10.5586 28.6682 10.5955 28.5928 10.6411C28.3225 10.81 28.1568 10.9011 27.7538 11.0605C27.3061 11.2373 26.5739 11.2467 26.2252 10.3638L26.094 10.0323C25.8183 9.33315 26.0343 8.74007 26.7201 8.46985C27.4098 8.19726 27.9722 8.51933 28.2361 9.18704L28.3351 9.43763C28.3634 9.50911 28.3524 9.56017 28.2896 9.58531ZM27.6101 9.3465C27.4718 8.99694 27.2 8.87126 26.9219 8.98123C26.6439 9.09121 26.5205 9.36771 26.6603 9.72199L26.6674 9.74006L27.6171 9.36536L27.6101 9.34729V9.3465Z" fill="white"/>
<path d="M30.4623 10.1509C30.2817 10.202 29.885 10.2876 29.6061 10.2907C29.5464 10.2923 29.504 10.2648 29.4883 10.209L29.4105 9.93094C29.4003 9.89402 29.4223 9.84768 29.4734 9.83354C29.4781 9.83197 29.4828 9.83118 29.4875 9.82961C29.7177 9.79505 30.1418 9.70157 30.2809 9.66229C30.5684 9.58138 30.5833 9.47298 30.548 9.34729C30.5236 9.25931 30.4521 9.21925 30.2777 9.16819L29.5331 8.95688C29.2668 8.88147 29.0397 8.6953 28.9643 8.42586C28.8347 7.9616 29.0617 7.64818 29.6509 7.48321C30.0264 7.37795 30.2518 7.35988 30.5024 7.34496C30.5621 7.34339 30.6006 7.37245 30.6155 7.42822L30.6909 7.69688C30.7066 7.75265 30.6831 7.79428 30.6367 7.80685C30.632 7.80842 30.6273 7.80921 30.6226 7.81078C30.4875 7.82885 30.1057 7.89562 29.8418 7.96946C29.6195 8.03152 29.5362 8.11007 29.5763 8.25382C29.5967 8.32766 29.6799 8.35516 29.8151 8.39208L30.5268 8.59317C30.9824 8.72043 31.1033 8.93724 31.1693 9.17369C31.2824 9.57745 31.0703 9.982 30.4631 10.1517L30.4623 10.1509Z" fill="white"/>
<path d="M33.4623 9.44155C33.3523 9.48162 33.1143 9.54682 32.9156 9.58374C32.4466 9.6725 32.1371 9.5641 32.0334 9.01501L31.5825 6.62933C31.5731 6.57749 31.6092 6.53586 31.6595 6.517L32.0853 6.35832C32.09 6.35754 32.0947 6.35675 32.0994 6.35597C32.1418 6.34811 32.189 6.38817 32.1976 6.43531L32.2856 6.89956L32.9533 6.77387C33.0051 6.76366 33.0562 6.79822 33.0656 6.85086L33.1182 7.13051C33.1277 7.18235 33.0931 7.23341 33.0413 7.24284L32.3736 7.36852L32.6626 8.89718C32.6988 9.08649 32.7899 9.10377 32.9933 9.06528L33.3673 8.99458C33.4285 8.9828 33.471 8.9993 33.4804 9.04722L33.5362 9.34101C33.5448 9.38814 33.522 9.42192 33.4623 9.44313V9.44155Z" fill="white"/>
<path d="M34.8291 9.26167L34.4034 9.31273C34.3507 9.31901 34.3028 9.2813 34.2965 9.22867L34.2313 8.68822C34.2251 8.63559 34.2636 8.59239 34.3162 8.5861L34.7419 8.53505C34.7946 8.52876 34.8425 8.56175 34.8488 8.61438L34.914 9.15483C34.9203 9.20746 34.8826 9.25538 34.8299 9.26167H34.8291Z" fill="white"/>
<path d="M39.1779 7.30097L38.738 7.58062C38.2784 7.87441 38.0428 8.11007 38.0341 8.50991V8.52955L39.6186 8.56333C39.6712 8.56411 39.7144 8.59946 39.7128 8.65209L39.705 9.01815C39.7042 9.07078 39.6594 9.1132 39.6068 9.11242L37.5644 9.06921C37.5118 9.06842 37.4693 9.02365 37.4701 8.97102L37.4803 8.49891C37.4913 7.96946 37.8338 7.50914 38.2392 7.25226L38.723 6.94433C39.0993 6.70632 39.1732 6.63091 39.1787 6.36618C39.1842 6.10617 39.0223 6.0064 38.6225 5.99776C38.3381 5.99148 37.9477 6.02211 37.6579 6.04961C37.6547 6.04961 37.6516 6.04961 37.6484 6.04961C37.5958 6.04882 37.5628 6.00405 37.5636 5.95142L37.5699 5.66234C37.5707 5.61442 37.6147 5.58614 37.6634 5.57279C37.9155 5.51073 38.3209 5.46595 38.6343 5.47302C39.4772 5.49109 39.8134 5.78253 39.8 6.37953C39.7914 6.77937 39.5785 7.04488 39.1779 7.30097Z" fill="white"/>
<path d="M41.9076 9.39442C41.1346 9.28602 40.7246 8.77621 40.8911 7.58847L40.9406 7.23577C41.1072 6.04804 41.6421 5.66548 42.4151 5.77388C43.188 5.88229 43.5973 6.39681 43.4316 7.58455L43.3821 7.93725C43.2155 9.12498 42.6814 9.50283 41.9084 9.39442H41.9076ZM42.7678 7.49107C42.8887 6.62776 42.6688 6.35832 42.3397 6.31276C42.0105 6.2672 41.7246 6.46516 41.6044 7.32846L41.5549 7.68117C41.4339 8.54447 41.6547 8.8092 41.9838 8.85476C42.3129 8.90032 42.5981 8.70708 42.7191 7.84377L42.7686 7.49107H42.7678Z" fill="white"/>
<path d="M46.1417 8.40386L45.6483 8.57275C45.133 8.75028 44.8479 8.92467 44.7458 9.31116L44.741 9.33001L46.2736 9.73456C46.3247 9.74791 46.3585 9.7919 46.3443 9.84296L46.2508 10.1972C46.2375 10.2483 46.1841 10.2789 46.133 10.2656L44.1582 9.74399C44.1071 9.73063 44.0765 9.67722 44.0898 9.62616L44.21 9.16976C44.3451 8.65759 44.7858 8.29074 45.2406 8.13599L45.7827 7.95061C46.2037 7.80764 46.2933 7.75187 46.3616 7.49578C46.4284 7.24441 46.294 7.1093 45.9076 7.00718C45.6326 6.93491 45.2454 6.87206 44.9578 6.83122C44.9547 6.83017 44.9516 6.82938 44.9484 6.82886C44.8974 6.81551 44.8754 6.76445 44.8895 6.71339L44.9633 6.43374C44.9759 6.38739 45.0246 6.37011 45.0749 6.36854C45.3341 6.36696 45.7395 6.4196 46.0419 6.49893C46.8573 6.71417 47.1149 7.0763 46.9625 7.65367C46.8604 8.04016 46.591 8.24832 46.1417 8.40386Z" fill="white"/>
<path d="M48.2123 11.0464C47.8808 10.9152 47.6271 10.7573 47.3969 10.5932C47.3561 10.5664 47.3278 10.5193 47.3459 10.4745L47.4559 10.1972C47.4755 10.1478 47.5234 10.1305 47.5682 10.1485C47.5713 10.1496 47.5742 10.1509 47.5768 10.1525C47.9162 10.3284 48.1927 10.469 48.4071 10.5547C48.7701 10.6984 48.9727 10.5924 49.0968 10.2789L49.1338 10.1847C49.228 9.94744 49.2414 9.70392 48.9012 9.56881L48.1086 9.2546C48.0592 9.23496 48.0379 9.18468 48.0576 9.13598L48.1691 8.85397C48.1888 8.80448 48.239 8.78328 48.2877 8.80291L49.0803 9.11713C49.4205 9.25224 49.5721 9.07942 49.6664 8.8414L49.6946 8.76992C49.785 8.54133 49.7755 8.30488 49.3639 8.14071C49.0458 8.01424 48.8934 7.98046 48.4833 7.8642C48.4802 7.86315 48.4773 7.8621 48.4747 7.86106C48.4299 7.84299 48.4064 7.79743 48.426 7.74872L48.536 7.47143C48.554 7.42665 48.6067 7.41094 48.6546 7.42037C48.935 7.45886 49.2272 7.51778 49.5587 7.64975C50.2037 7.90583 50.5846 8.3418 50.3168 9.01815L50.2885 9.08963C50.1644 9.40306 49.9342 9.56567 49.6404 9.59945C49.8337 9.83118 49.869 10.1462 49.7559 10.4329L49.7182 10.5272C49.4535 11.1941 48.8463 11.3009 48.2108 11.0488L48.2123 11.0464Z" fill="white"/>
<path fill-rule="evenodd" clip-rule="evenodd" d="M23.6497 9.11987C23.8795 9.20016 24.0006 9.4515 23.9204 9.68127L23.2434 11.6186L25.1807 12.2956C25.4105 12.3759 25.5317 12.6272 25.4514 12.857C25.3711 13.0868 25.1198 13.2079 24.89 13.1276L22.5366 12.3053C22.3069 12.225 22.1857 11.9737 22.266 11.7439L23.0883 9.39052C23.1686 9.16076 23.4199 9.03959 23.6497 9.11987Z" fill="#CE9C2F"/>
<path fill-rule="evenodd" clip-rule="evenodd" d="M52.7478 9.11987C52.518 9.20016 52.3968 9.4515 52.4771 9.68127L53.1541 11.6186L51.2167 12.2956C50.987 12.3759 50.8658 12.6272 50.9461 12.857C51.0264 13.0868 51.2777 13.2079 51.5075 13.1276L53.8608 12.3053C54.0906 12.225 54.2118 11.9737 54.1315 11.7439L53.3091 9.39052C53.2289 9.16076 52.9775 9.03959 52.7478 9.11987Z" fill="#CE9C2F"/>
<path d="M42.3998 23.8106C42.3103 23.747 42.1909 23.7462 42.1005 23.8067L40.5829 24.8066C40.5248 24.8459 40.4839 24.9064 40.4706 24.9755C40.4564 25.0439 40.4706 25.1154 40.5106 25.1743C40.5978 25.3047 40.6442 25.4563 40.6442 25.6134C40.6442 26.0509 40.2883 26.4068 39.8508 26.4068C39.4132 26.4068 39.0574 26.0509 39.0574 25.6134C39.0574 25.3565 39.1846 25.1138 39.3967 24.9645C39.5161 24.8813 39.5452 24.7163 39.4611 24.5969L38.2161 22.8184C38.1179 22.6771 37.8814 22.6771 37.7832 22.8184L36.5382 24.5969C36.4549 24.7163 36.4832 24.8813 36.6026 24.9645C36.8147 25.1138 36.9419 25.3565 36.9419 25.6134C36.9419 26.0509 36.5861 26.4068 36.1485 26.4068C35.711 26.4068 35.3551 26.0509 35.3551 25.6134C35.3551 25.4563 35.4007 25.3047 35.4887 25.1743C35.528 25.1161 35.5421 25.0447 35.5287 24.9755C35.5154 24.9064 35.4745 24.8459 35.4164 24.8066L33.8988 23.8067C33.8076 23.7462 33.689 23.747 33.5995 23.8106C33.5099 23.8734 33.4691 23.985 33.495 24.091L34.5696 28.3211C34.6026 28.4547 34.7314 28.5434 34.8697 28.5175C36.9466 28.1719 39.0511 28.1719 41.128 28.5175C41.1422 28.5199 41.1571 28.5214 41.1712 28.5214C41.2907 28.5214 41.3983 28.4405 41.4281 28.3211L42.5027 24.091C42.5287 23.985 42.4878 23.8742 42.3983 23.8106H42.3998Z" fill="url(#paint1_radial_1188_5382)"/>
<path fill-rule="evenodd" clip-rule="evenodd" d="M19.5053 13.6515C19.7114 13.9116 19.6677 14.2895 19.4076 14.4957C16.9214 16.4663 14.7638 18.8192 13.0156 21.4665C12.8327 21.7434 12.4599 21.8196 12.1829 21.6367C11.906 21.4539 11.8297 21.0811 12.0126 20.8041C13.831 18.0507 16.0751 15.6034 18.661 13.5538C18.9211 13.3476 19.2991 13.3914 19.5053 13.6515Z" fill="#CE9C2F"/>
<path fill-rule="evenodd" clip-rule="evenodd" d="M56.541 13.6538C56.3348 13.9139 56.3785 14.2919 56.6386 14.4981C59.1312 16.4743 61.2933 18.8347 63.0437 21.4908C63.2263 21.7679 63.599 21.8445 63.8762 21.6619C64.1533 21.4793 64.2299 21.1066 64.0473 20.8295C62.2267 18.0668 59.9779 15.6117 57.3853 13.5563C57.1252 13.3501 56.7472 13.3938 56.541 13.6538Z" fill="#CE9C2F"/>
<path fill-rule="evenodd" clip-rule="evenodd" d="M67.9003 31.5026C67.5746 31.5665 67.3624 31.8823 67.4263 32.208C68.227 36.2866 68.1704 40.4872 67.2602 44.5427C67.1876 44.8666 67.3912 45.188 67.715 45.2607C68.0388 45.3334 68.3603 45.1298 68.4329 44.8059C69.3796 40.5877 69.4385 36.2187 68.6057 31.9765C68.5418 31.6508 68.2259 31.4386 67.9003 31.5026Z" fill="white" fill-opacity="0.19"/>
<path fill-rule="evenodd" clip-rule="evenodd" d="M8.14172 31.5026C8.4674 31.5665 8.67958 31.8823 8.61565 32.208C7.815 36.2866 7.87157 40.4872 8.78175 44.5427C8.85443 44.8666 8.65083 45.188 8.32699 45.2607C8.00316 45.3334 7.68172 45.1298 7.60904 44.8059C6.66235 40.5877 6.60352 36.2187 7.43628 31.9765C7.50021 31.6508 7.81605 31.4386 8.14172 31.5026Z" fill="white" fill-opacity="0.19"/>
<path fill-rule="evenodd" clip-rule="evenodd" d="M38.4179 13.5855C34.6902 13.5249 30.9983 14.3193 27.6256 15.9078C24.2528 17.4962 21.2889 19.8365 18.9615 22.7488C18.7543 23.0081 18.7965 23.3863 19.0558 23.5935C19.315 23.8007 19.6932 23.7584 19.9004 23.4992C22.1132 20.7303 24.931 18.5053 28.1377 16.9951C31.3443 15.4849 34.8543 14.7296 38.3983 14.7872C41.9423 14.8449 45.4259 15.7139 48.5817 17.3276C51.7376 18.9412 54.4816 21.2567 56.6032 24.096C56.8018 24.3619 57.1784 24.4164 57.4443 24.2177C57.7101 24.0191 57.7646 23.6425 57.566 23.3766C55.3345 20.3901 52.4482 17.9548 49.1289 16.2575C45.8096 14.5602 42.1455 13.6461 38.4179 13.5855Z" fill="white" fill-opacity="0.19"/>
<path fill-rule="evenodd" clip-rule="evenodd" d="M38.4576 62.3748C32.2639 62.4856 26.2599 60.2362 21.6636 56.083C17.0673 51.9297 14.223 46.1837 13.7076 40.0104C13.68 39.6796 13.9257 39.3891 14.2564 39.3615C14.5872 39.3339 14.8777 39.5796 14.9053 39.9104C15.3953 45.7796 18.0995 51.2426 22.4694 55.1912C26.8392 59.1399 32.5475 61.2784 38.4361 61.1731C44.3248 61.0677 49.9529 58.7263 54.1787 54.6239C58.4045 50.5215 60.9116 44.9652 61.1914 39.0823C61.2071 38.7508 61.4887 38.4948 61.8202 38.5106C62.1517 38.5263 62.4077 38.8079 62.3919 39.1394C62.0976 45.3271 59.4606 51.1713 55.0159 55.4863C50.5711 59.8013 44.6514 62.2639 38.4576 62.3748Z" fill="white" fill-opacity="0.19"/>
<path d="M8.10024 52.6158C7.94038 52.347 7.49631 51.4859 7.34108 51.1067C6.82364 49.8417 6.88465 48.8068 8.51419 48.1403L11.7099 46.8336C11.7887 46.8012 11.8721 46.8421 11.9046 46.9209L12.2876 47.8577C12.3201 47.9365 12.2892 48.0237 12.2104 48.0562L9.01541 49.3629C8.28636 49.661 8.07244 49.9738 8.33502 50.6171C8.43464 50.8604 8.59914 51.2017 8.72734 51.4326L12.8946 49.7282C12.9734 49.6957 13.0568 49.7367 13.0893 49.8154L13.4692 50.7445C13.5017 50.8233 13.4731 50.9183 13.3951 50.9499L8.77059 52.8413C8.41997 52.9842 8.26783 52.8969 8.10179 52.6142L8.10024 52.6158Z" fill="white"/>
<path d="M10.3105 56.5985L9.75758 55.7235C9.71202 55.6517 9.74214 55.569 9.81396 55.5235L14.4091 52.6173C14.4809 52.5718 14.562 52.5849 14.6076 52.6559L15.1605 53.5309C15.2061 53.6028 15.1868 53.6877 15.115 53.7333L10.5198 56.6394C10.448 56.685 10.3561 56.6695 10.3105 56.5977V56.5985Z" fill="white"/>
<path d="M14.2562 61.5026C14.1087 61.4161 13.7557 61.1295 13.4005 60.7225C12.6282 59.8383 12.3618 58.5941 13.7465 57.3847L14.4794 56.7445C15.8641 55.535 17.055 55.9714 17.8273 56.8557C18.1833 57.2627 18.4196 57.6511 18.4853 57.8087C18.5332 57.9106 18.5509 57.977 18.4691 58.0481L17.9045 58.5408C17.835 58.6018 17.7578 58.6072 17.6867 58.5261L17.6767 58.5146C17.5014 58.2782 17.2504 57.933 16.9716 57.6133C16.621 57.2117 16.1321 57.075 15.3583 57.7508L14.6253 58.391C13.8515 59.0667 13.9218 59.5695 14.2724 59.9711C14.552 60.2908 14.8601 60.5858 15.071 60.7913L15.081 60.8029C15.1521 60.884 15.1358 60.9596 15.0663 61.0207L14.5018 61.5134C14.4207 61.5844 14.3504 61.5636 14.2562 61.5026Z" fill="white"/>
<path d="M20.0129 66.2838L19.1548 65.7054C19.0846 65.6583 19.0784 65.5702 19.1255 65.5L22.1637 60.9913C22.2108 60.921 22.2904 60.9002 22.3606 60.9473L23.2187 61.5257C23.2889 61.5728 23.3059 61.6586 23.258 61.7296L20.2198 66.2383C20.1727 66.3085 20.0824 66.3317 20.0121 66.2846L20.0129 66.2838Z" fill="white"/>
<path d="M27.8455 65.1625L26.7102 64.6358L24.8181 68.7135C24.7826 68.7907 24.6899 68.8239 24.6126 68.7884L23.6952 68.3628C23.6179 68.3273 23.584 68.2346 23.6202 68.1574L25.5124 64.0805L24.3701 63.5507C24.2929 63.5152 24.2558 63.4294 24.2921 63.3522L24.6273 62.6309C24.6628 62.5537 24.7524 62.5274 24.8289 62.5629L28.3034 64.1755C28.3807 64.211 28.4247 64.2998 28.3892 64.377L28.054 65.0984C28.0185 65.1756 27.9219 65.1988 27.8447 65.1632L27.8455 65.1625Z" fill="white"/>
<path d="M36.1476 71.6466L35.1351 71.5269C35.051 71.5169 35.0054 71.4412 35.0154 71.357L35.2363 69.4935L33.572 69.2958L33.3511 71.1593C33.3411 71.2435 33.2716 71.3053 33.1874 71.2952L32.1749 71.1755C32.0908 71.1655 32.0297 71.0883 32.0398 71.0041L32.5039 67.0932C32.6677 65.7123 33.5404 65.5054 34.5675 65.6274L35.1274 65.6938C36.1553 65.8158 36.9469 66.2205 36.7832 67.6014L36.3191 71.5123C36.309 71.5964 36.2318 71.6574 36.1476 71.6474V71.6466ZM35.4796 67.4454C35.5298 67.0237 35.4224 66.8785 34.993 66.8275L34.4331 66.7611C34.0115 66.7109 33.8655 66.826 33.8153 67.2477L33.701 68.2138L35.3653 68.4115L35.4796 67.4454Z" fill="white"/>
<path d="M42.5978 71.3238C42.441 71.391 42.0008 71.5061 41.4618 71.5509C40.2918 71.649 39.1318 71.1269 38.9781 69.295L38.8962 68.325C38.7425 66.4931 39.799 65.7919 40.9691 65.6938C41.5081 65.6482 41.9607 65.6876 42.1267 65.7286C42.2372 65.7502 42.3013 65.7757 42.3105 65.8838L42.3731 66.6306C42.3808 66.7233 42.3399 66.7881 42.2318 66.7974C42.2318 66.7974 42.224 66.7974 42.2163 66.799C41.9221 66.8005 41.4958 66.7974 41.0718 66.8329C40.5404 66.8777 40.1404 67.1905 40.2269 68.2138L40.3087 69.1838C40.3945 70.2071 40.8416 70.4488 41.3722 70.404C41.7954 70.3685 42.2155 70.2944 42.5059 70.2465C42.5136 70.2465 42.5214 70.2449 42.5214 70.2449C42.6287 70.2357 42.6805 70.2936 42.6882 70.3863L42.7507 71.1331C42.76 71.2412 42.7013 71.2844 42.5963 71.3246L42.5978 71.3238Z" fill="white"/>
<path d="M49.5098 69.7005L48.5329 69.9908C48.4518 70.0148 48.38 69.9638 48.3553 69.8827L47.8201 68.084L46.2137 68.5621L46.7489 70.3608C46.7728 70.4419 46.7334 70.5268 46.6524 70.5507L45.6754 70.8411C45.5943 70.8651 45.5078 70.8187 45.4831 70.7369L44.3602 66.9611C43.964 65.6289 44.683 65.093 45.6746 64.7979L46.2152 64.6373C47.2076 64.3423 48.095 64.401 48.4912 65.7332L49.6141 69.5089C49.638 69.59 49.5917 69.6765 49.5098 69.7012V69.7005ZM47.2323 66.107C47.1111 65.7 46.9551 65.6088 46.5411 65.7324L46.0005 65.893C45.5935 66.0143 45.5047 66.1773 45.626 66.5843L45.9032 67.5172L47.5096 67.0391L47.2323 66.1062V66.107Z" fill="white"/>
<path d="M54.1567 67.5967C53.5976 67.9103 52.9682 68.1922 52.6654 68.3003C52.5264 68.352 52.4245 68.3289 52.338 68.1736L49.8419 63.7206C49.7554 63.5654 49.7886 63.4673 49.9053 63.3754C50.1547 63.173 50.7247 62.7838 51.2838 62.4702C52.6245 61.7188 53.8293 61.9729 54.6263 63.3947L55.1136 64.2635C55.9106 65.6853 55.4982 66.8453 54.1575 67.5967H54.1567ZM53.474 64.0403C52.9643 63.1306 52.4376 63.1074 51.8313 63.4472C51.663 63.5414 51.4514 63.6688 51.3603 63.7291L53.1234 66.8754C53.2215 66.8291 53.4408 66.7148 53.6092 66.6206C54.2154 66.2807 54.4703 65.8189 53.9606 64.9099L53.4732 64.0411L53.474 64.0403Z" fill="white"/>
<path d="M61.1097 62.4023C60.9313 62.6085 60.6741 62.9135 60.0447 63.4611C59.2925 64.1145 58.4615 64.4998 57.5386 63.4395L55.8565 61.5041C54.9344 60.443 55.4426 59.6738 56.194 59.0204C56.8235 58.4729 57.1555 58.2667 57.3849 58.1184C57.4768 58.0589 57.5371 58.0581 57.6027 58.1338L58.0738 58.676C58.1294 58.7401 58.1225 58.8382 58.0584 58.8938L56.8752 59.9225C56.601 60.1603 56.5833 60.3403 56.8466 60.643L57.3077 61.1736L58.8175 59.8614C58.8816 59.8058 58.9797 59.8128 59.0353 59.8769L59.5164 60.4306C59.5721 60.4947 59.5651 60.5928 59.501 60.6484L57.9912 61.9605L58.5287 62.5784C58.792 62.8811 58.972 62.8888 59.2461 62.6502L60.4293 61.6215C60.4934 61.5659 60.5915 61.5728 60.6471 61.6369L61.1182 62.1791C61.1838 62.2548 61.1792 62.3204 61.1081 62.4031L61.1097 62.4023Z" fill="white"/>
<path d="M66.3497 56.0865L65.7458 56.9082C65.7048 56.9646 65.6168 56.9669 65.5481 56.9167L62.9532 55.0091C62.9099 54.9775 62.8898 54.9914 62.8806 55.0037C62.8667 55.0222 62.8705 55.0439 62.8875 55.0856L63.503 56.4C63.5455 56.4981 63.5308 56.5838 63.4714 56.6641L63.1053 57.1623C63.0458 57.2434 62.9694 57.2827 62.862 57.2712L61.424 57.0765C61.3792 57.0727 61.3576 57.0758 61.3437 57.0943C61.3344 57.1067 61.3267 57.1298 61.3707 57.1623L63.9656 59.0691C64.0344 59.1193 64.0583 59.2042 64.0174 59.2598L63.4134 60.0815C63.3771 60.131 63.3169 60.1734 63.2489 60.1232L58.9241 56.9445C58.7936 56.8487 58.7812 56.6958 58.877 56.5645L59.3072 55.9799C59.4029 55.8494 59.5296 55.8077 59.6763 55.8293L62.15 56.1807C62.2179 56.1923 62.2627 56.1969 62.2813 56.1714C62.2998 56.1467 62.282 56.105 62.2504 56.0432L61.1769 53.7874C61.112 53.6537 61.1143 53.5209 61.2101 53.3904L61.6403 52.8058C61.736 52.6752 61.892 52.6459 62.0225 52.7417L66.3412 55.9158C66.4099 55.966 66.3868 56.0355 66.3505 56.0857L66.3497 56.0865Z" fill="white"/>
<path d="M64.4869 47.0306L66.9058 49.861L68.8272 50.6712C68.9052 50.7044 68.9454 50.7878 68.9122 50.8665L68.5098 51.8203C68.4766 51.8983 68.3916 51.9215 68.3136 51.8883L66.3922 51.0781L62.6767 51.3222C62.6496 51.3276 62.628 51.3183 62.6064 51.3091C62.5492 51.2851 62.5323 51.2272 62.5585 51.1631L62.9995 50.1174C63.0296 50.0464 63.1014 50.0348 63.1771 50.0332L65.4677 49.9684L63.9123 48.2902C63.8606 48.2346 63.8212 48.1681 63.8513 48.0971L64.2892 47.0584C64.3162 46.9943 64.3695 46.9665 64.4267 46.9904C64.4483 46.9997 64.4692 47.0082 64.4846 47.0313L64.4869 47.0306Z" fill="white"/>
<defs>
<radialGradient id="paint0_radial_1188_5382" cx="0" cy="0" r="1" gradientUnits="userSpaceOnUse" gradientTransform="translate(38.0014 40.9086) scale(24.199 24.1992)">
<stop stop-color="white"/>
<stop offset="0.55" stop-color="#FDFDFB"/>
<stop offset="0.74" stop-color="#F3F1F0"/>
<stop offset="0.88" stop-color="#E7E3E1"/>
<stop offset="0.99" stop-color="#D9D2CF"/>
<stop offset="1" stop-color="#D8D0CE"/>
</radialGradient>
<radialGradient id="paint1_radial_1188_5382" cx="0" cy="0" r="1" gradientUnits="userSpaceOnUse" gradientTransform="translate(38 25.6169) scale(3.79414 3.79363)">
<stop stop-color="#FECB7C"/>
<stop offset="0.18" stop-color="#F6C473"/>
<stop offset="0.5" stop-color="#E9B65D"/>
<stop offset="0.9" stop-color="#D6A239"/>
<stop offset="1" stop-color="#CF9C30"/>
</radialGradient>
</defs>
</svg>
