<svg width="85" height="85" viewBox="0 0 85 85" fill="none" xmlns="http://www.w3.org/2000/svg">
<path fill-rule="evenodd" clip-rule="evenodd" d="M37.5686 21.8531C34.4343 21.8531 31.8935 24.3133 31.8935 27.3481V31.1522H41.7158V32.2089H27.5281C24.3938 32.2089 21.853 34.6691 21.853 37.7038L21.853 45.9462C21.853 48.9809 24.3938 51.4411 27.5281 51.4411H30.8022V46.7916C30.8022 43.7568 33.343 41.2967 36.4772 41.2967H46.9543C49.6063 41.2967 51.7563 39.215 51.7563 36.6471V27.3481C51.7563 24.3133 49.2154 21.8531 46.0812 21.8531H37.5686ZM36.259 28.6161C37.3439 28.6161 38.2234 27.7645 38.2234 26.714C38.2234 25.6635 37.3439 24.8119 36.259 24.8119C35.174 24.8119 34.2945 25.6635 34.2945 26.714C34.2945 27.7645 35.174 28.6161 36.259 28.6161Z" fill="#1D71EE"/>
<path fill-rule="evenodd" clip-rule="evenodd" d="M46.0812 61.7969C49.2155 61.7969 51.7563 59.3368 51.7563 56.302V52.4979L41.9341 52.4979L41.9341 51.4411L56.1217 51.4412C59.256 51.4412 61.7968 48.981 61.7968 45.9462V37.7039C61.7968 34.6691 59.256 32.209 56.1217 32.209L52.8476 32.209V36.8585C52.8476 39.8933 50.3068 42.3534 47.1726 42.3534L36.6955 42.3534C34.0435 42.3534 31.8936 44.4351 31.8936 47.003L31.8936 56.302C31.8936 59.3368 34.4344 61.7969 37.5686 61.7969H46.0812ZM47.3908 55.034C46.3059 55.034 45.4264 55.8856 45.4264 56.9361C45.4264 57.9865 46.3059 58.8381 47.3908 58.8381C48.4758 58.8381 49.3553 57.9865 49.3553 56.9361C49.3553 55.8856 48.4758 55.034 47.3908 55.034Z" fill="#1D71EE"/>
<circle cx="42.5" cy="42.5" r="42.1196" stroke="#1D71EE" stroke-opacity="0.24" stroke-width="0.76087"/>
</svg>
