<svg width="48" height="48" viewBox="0 0 48 48" fill="none" xmlns="http://www.w3.org/2000/svg">
<path d="M41.6218 34.8365L37.7648 30.9794C37.3977 30.6117 36.8436 30.5018 36.3641 30.7005C35.8832 30.8997 35.5702 31.3684 35.5702 31.8884V33.1741H21.4277V38.3168H35.5702V39.6025C35.5702 40.1225 35.8832 40.5911 36.3641 40.7904C36.5228 40.856 36.69 40.8881 36.8558 40.8881C37.1908 40.8881 37.5192 40.7576 37.7654 40.5114L41.6225 36.6544C42.1239 36.1524 42.1239 35.3385 41.6218 34.8365Z" fill="#FAB400"/>
<path d="M41.9521 14.9285C41.8524 14.6887 41.6178 14.5319 41.3581 14.5319H40.876C40.876 10.5444 37.6316 7.29996 33.644 7.29996C29.6565 7.29996 26.4121 10.5444 26.4121 14.5319C26.4121 16.4636 27.1642 18.2803 28.5303 19.6457L30.5758 17.5995C29.7562 16.7805 29.3049 15.6909 29.3049 14.5319C29.3049 12.1392 31.2514 10.1927 33.644 10.1927C36.0367 10.1927 37.9832 12.1392 37.9832 14.5319H37.5011C37.2413 14.5319 37.0067 14.6887 36.9071 14.9285C36.8074 15.1689 36.8627 15.4454 37.0466 15.6292L38.9751 17.5577C39.1004 17.6831 39.265 17.7461 39.4296 17.7461C39.5941 17.7461 39.7587 17.6831 39.8841 17.5577L41.8126 15.6292C41.9964 15.4454 42.0517 15.1689 41.9521 14.9285Z" fill="#00A0C8"/>
<path d="M32.3332 33.1727H22.0723V38.3154C26.2655 38.3154 29.985 36.2885 32.3332 33.1727Z" fill="#DC9600"/>
<path d="M29.3126 14.6815C28.4737 14.0271 27.5557 13.471 26.569 13.039C26.4674 13.5212 26.4121 14.02 26.4121 14.5311C26.4121 16.4628 27.1642 18.2794 28.5303 19.6448L30.5758 17.5987C29.7928 16.8157 29.3505 15.7839 29.3126 14.6815Z" fill="#0082AA"/>
<path d="M21.4285 12.6034C14.7732 12.6034 9.28271 17.6869 8.63538 24.1744H7.28606C6.766 24.1744 6.29738 24.4875 6.0981 24.9683C5.89882 25.4485 6.00874 26.0014 6.37709 26.3691L10.2341 30.2261C10.4848 30.4775 10.814 30.6028 11.1431 30.6028C11.4722 30.6028 11.8014 30.4775 12.0521 30.2261L15.9091 26.3691C16.2768 26.0014 16.3867 25.4485 16.1881 24.9683C15.9888 24.4875 15.5202 24.1744 15.0001 24.1744H13.8224C14.4363 20.5308 17.6132 17.7461 21.4285 17.7461C25.6821 17.7461 29.1425 21.2065 29.1425 25.4601C29.1425 29.7138 25.6821 33.1742 21.4285 33.1742H7.28606C6.57572 33.1742 6.00038 33.7495 6.00038 34.4598V37.0312C6.00038 37.7415 6.57572 38.3169 7.28606 38.3169H21.4285C28.5177 38.3169 34.2852 32.5493 34.2852 25.4601C34.2852 18.3709 28.5177 12.6034 21.4285 12.6034Z" fill="#C80A50"/>
<path d="M25.966 26.5966L25.2158 26.1633C25.2582 25.9351 25.2833 25.7005 25.2833 25.4601C25.2833 25.2197 25.2582 24.985 25.2164 24.7568L25.9666 24.3235C26.2739 24.1461 26.3793 23.7527 26.2019 23.4454L25.559 22.332C25.3816 22.0248 24.9882 21.9193 24.6809 22.0968L24.301 22.316C24.0927 22.4362 23.8305 22.4375 23.6337 22.2999C23.4531 22.1739 23.2615 22.0633 23.0603 21.9695C22.8418 21.8679 22.7119 21.6397 22.7119 21.3993V20.9602C22.7119 20.6054 22.4239 20.3174 22.0691 20.3174H20.7834C20.4286 20.3174 20.1406 20.6054 20.1406 20.9602V21.3993C20.1406 21.6397 20.0107 21.8679 19.7928 21.9695C19.5916 22.0633 19.4 22.1739 19.2194 22.2999C19.0227 22.4375 18.7598 22.4362 18.5521 22.316L18.1722 22.0968C17.8649 21.9193 17.4715 22.0248 17.2941 22.332L16.6513 23.4454C16.4738 23.7527 16.5793 24.1461 16.8865 24.3235L17.6367 24.7568C17.5943 24.985 17.5692 25.2197 17.5692 25.4601C17.5692 25.7005 17.5943 25.9351 17.6361 26.1633L16.8859 26.5966C16.5786 26.774 16.4732 27.1675 16.6506 27.4747L17.2934 28.5881C17.4709 28.8954 17.8643 29.0008 18.1716 28.8234L18.5515 28.6042C18.7598 28.484 19.022 28.4827 19.2187 28.6203C19.3994 28.7463 19.5909 28.8568 19.7922 28.9507C20.0107 29.0523 20.1406 29.2805 20.1406 29.5209V29.9599C20.1406 30.3148 20.4286 30.6028 20.7834 30.6028H22.0691C22.4239 30.6028 22.7119 30.3148 22.7119 29.9599V29.5209C22.7119 29.2805 22.8418 29.0523 23.0597 28.9507C23.2609 28.8568 23.4525 28.7463 23.6331 28.6203C23.8298 28.4827 24.0927 28.484 24.3004 28.6042L24.6803 28.8234C24.9876 29.0008 25.381 28.8954 25.5584 28.5881L26.2012 27.4747C26.3787 27.1675 26.2732 26.774 25.966 26.5966ZM21.4262 28.0314C20.0062 28.0314 18.8549 26.8801 18.8549 25.4601C18.8549 24.0401 20.0062 22.8887 21.4262 22.8887C22.8463 22.8887 23.9976 24.0401 23.9976 25.4601C23.9976 26.8801 22.8463 28.0314 21.4262 28.0314Z" fill="#00A0C8"/>
</svg>
