<svg width="64" height="64" viewBox="0 0 64 64" fill="none" xmlns="http://www.w3.org/2000/svg">
<g opacity="0.2">
<path d="M41.5999 17.6C41.5999 13.0745 41.5999 10.8118 40.1941 9.40588C38.7882 8 36.5254 8 32 8C27.4745 8 25.2117 8 23.8059 9.40588C22.4 10.8118 22.4 13.0745 22.4 17.6M27.2 55.9999H36.7999C45.8509 55.9999 50.3764 55.9999 53.1881 53.1881C55.9999 50.3764 55.9999 45.8509 55.9999 36.7999C55.9999 27.749 55.9999 23.2235 53.1881 20.4118C50.3764 17.6 45.8509 17.6 36.7999 17.6H27.2C18.149 17.6 13.6235 17.6 10.8118 20.4118C8 23.2235 8 27.749 8 36.7999C8 45.8509 8 50.3764 10.8118 53.1881C13.6235 55.9999 18.149 55.9999 27.2 55.9999Z" stroke="url(#paint0_linear_795_8185)" stroke-width="4" stroke-linecap="round" stroke-linejoin="round"/>
<path d="M44.0002 24.8C44.0002 26.1255 42.9257 27.2 41.6002 27.2C40.2747 27.2 39.2002 26.1255 39.2002 24.8C39.2002 23.4745 40.2747 22.4 41.6002 22.4C42.9257 22.4 44.0002 23.4745 44.0002 24.8Z" fill="url(#paint1_linear_795_8185)"/>
<path d="M24.801 24.8C24.801 26.1255 23.7265 27.2 22.401 27.2C21.0755 27.2 20.001 26.1255 20.001 24.8C20.001 23.4745 21.0755 22.4 22.401 22.4C23.7265 22.4 24.801 23.4745 24.801 24.8Z" fill="url(#paint2_linear_795_8185)"/>
</g>
<defs>
<linearGradient id="paint0_linear_795_8185" x1="41.0473" y1="8" x2="41.0473" y2="64.8207" gradientUnits="userSpaceOnUse">
<stop stop-color="white"/>
<stop offset="1" stop-color="white" stop-opacity="0"/>
</linearGradient>
<linearGradient id="paint1_linear_795_8185" x1="42.5049" y1="22.4" x2="42.5049" y2="28.0821" gradientUnits="userSpaceOnUse">
<stop stop-color="white"/>
<stop offset="1" stop-color="white" stop-opacity="0"/>
</linearGradient>
<linearGradient id="paint2_linear_795_8185" x1="23.3057" y1="22.4" x2="23.3057" y2="28.0821" gradientUnits="userSpaceOnUse">
<stop stop-color="white"/>
<stop offset="1" stop-color="white" stop-opacity="0"/>
</linearGradient>
</defs>
</svg>
